999
Inkscape export via "Better Better DXF Output" (http://tim.cexx.org/?p=590)
  0
SECTION
  2
HEADER
  9
$ACADVER
  1
AC1014
  9
$HANDSEED
  5
FFFF
  0
ENDSEC
  0
SECTION
  2
TABLES
  0
TABLE
  2
VPORT
  5
8
330
0
100
AcDbSymbolTable
 70
     4
  0
VPORT
  5
2E
330
8
100
AcDbSymbolTableRecord
100
AcDbViewportTableRecord
  2
*ACTIVE
 70
     0
 10
0.0
 20
0.0
 11
1.0
 21
1.0
 12
4.25
 22
5.5
 13
0.0
 23
0.0
 14
10.0
 24
10.0
 15
10.0
 25
10.0
 16
0.0
 26
0.0
 36
1.0
 17
0.0
 27
0.0
 37
0.0
 40
11
 41
1.24
 42
50.0
 43
0.0
 44
0.0
 50
0.0
 51
0.0
 71
     0
 72
   100
 73
     1
 74
     3
 75
     0
 76
     0
 77
     0
 78
     0
  0
ENDTAB
  0
TABLE
  2
LTYPE
  5
5
330
0
100
AcDbSymbolTable
 70
     1
  0
LTYPE
  5
14
330
5
100
AcDbSymbolTableRecord
100
AcDbLinetypeTableRecord
  2
BYBLOCK
 70
     0
  3

 72
    65
 73
     0
 40
0.0
  0
LTYPE
  5
15
330
5
100
AcDbSymbolTableRecord
100
AcDbLinetypeTableRecord
  2
BYLAYER
 70
     0
  3

 72
    65
 73
     0
 40
0.0
  0
LTYPE
  5
16
330
5
100
AcDbSymbolTableRecord
100
AcDbLinetypeTableRecord
  2
CONTINUOUS
 70
     0
  3
Solid line
 72
    65
 73
     0
 40
0.0
  0
ENDTAB
  0
TABLE
  2
STYLE
  5
3
330
0
100
AcDbSymbolTable
 70
     1
  0
STYLE
  5
11
330
3
100
AcDbSymbolTableRecord
100
AcDbTextStyleTableRecord
  2
STANDARD
 70
     0
 40
0.0
 41
1.0
 50
0.0
 71
     0
 42
2.5
  3
txt
  4

  0
ENDTAB
  0
TABLE
  2
VIEW
  5
6
330
0
100
AcDbSymbolTable
 70
     0
  0
ENDTAB
  0
TABLE
  2
UCS
  5
7
330
0
100
AcDbSymbolTable
 70
     0
  0
ENDTAB
  0
TABLE
  2
APPID
  5
9
330
0
100
AcDbSymbolTable
 70
     2
  0
APPID
  5
12
330
9
100
AcDbSymbolTableRecord
100
AcDbRegAppTableRecord
  2
ACAD
 70
     0
  0
ENDTAB
  0
TABLE
  2
DIMSTYLE
  5
A
330
0
100
AcDbSymbolTable
 70
     1
  0
DIMSTYLE
105
27
330
A
100
AcDbSymbolTableRecord
100
AcDbDimStyleTableRecord
  2
ISO-25
 70
     0
  3

  4

  5

  6

  7

 40
1.0
 41
2.5
 42
0.625
 43
3.75
 44
1.25
 45
0.0
 46
0.0
 47
0.0
 48
0.0
140
2.5
141
2.5
142
0.0
143
0.03937007874016
144
1.0
145
0.0
146
1.0
147
0.625
 71
     0
 72
     0
 73
     0
 74
     0
 75
     0
 76
     0
 77
     1
 78
     8
170
     0
171
     3
172
     1
173
     0
174
     0
175
     0
176
     0
177
     0
178
     0
270
     2
271
     2
272
     2
273
     2
274
     3
340
11
275
     0
280
     0
281
     0
282
     0
283
     0
284
     8
285
     0
286
     0
287
     3
288
     0
  0
ENDTAB
  0
TABLE
  2
BLOCK_RECORD
  5
1
330
0
100
AcDbSymbolTable
 70
     1
  0
BLOCK_RECORD
  5
1F
330
1
100
AcDbSymbolTableRecord
100
AcDbBlockTableRecord
  2
*MODEL_SPACE
  0
BLOCK_RECORD
  5
1B
330
1
100
AcDbSymbolTableRecord
100
AcDbBlockTableRecord
  2
*PAPER_SPACE
  0
ENDTAB
0
TABLE
2
LAYER
5
2
330
0
100
AcDbSymbolTable
70
1
0
LAYER
5
10
330
2
100
AcDbSymbolTableRecord
100
AcDbLayerTableRecord
2
Calque 1
70
0
62
7
6
CONTINUOUS
0
ENDTAB
0
ENDSEC
  0
SECTION
  2
BLOCKS
  0
BLOCK
  5
20
330
1F
100
AcDbEntity
  8
0
100
AcDbBlockBegin
  2
*MODEL_SPACE
 70
     0
 10
0.0
 20
0.0
 30
0.0
  3
*MODEL_SPACE
  1

  0
ENDBLK
  5
21
330
1F
100
AcDbEntity
  8
0
100
AcDbBlockEnd
  0
BLOCK
  5
1C
330
1B
100
AcDbEntity
 67
     1
  8
0
100
AcDbBlockBegin
  2
*PAPER_SPACE
  1

  0
ENDBLK
  5
1D
330
1B
100
AcDbEntity
 67
     1
  8
0
100
AcDbBlockEnd
  0
ENDSEC
  0
SECTION
  2
ENTITIES
0
LINE
8
Calque 1
62
4
5
100
100
AcDbEntity
100
AcDbLine
10
107.123492
20
30.129758
30
0.0
11
102.291820
21
30.559818
31
0.0
0
LINE
8
Calque 1
62
4
5
101
100
AcDbEntity
100
AcDbLine
10
102.291820
20
30.559818
30
0.0
11
97.499576
21
31.176580
31
0.0
0
LINE
8
Calque 1
62
4
5
102
100
AcDbEntity
100
AcDbLine
10
97.499576
20
31.176580
30
0.0
11
92.751129
21
31.978283
31
0.0
0
LINE
8
Calque 1
62
4
5
103
100
AcDbEntity
100
AcDbLine
10
92.751129
20
31.978283
30
0.0
11
88.050847
21
32.963162
31
0.0
0
LINE
8
Calque 1
62
4
5
104
100
AcDbEntity
100
AcDbLine
10
88.050847
20
32.963162
30
0.0
11
83.403098
21
34.129456
31
0.0
0
LINE
8
Calque 1
62
4
5
105
100
AcDbEntity
100
AcDbLine
10
83.403098
20
34.129456
30
0.0
11
78.812250
21
35.475402
31
0.0
0
LINE
8
Calque 1
62
4
5
106
100
AcDbEntity
100
AcDbLine
10
78.812250
20
35.475402
30
0.0
11
74.282672
21
36.999237
31
0.0
0
LINE
8
Calque 1
62
4
5
107
100
AcDbEntity
100
AcDbLine
10
74.282672
20
36.999237
30
0.0
11
69.818730
21
38.699199
31
0.0
0
LINE
8
Calque 1
62
4
5
108
100
AcDbEntity
100
AcDbLine
10
69.818730
20
38.699199
30
0.0
11
65.424795
21
40.573525
31
0.0
0
LINE
8
Calque 1
62
4
5
109
100
AcDbEntity
100
AcDbLine
10
65.424795
20
40.573525
30
0.0
11
61.105233
21
42.620453
31
0.0
0
LINE
8
Calque 1
62
4
5
10a
100
AcDbEntity
100
AcDbLine
10
61.105233
20
42.620453
30
0.0
11
56.864413
21
44.838219
31
0.0
0
LINE
8
Calque 1
62
4
5
10b
100
AcDbEntity
100
AcDbLine
10
56.864413
20
44.838219
30
0.0
11
52.706702
21
47.225062
31
0.0
0
LINE
8
Calque 1
62
4
5
10c
100
AcDbEntity
100
AcDbLine
10
52.706702
20
47.225062
30
0.0
11
48.636470
21
49.779219
31
0.0
0
LINE
8
Calque 1
62
4
5
10d
100
AcDbEntity
100
AcDbLine
10
48.636470
20
49.779219
30
0.0
11
44.658083
21
52.498927
31
0.0
0
LINE
8
Calque 1
62
4
5
10e
100
AcDbEntity
100
AcDbLine
10
44.658083
20
52.498927
30
0.0
11
40.775911
21
55.382423
31
0.0
0
LINE
8
Calque 1
62
4
5
10f
100
AcDbEntity
100
AcDbLine
10
40.775911
20
55.382423
30
0.0
11
36.994321
21
58.427946
31
0.0
0
LINE
8
Calque 1
62
4
5
110
100
AcDbEntity
100
AcDbLine
10
36.994321
20
58.427946
30
0.0
11
33.888176
21
61.191155
31
0.0
0
LINE
8
Calque 1
62
4
5
111
100
AcDbEntity
100
AcDbLine
10
33.888176
20
61.191155
30
0.0
11
30.293844
21
64.632488
31
0.0
0
LINE
8
Calque 1
62
4
5
112
100
AcDbEntity
100
AcDbLine
10
30.293844
20
64.632488
30
0.0
11
26.732216
21
68.238928
31
0.0
0
LINE
8
Calque 1
62
4
5
113
100
AcDbEntity
100
AcDbLine
10
26.732216
20
68.238928
30
0.0
11
23.724182
21
71.497459
31
0.0
0
LINE
8
Calque 1
62
4
5
114
100
AcDbEntity
100
AcDbLine
10
23.724182
20
71.497459
30
0.0
11
20.796128
21
74.962288
31
0.0
0
LINE
8
Calque 1
62
4
5
115
100
AcDbEntity
100
AcDbLine
10
20.796128
20
74.962288
30
0.0
11
18.005299
21
78.527755
31
0.0
0
LINE
8
Calque 1
62
4
5
116
100
AcDbEntity
100
AcDbLine
10
18.005299
20
78.527755
30
0.0
11
15.353832
21
82.189114
31
0.0
0
LINE
8
Calque 1
62
4
5
117
100
AcDbEntity
100
AcDbLine
10
15.353832
20
82.189114
30
0.0
11
12.843861
21
85.941619
31
0.0
0
LINE
8
Calque 1
62
4
5
118
100
AcDbEntity
100
AcDbLine
10
12.843861
20
85.941619
30
0.0
11
10.477523
21
89.780524
31
0.0
0
LINE
8
Calque 1
62
4
5
119
100
AcDbEntity
100
AcDbLine
10
10.477523
20
89.780524
30
0.0
11
8.256952
21
93.701085
31
0.0
0
LINE
8
Calque 1
62
4
5
11a
100
AcDbEntity
100
AcDbLine
10
8.256952
20
93.701085
30
0.0
11
6.184285
21
97.698554
31
0.0
0
LINE
8
Calque 1
62
4
5
11b
100
AcDbEntity
100
AcDbLine
10
6.184285
20
97.698554
30
0.0
11
4.261657
21
101.768187
31
0.0
0
LINE
8
Calque 1
62
4
5
11c
100
AcDbEntity
100
AcDbLine
10
4.261657
20
101.768187
30
0.0
11
2.491204
21
105.905238
31
0.0
0
LINE
8
Calque 1
62
4
5
11d
100
AcDbEntity
100
AcDbLine
10
2.491204
20
105.905238
30
0.0
11
0.875061
21
110.104962
31
0.0
0
LINE
8
Calque 1
62
4
5
11e
100
AcDbEntity
100
AcDbLine
10
0.875061
20
110.104962
30
0.0
11
-0.584636
21
114.362611
31
0.0
0
LINE
8
Calque 1
62
4
5
11f
100
AcDbEntity
100
AcDbLine
10
-0.584636
20
114.362611
30
0.0
11
-1.885751
21
118.673441
31
0.0
0
LINE
8
Calque 1
62
4
5
120
100
AcDbEntity
100
AcDbLine
10
-1.885751
20
118.673441
30
0.0
11
-3.026150
21
123.032707
31
0.0
0
LINE
8
Calque 1
62
4
5
121
100
AcDbEntity
100
AcDbLine
10
-3.026150
20
123.032707
30
0.0
11
-4.003695
21
127.435661
31
0.0
0
LINE
8
Calque 1
62
4
5
122
100
AcDbEntity
100
AcDbLine
10
-4.003695
20
127.435661
30
0.0
11
-4.816253
21
131.877560
31
0.0
0
LINE
8
Calque 1
62
4
5
123
100
AcDbEntity
100
AcDbLine
10
-4.816253
20
131.877560
30
0.0
11
-5.461686
21
136.353656
31
0.0
0
LINE
8
Calque 1
62
4
5
124
100
AcDbEntity
100
AcDbLine
10
-5.461686
20
136.353656
30
0.0
11
-6.019554
21
141.782401
31
0.0
0
LINE
8
Calque 1
62
4
5
125
100
AcDbEntity
100
AcDbLine
10
-6.019554
20
141.782401
30
0.0
11
-6.336932
21
147.201256
31
0.0
0
LINE
8
Calque 1
62
4
5
126
100
AcDbEntity
100
AcDbLine
10
-6.336932
20
147.201256
30
0.0
11
-6.415277
21
152.603963
31
0.0
0
LINE
8
Calque 1
62
4
5
127
100
AcDbEntity
100
AcDbLine
10
-6.415277
20
152.603963
30
0.0
11
-6.256045
21
157.984263
31
0.0
0
LINE
8
Calque 1
62
4
5
128
100
AcDbEntity
100
AcDbLine
10
-6.256045
20
157.984263
30
0.0
11
-5.860693
21
163.335896
31
0.0
0
LINE
8
Calque 1
62
4
5
129
100
AcDbEntity
100
AcDbLine
10
-5.860693
20
163.335896
30
0.0
11
-5.230677
21
168.652602
31
0.0
0
LINE
8
Calque 1
62
4
5
12a
100
AcDbEntity
100
AcDbLine
10
-5.230677
20
168.652602
30
0.0
11
-4.367453
21
173.928124
31
0.0
0
LINE
8
Calque 1
62
4
5
12b
100
AcDbEntity
100
AcDbLine
10
-4.367453
20
173.928124
30
0.0
11
-3.272477
21
179.156202
31
0.0
0
LINE
8
Calque 1
62
4
5
12c
100
AcDbEntity
100
AcDbLine
10
-3.272477
20
179.156202
30
0.0
11
-1.947206
21
184.330575
31
0.0
0
LINE
8
Calque 1
62
4
5
12d
100
AcDbEntity
100
AcDbLine
10
-1.947206
20
184.330575
30
0.0
11
-0.393096
21
189.444987
31
0.0
0
LINE
8
Calque 1
62
4
5
12e
100
AcDbEntity
100
AcDbLine
10
-0.393096
20
189.444987
30
0.0
11
1.388397
21
194.493176
31
0.0
0
LINE
8
Calque 1
62
4
5
12f
100
AcDbEntity
100
AcDbLine
10
1.388397
20
194.493176
30
0.0
11
3.395817
21
199.468885
31
0.0
0
LINE
8
Calque 1
62
4
5
130
100
AcDbEntity
100
AcDbLine
10
3.395817
20
199.468885
30
0.0
11
5.627707
21
204.365854
31
0.0
0
LINE
8
Calque 1
62
4
5
131
100
AcDbEntity
100
AcDbLine
10
5.627707
20
204.365854
30
0.0
11
8.082611
21
209.177823
31
0.0
0
LINE
8
Calque 1
62
4
5
132
100
AcDbEntity
100
AcDbLine
10
8.082611
20
209.177823
30
0.0
11
10.759073
21
213.898534
31
0.0
0
LINE
8
Calque 1
62
4
5
133
100
AcDbEntity
100
AcDbLine
10
10.759073
20
213.898534
30
0.0
11
13.655636
21
218.521727
31
0.0
0
LINE
8
Calque 1
62
4
5
134
100
AcDbEntity
100
AcDbLine
10
13.655636
20
218.521727
30
0.0
11
17.097695
21
223.462756
31
0.0
0
LINE
8
Calque 1
62
4
5
135
100
AcDbEntity
100
AcDbLine
10
17.097695
20
223.462756
30
0.0
11
20.837593
21
228.277167
31
0.0
0
LINE
8
Calque 1
62
4
5
136
100
AcDbEntity
100
AcDbLine
10
20.837593
20
228.277167
30
0.0
11
24.848933
21
232.938486
31
0.0
0
LINE
8
Calque 1
62
4
5
137
100
AcDbEntity
100
AcDbLine
10
24.848933
20
232.938486
30
0.0
11
29.105320
21
237.420237
31
0.0
0
LINE
8
Calque 1
62
4
5
138
100
AcDbEntity
100
AcDbLine
10
29.105320
20
237.420237
30
0.0
11
33.580356
21
241.695946
31
0.0
0
LINE
8
Calque 1
62
4
5
139
100
AcDbEntity
100
AcDbLine
10
33.580356
20
241.695946
30
0.0
11
38.247645
21
245.739137
31
0.0
0
LINE
8
Calque 1
62
4
5
13a
100
AcDbEntity
100
AcDbLine
10
38.247645
20
245.739137
30
0.0
11
43.080791
21
249.523335
31
0.0
0
LINE
8
Calque 1
62
4
5
13b
100
AcDbEntity
100
AcDbLine
10
43.080791
20
249.523335
30
0.0
11
48.053396
21
253.022065
31
0.0
0
LINE
8
Calque 1
62
4
5
13c
100
AcDbEntity
100
AcDbLine
10
48.053396
20
253.022065
30
0.0
11
52.238752
21
255.681497
31
0.0
0
LINE
8
Calque 1
62
4
5
13d
100
AcDbEntity
100
AcDbLine
10
52.238752
20
255.681497
30
0.0
11
56.526027
21
258.163351
31
0.0
0
LINE
8
Calque 1
62
4
5
13e
100
AcDbEntity
100
AcDbLine
10
56.526027
20
258.163351
30
0.0
11
60.907338
21
260.465511
31
0.0
0
LINE
8
Calque 1
62
4
5
13f
100
AcDbEntity
100
AcDbLine
10
60.907338
20
260.465511
30
0.0
11
65.374803
21
262.585864
31
0.0
0
LINE
8
Calque 1
62
4
5
140
100
AcDbEntity
100
AcDbLine
10
65.374803
20
262.585864
30
0.0
11
69.920539
21
264.522294
31
0.0
0
LINE
8
Calque 1
62
4
5
141
100
AcDbEntity
100
AcDbLine
10
69.920539
20
264.522294
30
0.0
11
74.536662
21
266.272688
31
0.0
0
LINE
8
Calque 1
62
4
5
142
100
AcDbEntity
100
AcDbLine
10
74.536662
20
266.272688
30
0.0
11
79.215290
21
267.834931
31
0.0
0
LINE
8
Calque 1
62
4
5
143
100
AcDbEntity
100
AcDbLine
10
79.215290
20
267.834931
30
0.0
11
83.948538
21
269.206909
31
0.0
0
LINE
8
Calque 1
62
4
5
144
100
AcDbEntity
100
AcDbLine
10
83.948538
20
269.206909
30
0.0
11
88.728526
21
270.386507
31
0.0
0
LINE
8
Calque 1
62
4
5
145
100
AcDbEntity
100
AcDbLine
10
88.728526
20
270.386507
30
0.0
11
93.547368
21
271.371612
31
0.0
0
LINE
8
Calque 1
62
4
5
146
100
AcDbEntity
100
AcDbLine
10
93.547368
20
271.371612
30
0.0
11
98.397182
21
272.160109
31
0.0
0
LINE
8
Calque 1
62
4
5
147
100
AcDbEntity
100
AcDbLine
10
98.397182
20
272.160109
30
0.0
11
103.270086
21
272.749883
31
0.0
0
LINE
8
Calque 1
62
4
5
148
100
AcDbEntity
100
AcDbLine
10
103.270086
20
272.749883
30
0.0
11
108.158196
21
273.138821
31
0.0
0
LINE
8
Calque 1
62
4
5
149
100
AcDbEntity
100
AcDbLine
10
108.158196
20
273.138821
30
0.0
11
113.053628
21
273.324807
31
0.0
0
LINE
8
Calque 1
62
4
5
14a
100
AcDbEntity
100
AcDbLine
10
113.053628
20
273.324807
30
0.0
11
117.948501
21
273.305728
31
0.0
0
LINE
8
Calque 1
62
4
5
14b
100
AcDbEntity
100
AcDbLine
10
117.948501
20
273.305728
30
0.0
11
122.834931
21
273.079469
31
0.0
0
LINE
8
Calque 1
62
4
5
14c
100
AcDbEntity
100
AcDbLine
10
122.834931
20
273.079469
30
0.0
11
128.978030
21
272.517437
31
0.0
0
LINE
8
Calque 1
62
4
5
14d
100
AcDbEntity
100
AcDbLine
10
128.978030
20
272.517437
30
0.0
11
135.030871
21
271.671471
31
0.0
0
LINE
8
Calque 1
62
4
5
14e
100
AcDbEntity
100
AcDbLine
10
135.030871
20
271.671471
30
0.0
11
140.987379
21
270.544561
31
0.0
0
LINE
8
Calque 1
62
4
5
14f
100
AcDbEntity
100
AcDbLine
10
140.987379
20
270.544561
30
0.0
11
146.841478
21
269.139700
31
0.0
0
LINE
8
Calque 1
62
4
5
150
100
AcDbEntity
100
AcDbLine
10
146.841478
20
269.139700
30
0.0
11
152.587095
21
267.459877
31
0.0
0
LINE
8
Calque 1
62
4
5
151
100
AcDbEntity
100
AcDbLine
10
152.587095
20
267.459877
30
0.0
11
158.218154
21
265.508084
31
0.0
0
LINE
8
Calque 1
62
4
5
152
100
AcDbEntity
100
AcDbLine
10
158.218154
20
265.508084
30
0.0
11
163.728582
21
263.287312
31
0.0
0
LINE
8
Calque 1
62
4
5
153
100
AcDbEntity
100
AcDbLine
10
163.728582
20
263.287312
30
0.0
11
169.112303
21
260.800552
31
0.0
0
LINE
8
Calque 1
62
4
5
154
100
AcDbEntity
100
AcDbLine
10
169.112303
20
260.800552
30
0.0
11
174.363243
21
258.050796
31
0.0
0
LINE
8
Calque 1
62
4
5
155
100
AcDbEntity
100
AcDbLine
10
174.363243
20
258.050796
30
0.0
11
179.475328
21
255.041034
31
0.0
0
LINE
8
Calque 1
62
4
5
156
100
AcDbEntity
100
AcDbLine
10
179.475328
20
255.041034
30
0.0
11
184.442482
21
251.774258
31
0.0
0
LINE
8
Calque 1
62
4
5
157
100
AcDbEntity
100
AcDbLine
10
184.442482
20
251.774258
30
0.0
11
189.258632
21
248.253459
31
0.0
0
LINE
8
Calque 1
62
4
5
158
100
AcDbEntity
100
AcDbLine
10
189.258632
20
248.253459
30
0.0
11
193.917703
21
244.481628
31
0.0
0
LINE
8
Calque 1
62
4
5
159
100
AcDbEntity
100
AcDbLine
10
193.917703
20
244.481628
30
0.0
11
198.413619
21
240.461755
31
0.0
0
LINE
8
Calque 1
62
4
5
15a
100
AcDbEntity
100
AcDbLine
10
198.413619
20
240.461755
30
0.0
11
202.740307
21
236.196833
31
0.0
0
LINE
8
Calque 1
62
4
5
15b
100
AcDbEntity
100
AcDbLine
10
202.740307
20
236.196833
30
0.0
11
206.891692
21
231.689852
31
0.0
0
LINE
8
Calque 1
62
4
5
15c
100
AcDbEntity
100
AcDbLine
10
206.891692
20
231.689852
30
0.0
11
209.829529
21
228.215170
31
0.0
0
LINE
8
Calque 1
62
4
5
15d
100
AcDbEntity
100
AcDbLine
10
209.829529
20
228.215170
30
0.0
11
212.626556
21
224.646165
31
0.0
0
LINE
8
Calque 1
62
4
5
15e
100
AcDbEntity
100
AcDbLine
10
212.626556
20
224.646165
30
0.0
11
215.281122
21
220.986512
31
0.0
0
LINE
8
Calque 1
62
4
5
15f
100
AcDbEntity
100
AcDbLine
10
215.281122
20
220.986512
30
0.0
11
217.791572
21
217.239884
31
0.0
0
LINE
8
Calque 1
62
4
5
160
100
AcDbEntity
100
AcDbLine
10
217.791572
20
217.239884
30
0.0
11
220.156255
21
213.409956
31
0.0
0
LINE
8
Calque 1
62
4
5
161
100
AcDbEntity
100
AcDbLine
10
220.156255
20
213.409956
30
0.0
11
222.373516
21
209.500401
31
0.0
0
LINE
8
Calque 1
62
4
5
162
100
AcDbEntity
100
AcDbLine
10
222.373516
20
209.500401
30
0.0
11
224.441702
21
205.514894
31
0.0
0
LINE
8
Calque 1
62
4
5
163
100
AcDbEntity
100
AcDbLine
10
224.441702
20
205.514894
30
0.0
11
226.359162
21
201.457108
31
0.0
0
LINE
8
Calque 1
62
4
5
164
100
AcDbEntity
100
AcDbLine
10
226.359162
20
201.457108
30
0.0
11
228.124240
21
197.330717
31
0.0
0
LINE
8
Calque 1
62
4
5
165
100
AcDbEntity
100
AcDbLine
10
228.124240
20
197.330717
30
0.0
11
229.735285
21
193.139395
31
0.0
0
LINE
8
Calque 1
62
4
5
166
100
AcDbEntity
100
AcDbLine
10
229.735285
20
193.139395
30
0.0
11
231.190643
21
188.886816
31
0.0
0
LINE
8
Calque 1
62
4
5
167
100
AcDbEntity
100
AcDbLine
10
231.190643
20
188.886816
30
0.0
11
232.488660
21
184.576654
31
0.0
0
LINE
8
Calque 1
62
4
5
168
100
AcDbEntity
100
AcDbLine
10
232.488660
20
184.576654
30
0.0
11
233.627685
21
180.212583
31
0.0
0
LINE
8
Calque 1
62
4
5
169
100
AcDbEntity
100
AcDbLine
10
233.627685
20
180.212583
30
0.0
11
234.606063
21
175.798277
31
0.0
0
LINE
8
Calque 1
62
4
5
16a
100
AcDbEntity
100
AcDbLine
10
234.606063
20
175.798277
30
0.0
11
235.422142
21
171.337410
31
0.0
0
LINE
8
Calque 1
62
4
5
16b
100
AcDbEntity
100
AcDbLine
10
235.422142
20
171.337410
30
0.0
11
236.074269
21
166.833656
31
0.0
0
LINE
8
Calque 1
62
4
5
16c
100
AcDbEntity
100
AcDbLine
10
236.074269
20
166.833656
30
0.0
11
236.636212
21
161.394204
31
0.0
0
LINE
8
Calque 1
62
4
5
16d
100
AcDbEntity
100
AcDbLine
10
236.636212
20
161.394204
30
0.0
11
236.953809
21
155.957278
31
0.0
0
LINE
8
Calque 1
62
4
5
16e
100
AcDbEntity
100
AcDbLine
10
236.953809
20
155.957278
30
0.0
11
237.028833
21
150.530436
31
0.0
0
LINE
8
Calque 1
62
4
5
16f
100
AcDbEntity
100
AcDbLine
10
237.028833
20
150.530436
30
0.0
11
236.863056
21
145.121239
31
0.0
0
LINE
8
Calque 1
62
4
5
170
100
AcDbEntity
100
AcDbLine
10
236.863056
20
145.121239
30
0.0
11
236.458250
21
139.737247
31
0.0
0
LINE
8
Calque 1
62
4
5
171
100
AcDbEntity
100
AcDbLine
10
236.458250
20
139.737247
30
0.0
11
235.816188
21
134.386021
31
0.0
0
LINE
8
Calque 1
62
4
5
172
100
AcDbEntity
100
AcDbLine
10
235.816188
20
134.386021
30
0.0
11
234.938641
21
129.075120
31
0.0
0
LINE
8
Calque 1
62
4
5
173
100
AcDbEntity
100
AcDbLine
10
234.938641
20
129.075120
30
0.0
11
233.827382
21
123.812106
31
0.0
0
LINE
8
Calque 1
62
4
5
174
100
AcDbEntity
100
AcDbLine
10
233.827382
20
123.812106
30
0.0
11
232.484183
21
118.604537
31
0.0
0
LINE
8
Calque 1
62
4
5
175
100
AcDbEntity
100
AcDbLine
10
232.484183
20
118.604537
30
0.0
11
230.910817
21
113.459975
31
0.0
0
LINE
8
Calque 1
62
4
5
176
100
AcDbEntity
100
AcDbLine
10
230.910817
20
113.459975
30
0.0
11
229.109056
21
108.385980
31
0.0
0
LINE
8
Calque 1
62
4
5
177
100
AcDbEntity
100
AcDbLine
10
229.109056
20
108.385980
30
0.0
11
227.080671
21
103.390112
31
0.0
0
LINE
8
Calque 1
62
4
5
178
100
AcDbEntity
100
AcDbLine
10
227.080671
20
103.390112
30
0.0
11
224.827435
21
98.479932
31
0.0
0
LINE
8
Calque 1
62
4
5
179
100
AcDbEntity
100
AcDbLine
10
224.827435
20
98.479932
30
0.0
11
222.351121
21
93.662998
31
0.0
0
LINE
8
Calque 1
62
4
5
17a
100
AcDbEntity
100
AcDbLine
10
222.351121
20
93.662998
30
0.0
11
219.653501
21
88.946873
31
0.0
0
LINE
8
Calque 1
62
4
5
17b
100
AcDbEntity
100
AcDbLine
10
219.653501
20
88.946873
30
0.0
11
216.736346
21
84.339115
31
0.0
0
LINE
8
Calque 1
62
4
5
17c
100
AcDbEntity
100
AcDbLine
10
216.736346
20
84.339115
30
0.0
11
213.786878
21
80.111931
31
0.0
0
LINE
8
Calque 1
62
4
5
17d
100
AcDbEntity
100
AcDbLine
10
213.786878
20
80.111931
30
0.0
11
210.624976
21
75.976689
31
0.0
0
LINE
8
Calque 1
62
4
5
17e
100
AcDbEntity
100
AcDbLine
10
210.624976
20
75.976689
30
0.0
11
207.267966
21
71.951711
31
0.0
0
LINE
8
Calque 1
62
4
5
17f
100
AcDbEntity
100
AcDbLine
10
207.267966
20
71.951711
30
0.0
11
203.733174
21
68.055319
31
0.0
0
LINE
8
Calque 1
62
4
5
180
100
AcDbEntity
100
AcDbLine
10
203.733174
20
68.055319
30
0.0
11
200.037923
21
64.305835
31
0.0
0
LINE
8
Calque 1
62
4
5
181
100
AcDbEntity
100
AcDbLine
10
200.037923
20
64.305835
30
0.0
11
196.199539
21
60.721580
31
0.0
0
LINE
8
Calque 1
62
4
5
182
100
AcDbEntity
100
AcDbLine
10
196.199539
20
60.721580
30
0.0
11
192.235348
21
57.320876
31
0.0
0
LINE
8
Calque 1
62
4
5
183
100
AcDbEntity
100
AcDbLine
10
192.235348
20
57.320876
30
0.0
11
188.162675
21
54.122045
31
0.0
0
LINE
8
Calque 1
62
4
5
184
100
AcDbEntity
100
AcDbLine
10
188.162675
20
54.122045
30
0.0
11
183.746293
21
50.962453
31
0.0
0
LINE
8
Calque 1
62
4
5
185
100
AcDbEntity
100
AcDbLine
10
183.746293
20
50.962453
30
0.0
11
179.202646
21
48.012129
31
0.0
0
LINE
8
Calque 1
62
4
5
186
100
AcDbEntity
100
AcDbLine
10
179.202646
20
48.012129
30
0.0
11
174.540474
21
45.273659
31
0.0
0
LINE
8
Calque 1
62
4
5
187
100
AcDbEntity
100
AcDbLine
10
174.540474
20
45.273659
30
0.0
11
169.768518
21
42.749632
31
0.0
0
LINE
8
Calque 1
62
4
5
188
100
AcDbEntity
100
AcDbLine
10
169.768518
20
42.749632
30
0.0
11
164.895518
21
40.442635
31
0.0
0
LINE
8
Calque 1
62
4
5
189
100
AcDbEntity
100
AcDbLine
10
164.895518
20
40.442635
30
0.0
11
159.930215
21
38.355255
31
0.0
0
LINE
8
Calque 1
62
4
5
18a
100
AcDbEntity
100
AcDbLine
10
159.930215
20
38.355255
30
0.0
11
154.881351
21
36.490082
31
0.0
0
LINE
8
Calque 1
62
4
5
18b
100
AcDbEntity
100
AcDbLine
10
154.881351
20
36.490082
30
0.0
11
149.757664
21
34.849702
31
0.0
0
LINE
8
Calque 1
62
4
5
18c
100
AcDbEntity
100
AcDbLine
10
149.757664
20
34.849702
30
0.0
11
144.567898
21
33.436703
31
0.0
0
LINE
8
Calque 1
62
4
5
18d
100
AcDbEntity
100
AcDbLine
10
144.567898
20
33.436703
30
0.0
11
139.320791
21
32.253674
31
0.0
0
LINE
8
Calque 1
62
4
5
18e
100
AcDbEntity
100
AcDbLine
10
139.320791
20
32.253674
30
0.0
11
134.025085
21
31.303201
31
0.0
0
LINE
8
Calque 1
62
4
5
18f
100
AcDbEntity
100
AcDbLine
10
134.025085
20
31.303201
30
0.0
11
128.689521
21
30.587872
31
0.0
0
LINE
8
Calque 1
62
4
5
190
100
AcDbEntity
100
AcDbLine
10
128.689521
20
30.587872
30
0.0
11
123.322839
21
30.110276
31
0.0
0
LINE
8
Calque 1
62
4
5
191
100
AcDbEntity
100
AcDbLine
10
123.322839
20
30.110276
30
0.0
11
117.933779
21
29.872999
31
0.0
0
LINE
8
Calque 1
62
4
5
192
100
AcDbEntity
100
AcDbLine
10
117.933779
20
29.872999
30
0.0
11
112.531084
21
29.878631
31
0.0
0
LINE
8
Calque 1
62
4
5
193
100
AcDbEntity
100
AcDbLine
10
112.531084
20
29.878631
30
0.0
11
107.123492
21
30.129758
31
0.0
0
LINE
8
Calque 1
62
4
5
194
100
AcDbEntity
100
AcDbLine
10
107.123492
20
30.129758
30
0.0
11
107.123492
21
30.129758
31
0.0
0
LINE
8
Calque 1
62
4
5
195
100
AcDbEntity
100
AcDbLine
10
122.504604
20
45.209058
30
0.0
11
128.208916
21
45.688600
31
0.0
0
LINE
8
Calque 1
62
4
5
196
100
AcDbEntity
100
AcDbLine
10
128.208916
20
45.688600
30
0.0
11
134.013558
21
46.547957
31
0.0
0
LINE
8
Calque 1
62
4
5
197
100
AcDbEntity
100
AcDbLine
10
134.013558
20
46.547957
30
0.0
11
139.867371
21
47.771848
31
0.0
0
LINE
8
Calque 1
62
4
5
198
100
AcDbEntity
100
AcDbLine
10
139.867371
20
47.771848
30
0.0
11
145.719199
21
49.344990
31
0.0
0
LINE
8
Calque 1
62
4
5
199
100
AcDbEntity
100
AcDbLine
10
145.719199
20
49.344990
30
0.0
11
151.517882
21
51.252102
31
0.0
0
LINE
8
Calque 1
62
4
5
19a
100
AcDbEntity
100
AcDbLine
10
151.517882
20
51.252102
30
0.0
11
157.212264
21
53.477901
31
0.0
0
LINE
8
Calque 1
62
4
5
19b
100
AcDbEntity
100
AcDbLine
10
157.212264
20
53.477901
30
0.0
11
162.751187
21
56.007106
31
0.0
0
LINE
8
Calque 1
62
4
5
19c
100
AcDbEntity
100
AcDbLine
10
162.751187
20
56.007106
30
0.0
11
168.083492
21
58.824434
31
0.0
0
LINE
8
Calque 1
62
4
5
19d
100
AcDbEntity
100
AcDbLine
10
168.083492
20
58.824434
30
0.0
11
171.367187
21
60.806836
31
0.0
0
LINE
8
Calque 1
62
4
5
19e
100
AcDbEntity
100
AcDbLine
10
171.367187
20
60.806836
30
0.0
11
175.046622
21
63.222143
31
0.0
0
LINE
8
Calque 1
62
4
5
19f
100
AcDbEntity
100
AcDbLine
10
175.046622
20
63.222143
30
0.0
11
178.701715
21
65.785221
31
0.0
0
LINE
8
Calque 1
62
4
5
1a0
100
AcDbEntity
100
AcDbLine
10
178.701715
20
65.785221
30
0.0
11
181.912381
21
68.210934
31
0.0
0
LINE
8
Calque 1
62
4
5
1a1
100
AcDbEntity
100
AcDbLine
10
181.912381
20
68.210934
30
0.0
11
185.933214
21
71.695796
31
0.0
0
LINE
8
Calque 1
62
4
5
1a2
100
AcDbEntity
100
AcDbLine
10
185.933214
20
71.695796
30
0.0
11
190.576502
21
76.149568
31
0.0
0
LINE
8
Calque 1
62
4
5
1a3
100
AcDbEntity
100
AcDbLine
10
190.576502
20
76.149568
30
0.0
11
195.034526
21
80.767185
31
0.0
0
LINE
8
Calque 1
62
4
5
1a4
100
AcDbEntity
100
AcDbLine
10
195.034526
20
80.767185
30
0.0
11
198.499566
21
84.743582
31
0.0
0
LINE
8
Calque 1
62
4
5
1a5
100
AcDbEntity
100
AcDbLine
10
198.499566
20
84.743582
30
0.0
11
203.001304
21
90.797434
31
0.0
0
LINE
8
Calque 1
62
4
5
1a6
100
AcDbEntity
100
AcDbLine
10
203.001304
20
90.797434
30
0.0
11
207.031064
21
97.067756
31
0.0
0
LINE
8
Calque 1
62
4
5
1a7
100
AcDbEntity
100
AcDbLine
10
207.031064
20
97.067756
30
0.0
11
210.588522
21
103.553776
31
0.0
0
LINE
8
Calque 1
62
4
5
1a8
100
AcDbEntity
100
AcDbLine
10
210.588522
20
103.553776
30
0.0
11
213.673356
21
110.254721
31
0.0
0
LINE
8
Calque 1
62
4
5
1a9
100
AcDbEntity
100
AcDbLine
10
213.673356
20
110.254721
30
0.0
11
216.285242
21
117.169820
31
0.0
0
LINE
8
Calque 1
62
4
5
1aa
100
AcDbEntity
100
AcDbLine
10
216.285242
20
117.169820
30
0.0
11
218.423856
21
124.298298
31
0.0
0
LINE
8
Calque 1
62
4
5
1ab
100
AcDbEntity
100
AcDbLine
10
218.423856
20
124.298298
30
0.0
11
220.088877
21
131.639385
31
0.0
0
LINE
8
Calque 1
62
4
5
1ac
100
AcDbEntity
100
AcDbLine
10
220.088877
20
131.639385
30
0.0
11
221.279980
21
139.192306
31
0.0
0
LINE
8
Calque 1
62
4
5
1ad
100
AcDbEntity
100
AcDbLine
10
221.279980
20
139.192306
30
0.0
11
221.736865
21
144.902030
31
0.0
0
LINE
8
Calque 1
62
4
5
1ae
100
AcDbEntity
100
AcDbLine
10
221.736865
20
144.902030
30
0.0
11
221.888669
21
151.594029
31
0.0
0
LINE
8
Calque 1
62
4
5
1af
100
AcDbEntity
100
AcDbLine
10
221.888669
20
151.594029
30
0.0
11
221.735495
21
158.289947
31
0.0
0
LINE
8
Calque 1
62
4
5
1b0
100
AcDbEntity
100
AcDbLine
10
221.735495
20
158.289947
30
0.0
11
221.277440
21
164.011434
31
0.0
0
LINE
8
Calque 1
62
4
5
1b1
100
AcDbEntity
100
AcDbLine
10
221.277440
20
164.011434
30
0.0
11
220.094615
21
171.520782
31
0.0
0
LINE
8
Calque 1
62
4
5
1b2
100
AcDbEntity
100
AcDbLine
10
220.094615
20
171.520782
30
0.0
11
218.440083
21
178.827003
31
0.0
0
LINE
8
Calque 1
62
4
5
1b3
100
AcDbEntity
100
AcDbLine
10
218.440083
20
178.827003
30
0.0
11
216.315337
21
185.926517
31
0.0
0
LINE
8
Calque 1
62
4
5
1b4
100
AcDbEntity
100
AcDbLine
10
216.315337
20
185.926517
30
0.0
11
213.721871
21
192.815740
31
0.0
0
LINE
8
Calque 1
62
4
5
1b5
100
AcDbEntity
100
AcDbLine
10
213.721871
20
192.815740
30
0.0
11
210.661177
21
199.491092
31
0.0
0
LINE
8
Calque 1
62
4
5
1b6
100
AcDbEntity
100
AcDbLine
10
210.661177
20
199.491092
30
0.0
11
207.134748
21
205.948991
31
0.0
0
LINE
8
Calque 1
62
4
5
1b7
100
AcDbEntity
100
AcDbLine
10
207.134748
20
205.948991
30
0.0
11
203.144078
21
212.185854
31
0.0
0
LINE
8
Calque 1
62
4
5
1b8
100
AcDbEntity
100
AcDbLine
10
203.144078
20
212.185854
30
0.0
11
198.690659
21
218.198100
31
0.0
0
LINE
8
Calque 1
62
4
5
1b9
100
AcDbEntity
100
AcDbLine
10
198.690659
20
218.198100
30
0.0
11
195.153960
21
222.279961
31
0.0
0
LINE
8
Calque 1
62
4
5
1ba
100
AcDbEntity
100
AcDbLine
10
195.153960
20
222.279961
30
0.0
11
190.664961
21
226.950680
31
0.0
0
LINE
8
Calque 1
62
4
5
1bb
100
AcDbEntity
100
AcDbLine
10
190.664961
20
226.950680
30
0.0
11
185.994242
21
231.439679
31
0.0
0
LINE
8
Calque 1
62
4
5
1bc
100
AcDbEntity
100
AcDbLine
10
185.994242
20
231.439679
30
0.0
11
181.912381
21
234.976378
31
0.0
0
LINE
8
Calque 1
62
4
5
1bd
100
AcDbEntity
100
AcDbLine
10
181.912381
20
234.976378
30
0.0
11
175.900135
21
239.429797
31
0.0
0
LINE
8
Calque 1
62
4
5
1be
100
AcDbEntity
100
AcDbLine
10
175.900135
20
239.429797
30
0.0
11
169.663272
21
243.420467
31
0.0
0
LINE
8
Calque 1
62
4
5
1bf
100
AcDbEntity
100
AcDbLine
10
169.663272
20
243.420467
30
0.0
11
163.205374
21
246.946896
31
0.0
0
LINE
8
Calque 1
62
4
5
1c0
100
AcDbEntity
100
AcDbLine
10
163.205374
20
246.946896
30
0.0
11
156.530022
21
250.007590
31
0.0
0
LINE
8
Calque 1
62
4
5
1c1
100
AcDbEntity
100
AcDbLine
10
156.530022
20
250.007590
30
0.0
11
149.640798
21
252.601056
31
0.0
0
LINE
8
Calque 1
62
4
5
1c2
100
AcDbEntity
100
AcDbLine
10
149.640798
20
252.601056
30
0.0
11
142.541284
21
254.725802
31
0.0
0
LINE
8
Calque 1
62
4
5
1c3
100
AcDbEntity
100
AcDbLine
10
142.541284
20
254.725802
30
0.0
11
135.235063
21
256.380334
31
0.0
0
LINE
8
Calque 1
62
4
5
1c4
100
AcDbEntity
100
AcDbLine
10
135.235063
20
256.380334
30
0.0
11
127.725715
21
257.563158
31
0.0
0
LINE
8
Calque 1
62
4
5
1c5
100
AcDbEntity
100
AcDbLine
10
127.725715
20
257.563158
30
0.0
11
122.004229
21
258.021213
31
0.0
0
LINE
8
Calque 1
62
4
5
1c6
100
AcDbEntity
100
AcDbLine
10
122.004229
20
258.021213
30
0.0
11
115.308310
21
258.174388
31
0.0
0
LINE
8
Calque 1
62
4
5
1c7
100
AcDbEntity
100
AcDbLine
10
115.308310
20
258.174388
30
0.0
11
108.616312
21
258.022583
31
0.0
0
LINE
8
Calque 1
62
4
5
1c8
100
AcDbEntity
100
AcDbLine
10
108.616312
20
258.022583
30
0.0
11
102.906587
21
257.565698
31
0.0
0
LINE
8
Calque 1
62
4
5
1c9
100
AcDbEntity
100
AcDbLine
10
102.906587
20
257.565698
30
0.0
11
95.353666
21
256.374596
31
0.0
0
LINE
8
Calque 1
62
4
5
1ca
100
AcDbEntity
100
AcDbLine
10
95.353666
20
256.374596
30
0.0
11
88.012580
21
254.709577
31
0.0
0
LINE
8
Calque 1
62
4
5
1cb
100
AcDbEntity
100
AcDbLine
10
88.012580
20
254.709577
30
0.0
11
80.884101
21
252.570962
31
0.0
0
LINE
8
Calque 1
62
4
5
1cc
100
AcDbEntity
100
AcDbLine
10
80.884101
20
252.570962
30
0.0
11
73.969003
21
249.959077
31
0.0
0
LINE
8
Calque 1
62
4
5
1cd
100
AcDbEntity
100
AcDbLine
10
73.969003
20
249.959077
30
0.0
11
67.268057
21
246.874243
31
0.0
0
LINE
8
Calque 1
62
4
5
1ce
100
AcDbEntity
100
AcDbLine
10
67.268057
20
246.874243
30
0.0
11
60.782037
21
243.316785
31
0.0
0
LINE
8
Calque 1
62
4
5
1cf
100
AcDbEntity
100
AcDbLine
10
60.782037
20
243.316785
30
0.0
11
54.511715
21
239.287024
31
0.0
0
LINE
8
Calque 1
62
4
5
1d0
100
AcDbEntity
100
AcDbLine
10
54.511715
20
239.287024
30
0.0
11
48.457863
21
234.785285
31
0.0
0
LINE
8
Calque 1
62
4
5
1d1
100
AcDbEntity
100
AcDbLine
10
48.457863
20
234.785285
30
0.0
11
44.542299
21
231.372126
31
0.0
0
LINE
8
Calque 1
62
4
5
1d2
100
AcDbEntity
100
AcDbLine
10
44.542299
20
231.372126
30
0.0
11
39.952148
21
226.949444
31
0.0
0
LINE
8
Calque 1
62
4
5
1d3
100
AcDbEntity
100
AcDbLine
10
39.952148
20
226.949444
30
0.0
11
35.529466
21
222.359294
31
0.0
0
LINE
8
Calque 1
62
4
5
1d4
100
AcDbEntity
100
AcDbLine
10
35.529466
20
222.359294
30
0.0
11
32.116308
21
218.443729
31
0.0
0
LINE
8
Calque 1
62
4
5
1d5
100
AcDbEntity
100
AcDbLine
10
32.116308
20
218.443729
30
0.0
11
29.510402
21
215.041041
31
0.0
0
LINE
8
Calque 1
62
4
5
1d6
100
AcDbEntity
100
AcDbLine
10
29.510402
20
215.041041
30
0.0
11
27.051196
21
211.558812
31
0.0
0
LINE
8
Calque 1
62
4
5
1d7
100
AcDbEntity
100
AcDbLine
10
27.051196
20
211.558812
30
0.0
11
24.740086
21
208.000750
31
0.0
0
LINE
8
Calque 1
62
4
5
1d8
100
AcDbEntity
100
AcDbLine
10
24.740086
20
208.000750
30
0.0
11
22.578469
21
204.370563
31
0.0
0
LINE
8
Calque 1
62
4
5
1d9
100
AcDbEntity
100
AcDbLine
10
22.578469
20
204.370563
30
0.0
11
20.567739
21
200.671961
31
0.0
0
LINE
8
Calque 1
62
4
5
1da
100
AcDbEntity
100
AcDbLine
10
20.567739
20
200.671961
30
0.0
11
18.709295
21
196.908652
31
0.0
0
LINE
8
Calque 1
62
4
5
1db
100
AcDbEntity
100
AcDbLine
10
18.709295
20
196.908652
30
0.0
11
17.004531
21
193.084345
31
0.0
0
LINE
8
Calque 1
62
4
5
1dc
100
AcDbEntity
100
AcDbLine
10
17.004531
20
193.084345
30
0.0
11
15.454844
21
189.202747
31
0.0
0
LINE
8
Calque 1
62
4
5
1dd
100
AcDbEntity
100
AcDbLine
10
15.454844
20
189.202747
30
0.0
11
14.061630
21
185.267568
31
0.0
0
LINE
8
Calque 1
62
4
5
1de
100
AcDbEntity
100
AcDbLine
10
14.061630
20
185.267568
30
0.0
11
12.826285
21
181.282516
31
0.0
0
LINE
8
Calque 1
62
4
5
1df
100
AcDbEntity
100
AcDbLine
10
12.826285
20
181.282516
30
0.0
11
11.750207
21
177.251299
31
0.0
0
LINE
8
Calque 1
62
4
5
1e0
100
AcDbEntity
100
AcDbLine
10
11.750207
20
177.251299
30
0.0
11
10.834790
21
173.177626
31
0.0
0
LINE
8
Calque 1
62
4
5
1e1
100
AcDbEntity
100
AcDbLine
10
10.834790
20
173.177626
30
0.0
11
10.081431
21
169.065206
31
0.0
0
LINE
8
Calque 1
62
4
5
1e2
100
AcDbEntity
100
AcDbLine
10
10.081431
20
169.065206
30
0.0
11
9.491526
21
164.917746
31
0.0
0
LINE
8
Calque 1
62
4
5
1e3
100
AcDbEntity
100
AcDbLine
10
9.491526
20
164.917746
30
0.0
11
9.066471
21
160.738956
31
0.0
0
LINE
8
Calque 1
62
4
5
1e4
100
AcDbEntity
100
AcDbLine
10
9.066471
20
160.738956
30
0.0
11
8.807663
21
156.532545
31
0.0
0
LINE
8
Calque 1
62
4
5
1e5
100
AcDbEntity
100
AcDbLine
10
8.807663
20
156.532545
30
0.0
11
8.705717
21
151.547981
31
0.0
0
LINE
8
Calque 1
62
4
5
1e6
100
AcDbEntity
100
AcDbLine
10
8.705717
20
151.547981
30
0.0
11
8.815965
21
146.620739
31
0.0
0
LINE
8
Calque 1
62
4
5
1e7
100
AcDbEntity
100
AcDbLine
10
8.815965
20
146.620739
30
0.0
11
9.137977
21
141.752131
31
0.0
0
LINE
8
Calque 1
62
4
5
1e8
100
AcDbEntity
100
AcDbLine
10
9.137977
20
141.752131
30
0.0
11
9.671325
21
136.943471
31
0.0
0
LINE
8
Calque 1
62
4
5
1e9
100
AcDbEntity
100
AcDbLine
10
9.671325
20
136.943471
30
0.0
11
10.415580
21
132.196070
31
0.0
0
LINE
8
Calque 1
62
4
5
1ea
100
AcDbEntity
100
AcDbLine
10
10.415580
20
132.196070
30
0.0
11
11.370311
21
127.511242
31
0.0
0
LINE
8
Calque 1
62
4
5
1eb
100
AcDbEntity
100
AcDbLine
10
11.370311
20
127.511242
30
0.0
11
12.535090
21
122.890298
31
0.0
0
LINE
8
Calque 1
62
4
5
1ec
100
AcDbEntity
100
AcDbLine
10
12.535090
20
122.890298
30
0.0
11
13.909488
21
118.334553
31
0.0
0
LINE
8
Calque 1
62
4
5
1ed
100
AcDbEntity
100
AcDbLine
10
13.909488
20
118.334553
30
0.0
11
15.493075
21
113.845318
31
0.0
0
LINE
8
Calque 1
62
4
5
1ee
100
AcDbEntity
100
AcDbLine
10
15.493075
20
113.845318
30
0.0
11
17.285422
21
109.423905
31
0.0
0
LINE
8
Calque 1
62
4
5
1ef
100
AcDbEntity
100
AcDbLine
10
17.285422
20
109.423905
30
0.0
11
19.286100
21
105.071628
31
0.0
0
LINE
8
Calque 1
62
4
5
1f0
100
AcDbEntity
100
AcDbLine
10
19.286100
20
105.071628
30
0.0
11
21.494679
21
100.789800
31
0.0
0
LINE
8
Calque 1
62
4
5
1f1
100
AcDbEntity
100
AcDbLine
10
21.494679
20
100.789800
30
0.0
11
23.910730
21
96.579732
31
0.0
0
LINE
8
Calque 1
62
4
5
1f2
100
AcDbEntity
100
AcDbLine
10
23.910730
20
96.579732
30
0.0
11
26.533824
21
92.442738
31
0.0
0
LINE
8
Calque 1
62
4
5
1f3
100
AcDbEntity
100
AcDbLine
10
26.533824
20
92.442738
30
0.0
11
29.363532
21
88.380130
31
0.0
0
LINE
8
Calque 1
62
4
5
1f4
100
AcDbEntity
100
AcDbLine
10
29.363532
20
88.380130
30
0.0
11
32.399424
21
84.393220
31
0.0
0
LINE
8
Calque 1
62
4
5
1f5
100
AcDbEntity
100
AcDbLine
10
32.399424
20
84.393220
30
0.0
11
35.675031
21
80.653506
31
0.0
0
LINE
8
Calque 1
62
4
5
1f6
100
AcDbEntity
100
AcDbLine
10
35.675031
20
80.653506
30
0.0
11
40.042535
21
76.145016
31
0.0
0
LINE
8
Calque 1
62
4
5
1f7
100
AcDbEntity
100
AcDbLine
10
40.042535
20
76.145016
30
0.0
11
44.603094
21
71.762830
31
0.0
0
LINE
8
Calque 1
62
4
5
1f8
100
AcDbEntity
100
AcDbLine
10
44.603094
20
71.762830
30
0.0
11
48.457863
21
68.402026
31
0.0
0
LINE
8
Calque 1
62
4
5
1f9
100
AcDbEntity
100
AcDbLine
10
48.457863
20
68.402026
30
0.0
11
51.835703
21
65.814708
31
0.0
0
LINE
8
Calque 1
62
4
5
1fa
100
AcDbEntity
100
AcDbLine
10
51.835703
20
65.814708
30
0.0
11
55.293207
21
63.371616
31
0.0
0
LINE
8
Calque 1
62
4
5
1fb
100
AcDbEntity
100
AcDbLine
10
55.293207
20
63.371616
30
0.0
11
58.826828
21
61.074094
31
0.0
0
LINE
8
Calque 1
62
4
5
1fc
100
AcDbEntity
100
AcDbLine
10
58.826828
20
61.074094
30
0.0
11
62.433021
21
58.923485
31
0.0
0
LINE
8
Calque 1
62
4
5
1fd
100
AcDbEntity
100
AcDbLine
10
62.433021
20
58.923485
30
0.0
11
66.108240
21
56.921131
31
0.0
0
LINE
8
Calque 1
62
4
5
1fe
100
AcDbEntity
100
AcDbLine
10
66.108240
20
56.921131
30
0.0
11
69.848938
21
55.068376
31
0.0
0
LINE
8
Calque 1
62
4
5
1ff
100
AcDbEntity
100
AcDbLine
10
69.848938
20
55.068376
30
0.0
11
73.651570
21
53.366563
31
0.0
0
LINE
8
Calque 1
62
4
5
200
100
AcDbEntity
100
AcDbLine
10
73.651570
20
53.366563
30
0.0
11
77.512590
21
51.817034
31
0.0
0
LINE
8
Calque 1
62
4
5
201
100
AcDbEntity
100
AcDbLine
10
77.512590
20
51.817034
30
0.0
11
81.428452
21
50.421133
31
0.0
0
LINE
8
Calque 1
62
4
5
202
100
AcDbEntity
100
AcDbLine
10
81.428452
20
50.421133
30
0.0
11
85.395611
21
49.180202
31
0.0
0
LINE
8
Calque 1
62
4
5
203
100
AcDbEntity
100
AcDbLine
10
85.395611
20
49.180202
30
0.0
11
89.410519
21
48.095586
31
0.0
0
LINE
8
Calque 1
62
4
5
204
100
AcDbEntity
100
AcDbLine
10
89.410519
20
48.095586
30
0.0
11
93.469632
21
47.168625
31
0.0
0
LINE
8
Calque 1
62
4
5
205
100
AcDbEntity
100
AcDbLine
10
93.469632
20
47.168625
30
0.0
11
97.569403
21
46.400665
31
0.0
0
LINE
8
Calque 1
62
4
5
206
100
AcDbEntity
100
AcDbLine
10
97.569403
20
46.400665
30
0.0
11
101.706287
21
45.793047
31
0.0
0
LINE
8
Calque 1
62
4
5
207
100
AcDbEntity
100
AcDbLine
10
101.706287
20
45.793047
30
0.0
11
105.876737
21
45.347114
31
0.0
0
LINE
8
Calque 1
62
4
5
208
100
AcDbEntity
100
AcDbLine
10
105.876737
20
45.347114
30
0.0
11
110.077208
21
45.064210
31
0.0
0
LINE
8
Calque 1
62
4
5
209
100
AcDbEntity
100
AcDbLine
10
110.077208
20
45.064210
30
0.0
11
115.439823
21
44.935596
31
0.0
0
LINE
8
Calque 1
62
4
5
20a
100
AcDbEntity
100
AcDbLine
10
115.439823
20
44.935596
30
0.0
11
122.504604
21
45.209058
31
0.0
0
LINE
8
Calque 1
62
4
5
20b
100
AcDbEntity
100
AcDbLine
10
122.504604
20
45.209058
30
0.0
11
122.504604
21
45.209058
31
0.0
0
LINE
8
Calque 1
62
4
5
20c
100
AcDbEntity
100
AcDbLine
10
181.981272
20
90.372620
30
0.0
11
163.417541
21
105.460209
31
0.0
0
LINE
8
Calque 1
62
4
5
20d
100
AcDbEntity
100
AcDbLine
10
163.417541
20
105.460209
30
0.0
11
145.498095
21
120.125878
31
0.0
0
LINE
8
Calque 1
62
4
5
20e
100
AcDbEntity
100
AcDbLine
10
145.498095
20
120.125878
30
0.0
11
145.364604
21
113.324641
31
0.0
0
LINE
8
Calque 1
62
4
5
20f
100
AcDbEntity
100
AcDbLine
10
145.364604
20
113.324641
30
0.0
11
145.319603
21
108.849805
31
0.0
0
LINE
8
Calque 1
62
4
5
210
100
AcDbEntity
100
AcDbLine
10
145.319603
20
108.849805
30
0.0
11
145.094711
21
106.265778
31
0.0
0
LINE
8
Calque 1
62
4
5
211
100
AcDbEntity
100
AcDbLine
10
145.094711
20
106.265778
30
0.0
11
144.872670
21
105.463517
31
0.0
0
LINE
8
Calque 1
62
4
5
212
100
AcDbEntity
100
AcDbLine
10
144.872670
20
105.463517
30
0.0
11
144.555094
21
104.870797
31
0.0
0
LINE
8
Calque 1
62
4
5
213
100
AcDbEntity
100
AcDbLine
10
144.555094
20
104.870797
30
0.0
11
143.565920
21
103.963099
31
0.0
0
LINE
8
Calque 1
62
4
5
214
100
AcDbEntity
100
AcDbLine
10
143.565920
20
103.963099
30
0.0
11
142.683492
21
103.333656
31
0.0
0
LINE
8
Calque 1
62
4
5
215
100
AcDbEntity
100
AcDbLine
10
142.683492
20
103.333656
30
0.0
11
99.503492
21
103.261590
31
0.0
0
LINE
8
Calque 1
62
4
5
216
100
AcDbEntity
100
AcDbLine
10
99.503492
20
103.261590
30
0.0
11
62.508966
21
103.272678
31
0.0
0
LINE
8
Calque 1
62
4
5
217
100
AcDbEntity
100
AcDbLine
10
62.508966
20
103.272678
30
0.0
11
56.915148
21
103.412231
31
0.0
0
LINE
8
Calque 1
62
4
5
218
100
AcDbEntity
100
AcDbLine
10
56.915148
20
103.412231
30
0.0
11
55.845274
21
103.529882
31
0.0
0
LINE
8
Calque 1
62
4
5
219
100
AcDbEntity
100
AcDbLine
10
55.845274
20
103.529882
30
0.0
11
55.355775
21
103.684924
31
0.0
0
LINE
8
Calque 1
62
4
5
21a
100
AcDbEntity
100
AcDbLine
10
55.355775
20
103.684924
30
0.0
11
54.500628
21
104.268824
31
0.0
0
LINE
8
Calque 1
62
4
5
21b
100
AcDbEntity
100
AcDbLine
10
54.500628
20
104.268824
30
0.0
11
53.803553
21
104.977002
31
0.0
0
LINE
8
Calque 1
62
4
5
21c
100
AcDbEntity
100
AcDbLine
10
53.803553
20
104.977002
30
0.0
11
53.467439
21
105.797828
31
0.0
0
LINE
8
Calque 1
62
4
5
21d
100
AcDbEntity
100
AcDbLine
10
53.467439
20
105.797828
30
0.0
11
53.285052
21
108.387470
31
0.0
0
LINE
8
Calque 1
62
4
5
21e
100
AcDbEntity
100
AcDbLine
10
53.285052
20
108.387470
30
0.0
11
53.143254
21
126.715502
31
0.0
0
LINE
8
Calque 1
62
4
5
21f
100
AcDbEntity
100
AcDbLine
10
53.143254
20
126.715502
30
0.0
11
53.067458
21
147.657325
31
0.0
0
LINE
8
Calque 1
62
4
5
220
100
AcDbEntity
100
AcDbLine
10
53.067458
20
147.657325
30
0.0
11
50.950783
21
148.314372
31
0.0
0
LINE
8
Calque 1
62
4
5
221
100
AcDbEntity
100
AcDbLine
10
50.950783
20
148.314372
30
0.0
11
47.080041
21
149.804271
31
0.0
0
LINE
8
Calque 1
62
4
5
222
100
AcDbEntity
100
AcDbLine
10
47.080041
20
149.804271
30
0.0
11
43.463823
21
151.772655
31
0.0
0
LINE
8
Calque 1
62
4
5
223
100
AcDbEntity
100
AcDbLine
10
43.463823
20
151.772655
30
0.0
11
40.140502
21
154.178775
31
0.0
0
LINE
8
Calque 1
62
4
5
224
100
AcDbEntity
100
AcDbLine
10
40.140502
20
154.178775
30
0.0
11
37.148447
21
156.981883
31
0.0
0
LINE
8
Calque 1
62
4
5
225
100
AcDbEntity
100
AcDbLine
10
37.148447
20
156.981883
30
0.0
11
34.526029
21
160.141229
31
0.0
0
LINE
8
Calque 1
62
4
5
226
100
AcDbEntity
100
AcDbLine
10
34.526029
20
160.141229
30
0.0
11
32.311619
21
163.616066
31
0.0
0
LINE
8
Calque 1
62
4
5
227
100
AcDbEntity
100
AcDbLine
10
32.311619
20
163.616066
30
0.0
11
30.543588
21
167.365643
31
0.0
0
LINE
8
Calque 1
62
4
5
228
100
AcDbEntity
100
AcDbLine
10
30.543588
20
167.365643
30
0.0
11
29.260306
21
171.349211
31
0.0
0
LINE
8
Calque 1
62
4
5
229
100
AcDbEntity
100
AcDbLine
10
29.260306
20
171.349211
30
0.0
11
28.787952
21
173.672910
31
0.0
0
LINE
8
Calque 1
62
4
5
22a
100
AcDbEntity
100
AcDbLine
10
28.787952
20
173.672910
30
0.0
11
28.504332
21
176.106459
31
0.0
0
LINE
8
Calque 1
62
4
5
22b
100
AcDbEntity
100
AcDbLine
10
28.504332
20
176.106459
30
0.0
11
28.406844
21
178.612402
31
0.0
0
LINE
8
Calque 1
62
4
5
22c
100
AcDbEntity
100
AcDbLine
10
28.406844
20
178.612402
30
0.0
11
28.492884
21
181.153285
31
0.0
0
LINE
8
Calque 1
62
4
5
22d
100
AcDbEntity
100
AcDbLine
10
28.492884
20
181.153285
30
0.0
11
28.759849
21
183.691654
31
0.0
0
LINE
8
Calque 1
62
4
5
22e
100
AcDbEntity
100
AcDbLine
10
28.759849
20
183.691654
30
0.0
11
29.205137
21
186.190053
31
0.0
0
LINE
8
Calque 1
62
4
5
22f
100
AcDbEntity
100
AcDbLine
10
29.205137
20
186.190053
30
0.0
11
29.826144
21
188.611029
31
0.0
0
LINE
8
Calque 1
62
4
5
230
100
AcDbEntity
100
AcDbLine
10
29.826144
20
188.611029
30
0.0
11
30.620267
21
190.917126
31
0.0
0
LINE
8
Calque 1
62
4
5
231
100
AcDbEntity
100
AcDbLine
10
30.620267
20
190.917126
30
0.0
11
32.062655
21
194.084618
31
0.0
0
LINE
8
Calque 1
62
4
5
232
100
AcDbEntity
100
AcDbLine
10
32.062655
20
194.084618
30
0.0
11
33.817759
21
197.076595
31
0.0
0
LINE
8
Calque 1
62
4
5
233
100
AcDbEntity
100
AcDbLine
10
33.817759
20
197.076595
30
0.0
11
35.859432
21
199.866740
31
0.0
0
LINE
8
Calque 1
62
4
5
234
100
AcDbEntity
100
AcDbLine
10
35.859432
20
199.866740
30
0.0
11
38.161526
21
202.428738
31
0.0
0
LINE
8
Calque 1
62
4
5
235
100
AcDbEntity
100
AcDbLine
10
38.161526
20
202.428738
30
0.0
11
40.697894
21
204.736275
31
0.0
0
LINE
8
Calque 1
62
4
5
236
100
AcDbEntity
100
AcDbLine
10
40.697894
20
204.736275
30
0.0
11
43.442390
21
206.763035
31
0.0
0
LINE
8
Calque 1
62
4
5
237
100
AcDbEntity
100
AcDbLine
10
43.442390
20
206.763035
30
0.0
11
46.368865
21
208.482703
31
0.0
0
LINE
8
Calque 1
62
4
5
238
100
AcDbEntity
100
AcDbLine
10
46.368865
20
208.482703
30
0.0
11
49.451173
21
209.868963
31
0.0
0
LINE
8
Calque 1
62
4
5
239
100
AcDbEntity
100
AcDbLine
10
49.451173
20
209.868963
30
0.0
11
52.230769
21
210.780652
31
0.0
0
LINE
8
Calque 1
62
4
5
23a
100
AcDbEntity
100
AcDbLine
10
52.230769
20
210.780652
30
0.0
11
55.118610
21
211.430544
31
0.0
0
LINE
8
Calque 1
62
4
5
23b
100
AcDbEntity
100
AcDbLine
10
55.118610
20
211.430544
30
0.0
11
58.079534
21
211.818691
31
0.0
0
LINE
8
Calque 1
62
4
5
23c
100
AcDbEntity
100
AcDbLine
10
58.079534
20
211.818691
30
0.0
11
61.078382
21
211.945143
31
0.0
0
LINE
8
Calque 1
62
4
5
23d
100
AcDbEntity
100
AcDbLine
10
61.078382
20
211.945143
30
0.0
11
64.079994
21
211.809952
31
0.0
0
LINE
8
Calque 1
62
4
5
23e
100
AcDbEntity
100
AcDbLine
10
64.079994
20
211.809952
30
0.0
11
67.049210
21
211.413169
31
0.0
0
LINE
8
Calque 1
62
4
5
23f
100
AcDbEntity
100
AcDbLine
10
67.049210
20
211.413169
30
0.0
11
69.950870
21
210.754845
31
0.0
0
LINE
8
Calque 1
62
4
5
240
100
AcDbEntity
100
AcDbLine
10
69.950870
20
210.754845
30
0.0
11
72.749814
21
209.835032
31
0.0
0
LINE
8
Calque 1
62
4
5
241
100
AcDbEntity
100
AcDbLine
10
72.749814
20
209.835032
30
0.0
11
76.263349
21
208.230485
31
0.0
0
LINE
8
Calque 1
62
4
5
242
100
AcDbEntity
100
AcDbLine
10
76.263349
20
208.230485
30
0.0
11
79.539556
21
206.221364
31
0.0
0
LINE
8
Calque 1
62
4
5
243
100
AcDbEntity
100
AcDbLine
10
79.539556
20
206.221364
30
0.0
11
82.547956
21
203.841985
31
0.0
0
LINE
8
Calque 1
62
4
5
244
100
AcDbEntity
100
AcDbLine
10
82.547956
20
203.841985
30
0.0
11
85.258069
21
201.126662
31
0.0
0
LINE
8
Calque 1
62
4
5
245
100
AcDbEntity
100
AcDbLine
10
85.258069
20
201.126662
30
0.0
11
87.639416
21
198.109711
31
0.0
0
LINE
8
Calque 1
62
4
5
246
100
AcDbEntity
100
AcDbLine
10
87.639416
20
198.109711
30
0.0
11
89.661518
21
194.825447
31
0.0
0
LINE
8
Calque 1
62
4
5
247
100
AcDbEntity
100
AcDbLine
10
89.661518
20
194.825447
30
0.0
11
91.293895
21
191.308186
31
0.0
0
LINE
8
Calque 1
62
4
5
248
100
AcDbEntity
100
AcDbLine
10
91.293895
20
191.308186
30
0.0
11
92.506069
21
187.592243
31
0.0
0
LINE
8
Calque 1
62
4
5
249
100
AcDbEntity
100
AcDbLine
10
92.506069
20
187.592243
30
0.0
11
93.088345
21
184.592831
31
0.0
0
LINE
8
Calque 1
62
4
5
24a
100
AcDbEntity
100
AcDbLine
10
93.088345
20
184.592831
30
0.0
11
93.355691
21
180.803656
31
0.0
0
LINE
8
Calque 1
62
4
5
24b
100
AcDbEntity
100
AcDbLine
10
93.355691
20
180.803656
30
0.0
11
93.372440
21
177.710714
31
0.0
0
LINE
8
Calque 1
62
4
5
24c
100
AcDbEntity
100
AcDbLine
10
93.372440
20
177.710714
30
0.0
11
93.152466
21
174.990005
31
0.0
0
LINE
8
Calque 1
62
4
5
24d
100
AcDbEntity
100
AcDbLine
10
93.152466
20
174.990005
30
0.0
11
92.653850
21
172.327512
31
0.0
0
LINE
8
Calque 1
62
4
5
24e
100
AcDbEntity
100
AcDbLine
10
92.653850
20
172.327512
30
0.0
11
91.834676
21
169.409216
31
0.0
0
LINE
8
Calque 1
62
4
5
24f
100
AcDbEntity
100
AcDbLine
10
91.834676
20
169.409216
30
0.0
11
90.823884
21
166.711037
31
0.0
0
LINE
8
Calque 1
62
4
5
250
100
AcDbEntity
100
AcDbLine
10
90.823884
20
166.711037
30
0.0
11
89.523661
21
164.080576
31
0.0
0
LINE
8
Calque 1
62
4
5
251
100
AcDbEntity
100
AcDbLine
10
89.523661
20
164.080576
30
0.0
11
87.956890
21
161.545663
31
0.0
0
LINE
8
Calque 1
62
4
5
252
100
AcDbEntity
100
AcDbLine
10
87.956890
20
161.545663
30
0.0
11
86.146454
21
159.134124
31
0.0
0
LINE
8
Calque 1
62
4
5
253
100
AcDbEntity
100
AcDbLine
10
86.146454
20
159.134124
30
0.0
11
84.115236
21
156.873788
31
0.0
0
LINE
8
Calque 1
62
4
5
254
100
AcDbEntity
100
AcDbLine
10
84.115236
20
156.873788
30
0.0
11
81.886119
21
154.792482
31
0.0
0
LINE
8
Calque 1
62
4
5
255
100
AcDbEntity
100
AcDbLine
10
81.886119
20
154.792482
30
0.0
11
79.481984
21
152.918034
31
0.0
0
LINE
8
Calque 1
62
4
5
256
100
AcDbEntity
100
AcDbLine
10
79.481984
20
152.918034
30
0.0
11
76.925715
21
151.278272
31
0.0
0
LINE
8
Calque 1
62
4
5
257
100
AcDbEntity
100
AcDbLine
10
76.925715
20
151.278272
30
0.0
11
75.514604
21
150.464767
31
0.0
0
LINE
8
Calque 1
62
4
5
258
100
AcDbEntity
100
AcDbLine
10
75.514604
20
150.464767
30
0.0
11
87.297381
21
150.391115
31
0.0
0
LINE
8
Calque 1
62
4
5
259
100
AcDbEntity
100
AcDbLine
10
87.297381
20
150.391115
30
0.0
11
110.828740
21
150.391115
31
0.0
0
LINE
8
Calque 1
62
4
5
25a
100
AcDbEntity
100
AcDbLine
10
110.828740
20
150.391115
30
0.0
11
122.577321
21
150.464767
31
0.0
0
LINE
8
Calque 1
62
4
5
25b
100
AcDbEntity
100
AcDbLine
10
122.577321
20
150.464767
30
0.0
11
120.212629
21
151.992156
31
0.0
0
LINE
8
Calque 1
62
4
5
25c
100
AcDbEntity
100
AcDbLine
10
120.212629
20
151.992156
30
0.0
11
117.788668
21
153.830982
31
0.0
0
LINE
8
Calque 1
62
4
5
25d
100
AcDbEntity
100
AcDbLine
10
117.788668
20
153.830982
30
0.0
11
115.133073
21
156.265950
31
0.0
0
LINE
8
Calque 1
62
4
5
25e
100
AcDbEntity
100
AcDbLine
10
115.133073
20
156.265950
30
0.0
11
112.685713
21
158.863285
31
0.0
0
LINE
8
Calque 1
62
4
5
25f
100
AcDbEntity
100
AcDbLine
10
112.685713
20
158.863285
30
0.0
11
110.886452
21
161.189211
31
0.0
0
LINE
8
Calque 1
62
4
5
260
100
AcDbEntity
100
AcDbLine
10
110.886452
20
161.189211
30
0.0
11
109.641787
21
163.255843
31
0.0
0
LINE
8
Calque 1
62
4
5
261
100
AcDbEntity
100
AcDbLine
10
109.641787
20
163.255843
30
0.0
11
108.562648
21
165.367894
31
0.0
0
LINE
8
Calque 1
62
4
5
262
100
AcDbEntity
100
AcDbLine
10
108.562648
20
165.367894
30
0.0
11
107.649167
21
167.524922
31
0.0
0
LINE
8
Calque 1
62
4
5
263
100
AcDbEntity
100
AcDbLine
10
107.649167
20
167.524922
30
0.0
11
106.901477
21
169.726483
31
0.0
0
LINE
8
Calque 1
62
4
5
264
100
AcDbEntity
100
AcDbLine
10
106.901477
20
169.726483
30
0.0
11
106.319710
21
171.972135
31
0.0
0
LINE
8
Calque 1
62
4
5
265
100
AcDbEntity
100
AcDbLine
10
106.319710
20
171.972135
30
0.0
11
105.903998
21
174.261435
31
0.0
0
LINE
8
Calque 1
62
4
5
266
100
AcDbEntity
100
AcDbLine
10
105.903998
20
174.261435
30
0.0
11
105.654474
21
176.593942
31
0.0
0
LINE
8
Calque 1
62
4
5
267
100
AcDbEntity
100
AcDbLine
10
105.654474
20
176.593942
30
0.0
11
105.571270
21
178.969211
31
0.0
0
LINE
8
Calque 1
62
4
5
268
100
AcDbEntity
100
AcDbLine
10
105.571270
20
178.969211
30
0.0
11
105.712898
21
182.002191
31
0.0
0
LINE
8
Calque 1
62
4
5
269
100
AcDbEntity
100
AcDbLine
10
105.712898
20
182.002191
30
0.0
11
106.129500
21
184.970554
31
0.0
0
LINE
8
Calque 1
62
4
5
26a
100
AcDbEntity
100
AcDbLine
10
106.129500
20
184.970554
30
0.0
11
106.808651
21
187.859936
31
0.0
0
LINE
8
Calque 1
62
4
5
26b
100
AcDbEntity
100
AcDbLine
10
106.808651
20
187.859936
30
0.0
11
107.737930
21
190.655973
31
0.0
0
LINE
8
Calque 1
62
4
5
26c
100
AcDbEntity
100
AcDbLine
10
107.737930
20
190.655973
30
0.0
11
108.904912
21
193.344298
31
0.0
0
LINE
8
Calque 1
62
4
5
26d
100
AcDbEntity
100
AcDbLine
10
108.904912
20
193.344298
30
0.0
11
110.297174
21
195.910548
31
0.0
0
LINE
8
Calque 1
62
4
5
26e
100
AcDbEntity
100
AcDbLine
10
110.297174
20
195.910548
30
0.0
11
111.902292
21
198.340356
31
0.0
0
LINE
8
Calque 1
62
4
5
26f
100
AcDbEntity
100
AcDbLine
10
111.902292
20
198.340356
30
0.0
11
113.707845
21
200.619360
31
0.0
0
LINE
8
Calque 1
62
4
5
270
100
AcDbEntity
100
AcDbLine
10
113.707845
20
200.619360
30
0.0
11
115.701407
21
202.733193
31
0.0
0
LINE
8
Calque 1
62
4
5
271
100
AcDbEntity
100
AcDbLine
10
115.701407
20
202.733193
30
0.0
11
117.870556
21
204.667491
31
0.0
0
LINE
8
Calque 1
62
4
5
272
100
AcDbEntity
100
AcDbLine
10
117.870556
20
204.667491
30
0.0
11
120.202868
21
206.407888
31
0.0
0
LINE
8
Calque 1
62
4
5
273
100
AcDbEntity
100
AcDbLine
10
120.202868
20
206.407888
30
0.0
11
122.685920
21
207.940021
31
0.0
0
LINE
8
Calque 1
62
4
5
274
100
AcDbEntity
100
AcDbLine
10
122.685920
20
207.940021
30
0.0
11
125.307289
21
209.249524
31
0.0
0
LINE
8
Calque 1
62
4
5
275
100
AcDbEntity
100
AcDbLine
10
125.307289
20
209.249524
30
0.0
11
128.054551
21
210.322032
31
0.0
0
LINE
8
Calque 1
62
4
5
276
100
AcDbEntity
100
AcDbLine
10
128.054551
20
210.322032
30
0.0
11
130.915283
21
211.143180
31
0.0
0
LINE
8
Calque 1
62
4
5
277
100
AcDbEntity
100
AcDbLine
10
130.915283
20
211.143180
30
0.0
11
133.877061
21
211.698604
31
0.0
0
LINE
8
Calque 1
62
4
5
278
100
AcDbEntity
100
AcDbLine
10
133.877061
20
211.698604
30
0.0
11
136.165234
21
211.860857
31
0.0
0
LINE
8
Calque 1
62
4
5
279
100
AcDbEntity
100
AcDbLine
10
136.165234
20
211.860857
30
0.0
11
139.035129
21
211.856311
31
0.0
0
LINE
8
Calque 1
62
4
5
27a
100
AcDbEntity
100
AcDbLine
10
139.035129
20
211.856311
30
0.0
11
141.915646
21
211.700859
31
0.0
0
LINE
8
Calque 1
62
4
5
27b
100
AcDbEntity
100
AcDbLine
10
141.915646
20
211.700859
30
0.0
11
144.235681
21
211.410388
31
0.0
0
LINE
8
Calque 1
62
4
5
27c
100
AcDbEntity
100
AcDbLine
10
144.235681
20
211.410388
30
0.0
11
146.689715
21
210.843500
31
0.0
0
LINE
8
Calque 1
62
4
5
27d
100
AcDbEntity
100
AcDbLine
10
146.689715
20
210.843500
30
0.0
11
149.067645
21
210.097376
31
0.0
0
LINE
8
Calque 1
62
4
5
27e
100
AcDbEntity
100
AcDbLine
10
149.067645
20
210.097376
30
0.0
11
151.362070
21
209.179526
31
0.0
0
LINE
8
Calque 1
62
4
5
27f
100
AcDbEntity
100
AcDbLine
10
151.362070
20
209.179526
30
0.0
11
153.565592
21
208.097458
31
0.0
0
LINE
8
Calque 1
62
4
5
280
100
AcDbEntity
100
AcDbLine
10
153.565592
20
208.097458
30
0.0
11
155.670811
21
206.858682
31
0.0
0
LINE
8
Calque 1
62
4
5
281
100
AcDbEntity
100
AcDbLine
10
155.670811
20
206.858682
30
0.0
11
157.670327
21
205.470706
31
0.0
0
LINE
8
Calque 1
62
4
5
282
100
AcDbEntity
100
AcDbLine
10
157.670327
20
205.470706
30
0.0
11
159.556741
21
203.941040
31
0.0
0
LINE
8
Calque 1
62
4
5
283
100
AcDbEntity
100
AcDbLine
10
159.556741
20
203.941040
30
0.0
11
161.322653
21
202.277193
31
0.0
0
LINE
8
Calque 1
62
4
5
284
100
AcDbEntity
100
AcDbLine
10
161.322653
20
202.277193
30
0.0
11
162.960665
21
200.486674
31
0.0
0
LINE
8
Calque 1
62
4
5
285
100
AcDbEntity
100
AcDbLine
10
162.960665
20
200.486674
30
0.0
11
164.463376
21
198.576992
31
0.0
0
LINE
8
Calque 1
62
4
5
286
100
AcDbEntity
100
AcDbLine
10
164.463376
20
198.576992
30
0.0
11
165.823387
21
196.555656
31
0.0
0
LINE
8
Calque 1
62
4
5
287
100
AcDbEntity
100
AcDbLine
10
165.823387
20
196.555656
30
0.0
11
167.033299
21
194.430175
31
0.0
0
LINE
8
Calque 1
62
4
5
288
100
AcDbEntity
100
AcDbLine
10
167.033299
20
194.430175
30
0.0
11
168.085712
21
192.208059
31
0.0
0
LINE
8
Calque 1
62
4
5
289
100
AcDbEntity
100
AcDbLine
10
168.085712
20
192.208059
30
0.0
11
168.973226
21
189.896817
31
0.0
0
LINE
8
Calque 1
62
4
5
28a
100
AcDbEntity
100
AcDbLine
10
168.973226
20
189.896817
30
0.0
11
169.688443
21
187.503957
31
0.0
0
LINE
8
Calque 1
62
4
5
28b
100
AcDbEntity
100
AcDbLine
10
169.688443
20
187.503957
30
0.0
11
170.223962
21
185.036989
31
0.0
0
LINE
8
Calque 1
62
4
5
28c
100
AcDbEntity
100
AcDbLine
10
170.223962
20
185.036989
30
0.0
11
170.499988
21
182.375597
31
0.0
0
LINE
8
Calque 1
62
4
5
28d
100
AcDbEntity
100
AcDbLine
10
170.499988
20
182.375597
30
0.0
11
170.560814
21
179.143908
31
0.0
0
LINE
8
Calque 1
62
4
5
28e
100
AcDbEntity
100
AcDbLine
10
170.560814
20
179.143908
30
0.0
11
170.414272
21
175.930704
31
0.0
0
LINE
8
Calque 1
62
4
5
28f
100
AcDbEntity
100
AcDbLine
10
170.414272
20
175.930704
30
0.0
11
170.068192
21
173.324767
31
0.0
0
LINE
8
Calque 1
62
4
5
290
100
AcDbEntity
100
AcDbLine
10
170.068192
20
173.324767
30
0.0
11
169.501926
21
170.997857
31
0.0
0
LINE
8
Calque 1
62
4
5
291
100
AcDbEntity
100
AcDbLine
10
169.501926
20
170.997857
30
0.0
11
168.802404
21
168.769454
31
0.0
0
LINE
8
Calque 1
62
4
5
292
100
AcDbEntity
100
AcDbLine
10
168.802404
20
168.769454
30
0.0
11
167.967357
21
166.635202
31
0.0
0
LINE
8
Calque 1
62
4
5
293
100
AcDbEntity
100
AcDbLine
10
167.967357
20
166.635202
30
0.0
11
166.994515
21
164.590745
31
0.0
0
LINE
8
Calque 1
62
4
5
294
100
AcDbEntity
100
AcDbLine
10
166.994515
20
164.590745
30
0.0
11
165.881609
21
162.631728
31
0.0
0
LINE
8
Calque 1
62
4
5
295
100
AcDbEntity
100
AcDbLine
10
165.881609
20
162.631728
30
0.0
11
164.626371
21
160.753796
31
0.0
0
LINE
8
Calque 1
62
4
5
296
100
AcDbEntity
100
AcDbLine
10
164.626371
20
160.753796
30
0.0
11
163.226531
21
158.952593
31
0.0
0
LINE
8
Calque 1
62
4
5
297
100
AcDbEntity
100
AcDbLine
10
163.226531
20
158.952593
30
0.0
11
161.679819
21
157.223763
31
0.0
0
LINE
8
Calque 1
62
4
5
298
100
AcDbEntity
100
AcDbLine
10
161.679819
20
157.223763
30
0.0
11
158.618976
21
154.405460
31
0.0
0
LINE
8
Calque 1
62
4
5
299
100
AcDbEntity
100
AcDbLine
10
158.618976
20
154.405460
30
0.0
11
155.223430
21
151.978687
31
0.0
0
LINE
8
Calque 1
62
4
5
29a
100
AcDbEntity
100
AcDbLine
10
155.223430
20
151.978687
30
0.0
11
151.565345
21
149.988631
31
0.0
0
LINE
8
Calque 1
62
4
5
29b
100
AcDbEntity
100
AcDbLine
10
151.565345
20
149.988631
30
0.0
11
147.716883
21
148.480479
31
0.0
0
LINE
8
Calque 1
62
4
5
29c
100
AcDbEntity
100
AcDbLine
10
147.716883
20
148.480479
30
0.0
11
145.223492
21
147.663248
31
0.0
0
LINE
8
Calque 1
62
4
5
29d
100
AcDbEntity
100
AcDbLine
10
145.223492
20
147.663248
30
0.0
11
145.364604
21
141.801702
31
0.0
0
LINE
8
Calque 1
62
4
5
29e
100
AcDbEntity
100
AcDbLine
10
145.364604
20
141.801702
30
0.0
11
145.505715
21
135.960859
31
0.0
0
LINE
8
Calque 1
62
4
5
29f
100
AcDbEntity
100
AcDbLine
10
145.505715
20
135.960859
30
0.0
11
163.709048
21
151.776903
31
0.0
0
LINE
8
Calque 1
62
4
5
2a0
100
AcDbEntity
100
AcDbLine
10
163.709048
20
151.776903
30
0.0
11
176.831924
21
163.063445
31
0.0
0
LINE
8
Calque 1
62
4
5
2a1
100
AcDbEntity
100
AcDbLine
10
176.831924
20
163.063445
30
0.0
11
182.820539
21
167.989412
31
0.0
0
LINE
8
Calque 1
62
4
5
2a2
100
AcDbEntity
100
AcDbLine
10
182.820539
20
167.989412
30
0.0
11
184.171178
21
168.323828
31
0.0
0
LINE
8
Calque 1
62
4
5
2a3
100
AcDbEntity
100
AcDbLine
10
184.171178
20
168.323828
30
0.0
11
185.476761
21
168.170502
31
0.0
0
LINE
8
Calque 1
62
4
5
2a4
100
AcDbEntity
100
AcDbLine
10
185.476761
20
168.170502
30
0.0
11
186.652110
21
167.555802
31
0.0
0
LINE
8
Calque 1
62
4
5
2a5
100
AcDbEntity
100
AcDbLine
10
186.652110
20
167.555802
30
0.0
11
187.612048
21
166.506097
31
0.0
0
LINE
8
Calque 1
62
4
5
2a6
100
AcDbEntity
100
AcDbLine
10
187.612048
20
166.506097
30
0.0
11
187.891976
21
165.624862
31
0.0
0
LINE
8
Calque 1
62
4
5
2a7
100
AcDbEntity
100
AcDbLine
10
187.891976
20
165.624862
30
0.0
11
188.031110
21
163.042122
31
0.0
0
LINE
8
Calque 1
62
4
5
2a8
100
AcDbEntity
100
AcDbLine
10
188.031110
20
163.042122
30
0.0
11
188.012059
21
146.525399
31
0.0
0
LINE
8
Calque 1
62
4
5
2a9
100
AcDbEntity
100
AcDbLine
10
188.012059
20
146.525399
30
0.0
11
187.729836
21
109.965878
31
0.0
0
LINE
8
Calque 1
62
4
5
2aa
100
AcDbEntity
100
AcDbLine
10
187.729836
20
109.965878
30
0.0
11
187.499452
21
94.670200
31
0.0
0
LINE
8
Calque 1
62
4
5
2ab
100
AcDbEntity
100
AcDbLine
10
187.499452
20
94.670200
30
0.0
11
187.293870
21
92.460166
31
0.0
0
LINE
8
Calque 1
62
4
5
2ac
100
AcDbEntity
100
AcDbLine
10
187.293870
20
92.460166
30
0.0
11
186.928757
21
91.599338
31
0.0
0
LINE
8
Calque 1
62
4
5
2ad
100
AcDbEntity
100
AcDbLine
10
186.928757
20
91.599338
30
0.0
11
186.271990
21
90.788975
31
0.0
0
LINE
8
Calque 1
62
4
5
2ae
100
AcDbEntity
100
AcDbLine
10
186.271990
20
90.788975
30
0.0
11
185.574923
21
90.258783
31
0.0
0
LINE
8
Calque 1
62
4
5
2af
100
AcDbEntity
100
AcDbLine
10
185.574923
20
90.258783
30
0.0
11
184.729278
21
90.014869
31
0.0
0
LINE
8
Calque 1
62
4
5
2b0
100
AcDbEntity
100
AcDbLine
10
184.729278
20
90.014869
30
0.0
11
183.761071
21
89.955305
31
0.0
0
LINE
8
Calque 1
62
4
5
2b1
100
AcDbEntity
100
AcDbLine
10
183.761071
20
89.955305
30
0.0
11
182.801377
21
90.075939
31
0.0
0
LINE
8
Calque 1
62
4
5
2b2
100
AcDbEntity
100
AcDbLine
10
182.801377
20
90.075939
30
0.0
11
181.981272
21
90.372620
31
0.0
0
LINE
8
Calque 1
62
4
5
2b3
100
AcDbEntity
100
AcDbLine
10
181.981272
20
90.372620
30
0.0
11
181.981272
21
90.372620
31
0.0
0
LINE
8
Calque 1
62
4
5
2b4
100
AcDbEntity
100
AcDbLine
10
180.413553
20
140.093207
30
0.0
11
180.339097
21
155.968207
31
0.0
0
LINE
8
Calque 1
62
4
5
2b5
100
AcDbEntity
100
AcDbLine
10
180.339097
20
155.968207
30
0.0
11
164.165939
21
142.090390
31
0.0
0
LINE
8
Calque 1
62
4
5
2b6
100
AcDbEntity
100
AcDbLine
10
164.165939
20
142.090390
30
0.0
11
148.186826
21
128.044300
31
0.0
0
LINE
8
Calque 1
62
4
5
2b7
100
AcDbEntity
100
AcDbLine
10
148.186826
20
128.044300
30
0.0
11
164.061826
21
114.770291
31
0.0
0
LINE
8
Calque 1
62
4
5
2b8
100
AcDbEntity
100
AcDbLine
10
164.061826
20
114.770291
30
0.0
11
179.936826
21
101.698991
31
0.0
0
LINE
8
Calque 1
62
4
5
2b9
100
AcDbEntity
100
AcDbLine
10
179.936826
20
101.698991
30
0.0
11
180.131331
21
112.958545
31
0.0
0
LINE
8
Calque 1
62
4
5
2ba
100
AcDbEntity
100
AcDbLine
10
180.131331
20
112.958545
30
0.0
11
180.413553
21
140.093207
31
0.0
0
LINE
8
Calque 1
62
4
5
2bb
100
AcDbEntity
100
AcDbLine
10
180.413553
20
140.093207
30
0.0
11
180.413553
21
140.093207
31
0.0
0
LINE
8
Calque 1
62
4
5
2bc
100
AcDbEntity
100
AcDbLine
10
137.676399
20
126.828656
30
0.0
11
137.749303
21
142.703656
31
0.0
0
LINE
8
Calque 1
62
4
5
2bd
100
AcDbEntity
100
AcDbLine
10
137.749303
20
142.703656
30
0.0
11
99.223621
21
142.703656
31
0.0
0
LINE
8
Calque 1
62
4
5
2be
100
AcDbEntity
100
AcDbLine
10
99.223621
20
142.703656
30
0.0
11
60.697937
21
142.703656
31
0.0
0
LINE
8
Calque 1
62
4
5
2bf
100
AcDbEntity
100
AcDbLine
10
60.697937
20
142.703656
30
0.0
11
60.697937
21
126.757093
31
0.0
0
LINE
8
Calque 1
62
4
5
2c0
100
AcDbEntity
100
AcDbLine
10
60.697937
20
126.757093
30
0.0
11
60.697937
21
110.810530
31
0.0
0
LINE
8
Calque 1
62
4
5
2c1
100
AcDbEntity
100
AcDbLine
10
60.697937
20
110.810530
30
0.0
11
99.150715
21
110.882093
31
0.0
0
LINE
8
Calque 1
62
4
5
2c2
100
AcDbEntity
100
AcDbLine
10
99.150715
20
110.882093
30
0.0
11
137.603492
21
110.953656
31
0.0
0
LINE
8
Calque 1
62
4
5
2c3
100
AcDbEntity
100
AcDbLine
10
137.603492
20
110.953656
30
0.0
11
137.676399
21
126.828656
31
0.0
0
LINE
8
Calque 1
62
4
5
2c4
100
AcDbEntity
100
AcDbLine
10
137.676399
20
126.828656
30
0.0
11
137.676399
21
126.828656
31
0.0
0
LINE
8
Calque 1
62
4
5
2c5
100
AcDbEntity
100
AcDbLine
10
60.807177
20
156.758548
30
0.0
11
61.339753
21
159.665663
31
0.0
0
LINE
8
Calque 1
62
4
5
2c6
100
AcDbEntity
100
AcDbLine
10
61.339753
20
159.665663
30
0.0
11
62.463691
21
159.580770
31
0.0
0
LINE
8
Calque 1
62
4
5
2c7
100
AcDbEntity
100
AcDbLine
10
62.463691
20
159.580770
30
0.0
11
63.587633
21
159.495878
31
0.0
0
LINE
8
Calque 1
62
4
5
2c8
100
AcDbEntity
100
AcDbLine
10
63.587633
20
159.495878
30
0.0
11
64.486643
21
156.955878
31
0.0
0
LINE
8
Calque 1
62
4
5
2c9
100
AcDbEntity
100
AcDbLine
10
64.486643
20
156.955878
30
0.0
11
65.350918
21
154.838073
31
0.0
0
LINE
8
Calque 1
62
4
5
2ca
100
AcDbEntity
100
AcDbLine
10
65.350918
20
154.838073
30
0.0
11
65.680816
21
154.494826
31
0.0
0
LINE
8
Calque 1
62
4
5
2cb
100
AcDbEntity
100
AcDbLine
10
65.680816
20
154.494826
30
0.0
11
66.075684
21
154.415878
31
0.0
0
LINE
8
Calque 1
62
4
5
2cc
100
AcDbEntity
100
AcDbLine
10
66.075684
20
154.415878
30
0.0
11
66.765715
21
154.415878
31
0.0
0
LINE
8
Calque 1
62
4
5
2cd
100
AcDbEntity
100
AcDbLine
10
66.765715
20
154.415878
30
0.0
11
66.668179
21
157.379211
31
0.0
0
LINE
8
Calque 1
62
4
5
2ce
100
AcDbEntity
100
AcDbLine
10
66.668179
20
157.379211
30
0.0
11
66.570643
21
160.342545
31
0.0
0
LINE
8
Calque 1
62
4
5
2cf
100
AcDbEntity
100
AcDbLine
10
66.570643
20
160.342545
30
0.0
11
67.485647
21
160.686418
31
0.0
0
LINE
8
Calque 1
62
4
5
2d0
100
AcDbEntity
100
AcDbLine
10
67.485647
20
160.686418
30
0.0
11
68.602383
21
160.905615
31
0.0
0
LINE
8
Calque 1
62
4
5
2d1
100
AcDbEntity
100
AcDbLine
10
68.602383
20
160.905615
30
0.0
11
70.183804
21
158.660387
31
0.0
0
LINE
8
Calque 1
62
4
5
2d2
100
AcDbEntity
100
AcDbLine
10
70.183804
20
158.660387
30
0.0
11
71.079708
21
157.394918
31
0.0
0
LINE
8
Calque 1
62
4
5
2d3
100
AcDbEntity
100
AcDbLine
10
71.079708
20
157.394918
30
0.0
11
71.766997
21
156.715174
31
0.0
0
LINE
8
Calque 1
62
4
5
2d4
100
AcDbEntity
100
AcDbLine
10
71.766997
20
156.715174
30
0.0
11
72.317901
21
156.573221
31
0.0
0
LINE
8
Calque 1
62
4
5
2d5
100
AcDbEntity
100
AcDbLine
10
72.317901
20
156.573221
30
0.0
11
72.804649
21
156.921125
31
0.0
0
LINE
8
Calque 1
62
4
5
2d6
100
AcDbEntity
100
AcDbLine
10
72.804649
20
156.921125
30
0.0
11
72.918628
21
157.219142
31
0.0
0
LINE
8
Calque 1
62
4
5
2d7
100
AcDbEntity
100
AcDbLine
10
72.918628
20
157.219142
30
0.0
11
72.878463
21
157.716783
31
0.0
0
LINE
8
Calque 1
62
4
5
2d8
100
AcDbEntity
100
AcDbLine
10
72.878463
20
157.716783
30
0.0
11
72.274763
21
159.621489
31
0.0
0
LINE
8
Calque 1
62
4
5
2d9
100
AcDbEntity
100
AcDbLine
10
72.274763
20
159.621489
30
0.0
11
71.424165
21
162.266798
31
0.0
0
LINE
8
Calque 1
62
4
5
2da
100
AcDbEntity
100
AcDbLine
10
71.424165
20
162.266798
30
0.0
11
71.683189
21
162.649100
31
0.0
0
LINE
8
Calque 1
62
4
5
2db
100
AcDbEntity
100
AcDbLine
10
71.683189
20
162.649100
30
0.0
11
72.303612
21
163.099898
31
0.0
0
LINE
8
Calque 1
62
4
5
2dc
100
AcDbEntity
100
AcDbLine
10
72.303612
20
163.099898
30
0.0
11
73.181275
21
163.599474
31
0.0
0
LINE
8
Calque 1
62
4
5
2dd
100
AcDbEntity
100
AcDbLine
10
73.181275
20
163.599474
30
0.0
11
74.912384
21
162.092102
31
0.0
0
LINE
8
Calque 1
62
4
5
2de
100
AcDbEntity
100
AcDbLine
10
74.912384
20
162.092102
30
0.0
11
77.034577
21
160.401570
31
0.0
0
LINE
8
Calque 1
62
4
5
2df
100
AcDbEntity
100
AcDbLine
10
77.034577
20
160.401570
30
0.0
11
77.502900
21
160.337037
31
0.0
0
LINE
8
Calque 1
62
4
5
2e0
100
AcDbEntity
100
AcDbLine
10
77.502900
20
160.337037
30
0.0
11
77.916109
21
160.627135
31
0.0
0
LINE
8
Calque 1
62
4
5
2e1
100
AcDbEntity
100
AcDbLine
10
77.916109
20
160.627135
30
0.0
11
78.186245
21
160.944625
31
0.0
0
LINE
8
Calque 1
62
4
5
2e2
100
AcDbEntity
100
AcDbLine
10
78.186245
20
160.944625
30
0.0
11
78.166048
21
161.355047
31
0.0
0
LINE
8
Calque 1
62
4
5
2e3
100
AcDbEntity
100
AcDbLine
10
78.166048
20
161.355047
30
0.0
11
76.911716
21
163.402189
31
0.0
0
LINE
8
Calque 1
62
4
5
2e4
100
AcDbEntity
100
AcDbLine
10
76.911716
20
163.402189
30
0.0
11
75.375832
21
165.696249
31
0.0
0
LINE
8
Calque 1
62
4
5
2e5
100
AcDbEntity
100
AcDbLine
10
75.375832
20
165.696249
30
0.0
11
76.180086
21
166.500507
31
0.0
0
LINE
8
Calque 1
62
4
5
2e6
100
AcDbEntity
100
AcDbLine
10
76.180086
20
166.500507
30
0.0
11
76.984341
21
167.304761
31
0.0
0
LINE
8
Calque 1
62
4
5
2e7
100
AcDbEntity
100
AcDbLine
10
76.984341
20
167.304761
30
0.0
11
79.276916
21
166.152078
31
0.0
0
LINE
8
Calque 1
62
4
5
2e8
100
AcDbEntity
100
AcDbLine
10
79.276916
20
166.152078
30
0.0
11
81.569489
21
164.999395
31
0.0
0
LINE
8
Calque 1
62
4
5
2e9
100
AcDbEntity
100
AcDbLine
10
81.569489
20
164.999395
30
0.0
11
82.019958
21
165.686899
31
0.0
0
LINE
8
Calque 1
62
4
5
2ea
100
AcDbEntity
100
AcDbLine
10
82.019958
20
165.686899
30
0.0
11
82.238498
21
166.177179
31
0.0
0
LINE
8
Calque 1
62
4
5
2eb
100
AcDbEntity
100
AcDbLine
10
82.238498
20
166.177179
30
0.0
11
82.019511
21
166.718495
31
0.0
0
LINE
8
Calque 1
62
4
5
2ec
100
AcDbEntity
100
AcDbLine
10
82.019511
20
166.718495
30
0.0
11
79.406956
21
169.070414
31
0.0
0
LINE
8
Calque 1
62
4
5
2ed
100
AcDbEntity
100
AcDbLine
10
79.406956
20
169.070414
30
0.0
11
78.501531
21
169.827314
31
0.0
0
LINE
8
Calque 1
62
4
5
2ee
100
AcDbEntity
100
AcDbLine
10
78.501531
20
169.827314
30
0.0
11
78.965338
21
170.799928
31
0.0
0
LINE
8
Calque 1
62
4
5
2ef
100
AcDbEntity
100
AcDbLine
10
78.965338
20
170.799928
30
0.0
11
79.588541
21
171.772497
31
0.0
0
LINE
8
Calque 1
62
4
5
2f0
100
AcDbEntity
100
AcDbLine
10
79.588541
20
171.772497
30
0.0
11
81.986526
21
171.344086
31
0.0
0
LINE
8
Calque 1
62
4
5
2f1
100
AcDbEntity
100
AcDbLine
10
81.986526
20
171.344086
30
0.0
11
83.357535
21
171.110944
31
0.0
0
LINE
8
Calque 1
62
4
5
2f2
100
AcDbEntity
100
AcDbLine
10
83.357535
20
171.110944
30
0.0
11
84.146392
21
171.102084
31
0.0
0
LINE
8
Calque 1
62
4
5
2f3
100
AcDbEntity
100
AcDbLine
10
84.146392
20
171.102084
30
0.0
11
84.557974
21
171.360016
31
0.0
0
LINE
8
Calque 1
62
4
5
2f4
100
AcDbEntity
100
AcDbLine
10
84.557974
20
171.360016
30
0.0
11
84.797155
21
171.927248
31
0.0
0
LINE
8
Calque 1
62
4
5
2f5
100
AcDbEntity
100
AcDbLine
10
84.797155
20
171.927248
30
0.0
11
84.807627
21
172.266230
31
0.0
0
LINE
8
Calque 1
62
4
5
2f6
100
AcDbEntity
100
AcDbLine
10
84.807627
20
172.266230
30
0.0
11
84.539050
21
172.598273
31
0.0
0
LINE
8
Calque 1
62
4
5
2f7
100
AcDbEntity
100
AcDbLine
10
84.539050
20
172.598273
30
0.0
11
82.710203
21
173.607508
31
0.0
0
LINE
8
Calque 1
62
4
5
2f8
100
AcDbEntity
100
AcDbLine
10
82.710203
20
173.607508
30
0.0
11
80.449485
21
174.709736
31
0.0
0
LINE
8
Calque 1
62
4
5
2f9
100
AcDbEntity
100
AcDbLine
10
80.449485
20
174.709736
30
0.0
11
80.630039
21
175.710586
31
0.0
0
LINE
8
Calque 1
62
4
5
2fa
100
AcDbEntity
100
AcDbLine
10
80.630039
20
175.710586
30
0.0
11
80.861529
21
176.776288
31
0.0
0
LINE
8
Calque 1
62
4
5
2fb
100
AcDbEntity
100
AcDbLine
10
80.861529
20
176.776288
30
0.0
11
83.364090
21
177.029591
31
0.0
0
LINE
8
Calque 1
62
4
5
2fc
100
AcDbEntity
100
AcDbLine
10
83.364090
20
177.029591
30
0.0
11
85.815715
21
177.218037
31
0.0
0
LINE
8
Calque 1
62
4
5
2fd
100
AcDbEntity
100
AcDbLine
10
85.815715
20
177.218037
30
0.0
11
85.815715
21
178.118980
31
0.0
0
LINE
8
Calque 1
62
4
5
2fe
100
AcDbEntity
100
AcDbLine
10
85.815715
20
178.118980
30
0.0
11
85.782403
21
178.644001
31
0.0
0
LINE
8
Calque 1
62
4
5
2ff
100
AcDbEntity
100
AcDbLine
10
85.782403
20
178.644001
30
0.0
11
85.556374
21
178.951939
31
0.0
0
LINE
8
Calque 1
62
4
5
300
100
AcDbEntity
100
AcDbLine
10
85.556374
20
178.951939
30
0.0
11
83.769604
21
179.384493
31
0.0
0
LINE
8
Calque 1
62
4
5
301
100
AcDbEntity
100
AcDbLine
10
83.769604
20
179.384493
30
0.0
11
82.172407
21
179.687161
31
0.0
0
LINE
8
Calque 1
62
4
5
302
100
AcDbEntity
100
AcDbLine
10
82.172407
20
179.687161
30
0.0
11
81.356216
21
179.964210
31
0.0
0
LINE
8
Calque 1
62
4
5
303
100
AcDbEntity
100
AcDbLine
10
81.356216
20
179.964210
30
0.0
11
81.058802
21
180.378417
31
0.0
0
LINE
8
Calque 1
62
4
5
304
100
AcDbEntity
100
AcDbLine
10
81.058802
20
180.378417
30
0.0
11
81.017937
21
181.092555
31
0.0
0
LINE
8
Calque 1
62
4
5
305
100
AcDbEntity
100
AcDbLine
10
81.017937
20
181.092555
30
0.0
11
81.017937
21
182.167729
31
0.0
0
LINE
8
Calque 1
62
4
5
306
100
AcDbEntity
100
AcDbLine
10
81.017937
20
182.167729
30
0.0
11
83.064048
21
182.849767
31
0.0
0
LINE
8
Calque 1
62
4
5
307
100
AcDbEntity
100
AcDbLine
10
83.064048
20
182.849767
30
0.0
11
84.805763
21
183.552796
31
0.0
0
LINE
8
Calque 1
62
4
5
308
100
AcDbEntity
100
AcDbLine
10
84.805763
20
183.552796
30
0.0
11
85.059951
21
183.884343
31
0.0
0
LINE
8
Calque 1
62
4
5
309
100
AcDbEntity
100
AcDbLine
10
85.059951
20
183.884343
30
0.0
11
85.110159
21
184.354951
31
0.0
0
LINE
8
Calque 1
62
4
5
30a
100
AcDbEntity
100
AcDbLine
10
85.110159
20
184.354951
30
0.0
11
85.110159
21
185.178100
31
0.0
0
LINE
8
Calque 1
62
4
5
30b
100
AcDbEntity
100
AcDbLine
10
85.110159
20
185.178100
30
0.0
11
82.741138
21
185.178100
31
0.0
0
LINE
8
Calque 1
62
4
5
30c
100
AcDbEntity
100
AcDbLine
10
82.741138
20
185.178100
30
0.0
11
80.372117
21
185.178100
31
0.0
0
LINE
8
Calque 1
62
4
5
30d
100
AcDbEntity
100
AcDbLine
10
80.372117
20
185.178100
30
0.0
11
80.010892
21
186.217240
31
0.0
0
LINE
8
Calque 1
62
4
5
30e
100
AcDbEntity
100
AcDbLine
10
80.010892
20
186.217240
30
0.0
11
79.649664
21
187.256379
31
0.0
0
LINE
8
Calque 1
62
4
5
30f
100
AcDbEntity
100
AcDbLine
10
79.649664
20
187.256379
30
0.0
11
81.462688
21
188.437612
31
0.0
0
LINE
8
Calque 1
62
4
5
310
100
AcDbEntity
100
AcDbLine
10
81.462688
20
188.437612
30
0.0
11
82.572756
21
189.207321
31
0.0
0
LINE
8
Calque 1
62
4
5
311
100
AcDbEntity
100
AcDbLine
10
82.572756
20
189.207321
30
0.0
11
83.124165
21
189.763782
31
0.0
0
LINE
8
Calque 1
62
4
5
312
100
AcDbEntity
100
AcDbLine
10
83.124165
20
189.763782
30
0.0
11
83.203435
21
190.250039
31
0.0
0
LINE
8
Calque 1
62
4
5
313
100
AcDbEntity
100
AcDbLine
10
83.203435
20
190.250039
30
0.0
11
82.897085
21
190.809136
31
0.0
0
LINE
8
Calque 1
62
4
5
314
100
AcDbEntity
100
AcDbLine
10
82.897085
20
190.809136
30
0.0
11
82.640566
21
191.085845
31
0.0
0
LINE
8
Calque 1
62
4
5
315
100
AcDbEntity
100
AcDbLine
10
82.640566
20
191.085845
30
0.0
11
82.280743
21
191.157734
31
0.0
0
LINE
8
Calque 1
62
4
5
316
100
AcDbEntity
100
AcDbLine
10
82.280743
20
191.157734
30
0.0
11
80.427641
21
190.625968
31
0.0
0
LINE
8
Calque 1
62
4
5
317
100
AcDbEntity
100
AcDbLine
10
80.427641
20
190.625968
30
0.0
11
78.336826
21
189.924993
31
0.0
0
LINE
8
Calque 1
62
4
5
318
100
AcDbEntity
100
AcDbLine
10
78.336826
20
189.924993
30
0.0
11
77.686377
21
190.910494
31
0.0
0
LINE
8
Calque 1
62
4
5
319
100
AcDbEntity
100
AcDbLine
10
77.686377
20
190.910494
30
0.0
11
77.035928
21
191.895994
31
0.0
0
LINE
8
Calque 1
62
4
5
31a
100
AcDbEntity
100
AcDbLine
10
77.035928
20
191.895994
30
0.0
11
77.977839
21
192.911491
31
0.0
0
LINE
8
Calque 1
62
4
5
31b
100
AcDbEntity
100
AcDbLine
10
77.977839
20
192.911491
30
0.0
11
79.713325
21
194.935641
31
0.0
0
LINE
8
Calque 1
62
4
5
31c
100
AcDbEntity
100
AcDbLine
10
79.713325
20
194.935641
30
0.0
11
79.766475
21
195.362466
31
0.0
0
LINE
8
Calque 1
62
4
5
31d
100
AcDbEntity
100
AcDbLine
10
79.766475
20
195.362466
30
0.0
11
79.465715
21
195.761434
31
0.0
0
LINE
8
Calque 1
62
4
5
31e
100
AcDbEntity
100
AcDbLine
10
79.465715
20
195.761434
30
0.0
11
78.700932
21
196.325878
31
0.0
0
LINE
8
Calque 1
62
4
5
31f
100
AcDbEntity
100
AcDbLine
10
78.700932
20
196.325878
30
0.0
11
76.809092
21
195.213620
31
0.0
0
LINE
8
Calque 1
62
4
5
320
100
AcDbEntity
100
AcDbLine
10
76.809092
20
195.213620
30
0.0
11
75.171218
21
194.101360
31
0.0
0
LINE
8
Calque 1
62
4
5
321
100
AcDbEntity
100
AcDbLine
10
75.171218
20
194.101360
30
0.0
11
74.255063
21
194.866202
31
0.0
0
LINE
8
Calque 1
62
4
5
322
100
AcDbEntity
100
AcDbLine
10
74.255063
20
194.866202
30
0.0
11
73.338907
21
195.631041
31
0.0
0
LINE
8
Calque 1
62
4
5
323
100
AcDbEntity
100
AcDbLine
10
73.338907
20
195.631041
30
0.0
11
74.285644
21
197.554470
31
0.0
0
LINE
8
Calque 1
62
4
5
324
100
AcDbEntity
100
AcDbLine
10
74.285644
20
197.554470
30
0.0
11
75.232381
21
199.477897
31
0.0
0
LINE
8
Calque 1
62
4
5
325
100
AcDbEntity
100
AcDbLine
10
75.232381
20
199.477897
30
0.0
11
74.536774
21
200.042313
31
0.0
0
LINE
8
Calque 1
62
4
5
326
100
AcDbEntity
100
AcDbLine
10
74.536774
20
200.042313
30
0.0
11
73.841164
21
200.606732
31
0.0
0
LINE
8
Calque 1
62
4
5
327
100
AcDbEntity
100
AcDbLine
10
73.841164
20
200.606732
30
0.0
11
72.382499
21
198.962765
31
0.0
0
LINE
8
Calque 1
62
4
5
328
100
AcDbEntity
100
AcDbLine
10
72.382499
20
198.962765
30
0.0
11
70.923836
21
197.318801
31
0.0
0
LINE
8
Calque 1
62
4
5
329
100
AcDbEntity
100
AcDbLine
10
70.923836
20
197.318801
30
0.0
11
69.903109
21
197.805552
31
0.0
0
LINE
8
Calque 1
62
4
5
32a
100
AcDbEntity
100
AcDbLine
10
69.903109
20
197.805552
30
0.0
11
69.248480
21
198.157902
31
0.0
0
LINE
8
Calque 1
62
4
5
32b
100
AcDbEntity
100
AcDbLine
10
69.248480
20
198.157902
30
0.0
11
68.966402
21
198.583477
31
0.0
0
LINE
8
Calque 1
62
4
5
32c
100
AcDbEntity
100
AcDbLine
10
68.966402
20
198.583477
30
0.0
11
68.998043
21
199.366120
31
0.0
0
LINE
8
Calque 1
62
4
5
32d
100
AcDbEntity
100
AcDbLine
10
68.998043
20
199.366120
30
0.0
11
69.284568
21
200.789674
31
0.0
0
LINE
8
Calque 1
62
4
5
32e
100
AcDbEntity
100
AcDbLine
10
69.284568
20
200.789674
30
0.0
11
69.666925
21
202.572356
31
0.0
0
LINE
8
Calque 1
62
4
5
32f
100
AcDbEntity
100
AcDbLine
10
69.666925
20
202.572356
30
0.0
11
68.974058
21
202.835785
31
0.0
0
LINE
8
Calque 1
62
4
5
330
100
AcDbEntity
100
AcDbLine
10
68.974058
20
202.835785
30
0.0
11
68.358997
21
203.033983
31
0.0
0
LINE
8
Calque 1
62
4
5
331
100
AcDbEntity
100
AcDbLine
10
68.358997
20
203.033983
30
0.0
11
67.945254
21
202.934573
31
0.0
0
LINE
8
Calque 1
62
4
5
332
100
AcDbEntity
100
AcDbLine
10
67.945254
20
202.934573
30
0.0
11
67.541307
21
202.385714
31
0.0
0
LINE
8
Calque 1
62
4
5
333
100
AcDbEntity
100
AcDbLine
10
67.541307
20
202.385714
30
0.0
11
66.955633
21
201.235565
31
0.0
0
LINE
8
Calque 1
62
4
5
334
100
AcDbEntity
100
AcDbLine
10
66.955633
20
201.235565
30
0.0
11
66.036630
21
199.371919
31
0.0
0
LINE
8
Calque 1
62
4
5
335
100
AcDbEntity
100
AcDbLine
10
66.036630
20
199.371919
30
0.0
11
64.990060
21
199.567401
31
0.0
0
LINE
8
Calque 1
62
4
5
336
100
AcDbEntity
100
AcDbLine
10
64.990060
20
199.567401
30
0.0
11
63.820051
21
199.884675
31
0.0
0
LINE
8
Calque 1
62
4
5
337
100
AcDbEntity
100
AcDbLine
10
63.820051
20
199.884675
30
0.0
11
63.537829
21
202.046726
31
0.0
0
LINE
8
Calque 1
62
4
5
338
100
AcDbEntity
100
AcDbLine
10
63.537829
20
202.046726
30
0.0
11
63.379048
21
204.086989
31
0.0
0
LINE
8
Calque 1
62
4
5
339
100
AcDbEntity
100
AcDbLine
10
63.379048
20
204.086989
30
0.0
11
62.490274
21
204.173304
31
0.0
0
LINE
8
Calque 1
62
4
5
33a
100
AcDbEntity
100
AcDbLine
10
62.490274
20
204.173304
30
0.0
11
61.601497
21
204.259619
31
0.0
0
LINE
8
Calque 1
62
4
5
33b
100
AcDbEntity
100
AcDbLine
10
61.601497
20
204.259619
30
0.0
11
61.243362
21
202.255627
31
0.0
0
LINE
8
Calque 1
62
4
5
33c
100
AcDbEntity
100
AcDbLine
10
61.243362
20
202.255627
30
0.0
11
60.721028
21
200.150585
31
0.0
0
LINE
8
Calque 1
62
4
5
33d
100
AcDbEntity
100
AcDbLine
10
60.721028
20
200.150585
30
0.0
11
59.450475
21
199.954536
31
0.0
0
LINE
8
Calque 1
62
4
5
33e
100
AcDbEntity
100
AcDbLine
10
59.450475
20
199.954536
30
0.0
11
58.344125
21
199.859534
31
0.0
0
LINE
8
Calque 1
62
4
5
33f
100
AcDbEntity
100
AcDbLine
10
58.344125
20
199.859534
30
0.0
11
57.663069
21
201.902708
31
0.0
0
LINE
8
Calque 1
62
4
5
340
100
AcDbEntity
100
AcDbLine
10
57.663069
20
201.902708
30
0.0
11
56.957220
21
203.649754
31
0.0
0
LINE
8
Calque 1
62
4
5
341
100
AcDbEntity
100
AcDbLine
10
56.957220
20
203.649754
30
0.0
11
56.619151
21
203.898680
31
0.0
0
LINE
8
Calque 1
62
4
5
342
100
AcDbEntity
100
AcDbLine
10
56.619151
20
203.898680
30
0.0
11
56.129902
21
203.945878
31
0.0
0
LINE
8
Calque 1
62
4
5
343
100
AcDbEntity
100
AcDbLine
10
56.129902
20
203.945878
30
0.0
11
55.277794
21
203.945878
31
0.0
0
LINE
8
Calque 1
62
4
5
344
100
AcDbEntity
100
AcDbLine
10
55.277794
20
203.945878
30
0.0
11
55.377309
21
201.570436
31
0.0
0
LINE
8
Calque 1
62
4
5
345
100
AcDbEntity
100
AcDbLine
10
55.377309
20
201.570436
30
0.0
11
55.476826
21
199.194991
31
0.0
0
LINE
8
Calque 1
62
4
5
346
100
AcDbEntity
100
AcDbLine
10
55.476826
20
199.194991
30
0.0
11
54.456305
21
198.889325
31
0.0
0
LINE
8
Calque 1
62
4
5
347
100
AcDbEntity
100
AcDbLine
10
54.456305
20
198.889325
30
0.0
11
53.303077
21
198.583656
31
0.0
0
LINE
8
Calque 1
62
4
5
348
100
AcDbEntity
100
AcDbLine
10
53.303077
20
198.583656
30
0.0
11
51.924709
21
200.411383
31
0.0
0
LINE
8
Calque 1
62
4
5
349
100
AcDbEntity
100
AcDbLine
10
51.924709
20
200.411383
30
0.0
11
51.121452
21
201.532775
31
0.0
0
LINE
8
Calque 1
62
4
5
34a
100
AcDbEntity
100
AcDbLine
10
51.121452
20
201.532775
30
0.0
11
50.567718
21
202.089634
31
0.0
0
LINE
8
Calque 1
62
4
5
34b
100
AcDbEntity
100
AcDbLine
10
50.567718
20
202.089634
30
0.0
11
50.111186
21
202.179463
31
0.0
0
LINE
8
Calque 1
62
4
5
34c
100
AcDbEntity
100
AcDbLine
10
50.111186
20
202.179463
30
0.0
11
49.599534
21
201.899767
31
0.0
0
LINE
8
Calque 1
62
4
5
34d
100
AcDbEntity
100
AcDbLine
10
49.599534
20
201.899767
30
0.0
11
49.353154
21
201.650599
31
0.0
0
LINE
8
Calque 1
62
4
5
34e
100
AcDbEntity
100
AcDbLine
10
49.353154
20
201.650599
30
0.0
11
49.301284
21
201.269162
31
0.0
0
LINE
8
Calque 1
62
4
5
34f
100
AcDbEntity
100
AcDbLine
10
49.301284
20
201.269162
30
0.0
11
49.858735
21
199.343652
31
0.0
0
LINE
8
Calque 1
62
4
5
350
100
AcDbEntity
100
AcDbLine
10
49.858735
20
199.343652
30
0.0
11
50.498302
21
197.084920
31
0.0
0
LINE
8
Calque 1
62
4
5
351
100
AcDbEntity
100
AcDbLine
10
50.498302
20
197.084920
30
0.0
11
49.511588
21
196.410677
31
0.0
0
LINE
8
Calque 1
62
4
5
352
100
AcDbEntity
100
AcDbLine
10
49.511588
20
196.410677
30
0.0
11
48.626350
21
195.791829
31
0.0
0
LINE
8
Calque 1
62
4
5
353
100
AcDbEntity
100
AcDbLine
10
48.626350
20
195.791829
30
0.0
11
46.851499
21
197.328853
31
0.0
0
LINE
8
Calque 1
62
4
5
354
100
AcDbEntity
100
AcDbLine
10
46.851499
20
197.328853
30
0.0
11
44.887698
21
198.865878
31
0.0
0
LINE
8
Calque 1
62
4
5
355
100
AcDbEntity
100
AcDbLine
10
44.887698
20
198.865878
30
0.0
11
44.198543
21
198.313151
31
0.0
0
LINE
8
Calque 1
62
4
5
356
100
AcDbEntity
100
AcDbLine
10
44.198543
20
198.313151
30
0.0
11
43.942770
21
197.964292
31
0.0
0
LINE
8
Calque 1
62
4
5
357
100
AcDbEntity
100
AcDbLine
10
43.942770
20
197.964292
30
0.0
11
43.946133
21
197.585439
31
0.0
0
LINE
8
Calque 1
62
4
5
358
100
AcDbEntity
100
AcDbLine
10
43.946133
20
197.585439
30
0.0
11
45.001468
21
195.934247
31
0.0
0
LINE
8
Calque 1
62
4
5
359
100
AcDbEntity
100
AcDbLine
10
45.001468
20
195.934247
30
0.0
11
46.304604
21
193.858663
31
0.0
0
LINE
8
Calque 1
62
4
5
35a
100
AcDbEntity
100
AcDbLine
10
46.304604
20
193.858663
30
0.0
11
45.495870
21
192.834442
31
0.0
0
LINE
8
Calque 1
62
4
5
35b
100
AcDbEntity
100
AcDbLine
10
45.495870
20
192.834442
30
0.0
11
44.687137
21
192.059626
31
0.0
0
LINE
8
Calque 1
62
4
5
35c
100
AcDbEntity
100
AcDbLine
10
44.687137
20
192.059626
30
0.0
11
42.553168
21
193.115541
31
0.0
0
LINE
8
Calque 1
62
4
5
35d
100
AcDbEntity
100
AcDbLine
10
42.553168
20
193.115541
30
0.0
11
40.729431
21
193.909986
31
0.0
0
LINE
8
Calque 1
62
4
5
35e
100
AcDbEntity
100
AcDbLine
10
40.729431
20
193.909986
30
0.0
11
40.282861
21
193.952047
31
0.0
0
LINE
8
Calque 1
62
4
5
35f
100
AcDbEntity
100
AcDbLine
10
40.282861
20
193.952047
30
0.0
11
39.975234
21
193.803000
31
0.0
0
LINE
8
Calque 1
62
4
5
360
100
AcDbEntity
100
AcDbLine
10
39.975234
20
193.803000
30
0.0
11
39.587495
21
193.296245
31
0.0
0
LINE
8
Calque 1
62
4
5
361
100
AcDbEntity
100
AcDbLine
10
39.587495
20
193.296245
30
0.0
11
39.796946
21
192.665427
31
0.0
0
LINE
8
Calque 1
62
4
5
362
100
AcDbEntity
100
AcDbLine
10
39.796946
20
192.665427
30
0.0
11
40.774377
21
191.677638
31
0.0
0
LINE
8
Calque 1
62
4
5
363
100
AcDbEntity
100
AcDbLine
10
40.774377
20
191.677638
30
0.0
11
42.690573
21
190.099965
31
0.0
0
LINE
8
Calque 1
62
4
5
364
100
AcDbEntity
100
AcDbLine
10
42.690573
20
190.099965
30
0.0
11
42.992198
21
189.830342
31
0.0
0
LINE
8
Calque 1
62
4
5
365
100
AcDbEntity
100
AcDbLine
10
42.992198
20
189.830342
30
0.0
11
43.098784
21
189.577442
31
0.0
0
LINE
8
Calque 1
62
4
5
366
100
AcDbEntity
100
AcDbLine
10
43.098784
20
189.577442
30
0.0
11
42.745516
21
188.618299
31
0.0
0
LINE
8
Calque 1
62
4
5
367
100
AcDbEntity
100
AcDbLine
10
42.745516
20
188.618299
30
0.0
11
42.355034
21
187.938306
31
0.0
0
LINE
8
Calque 1
62
4
5
368
100
AcDbEntity
100
AcDbLine
10
42.355034
20
187.938306
30
0.0
11
41.836592
21
187.643288
31
0.0
0
LINE
8
Calque 1
62
4
5
369
100
AcDbEntity
100
AcDbLine
10
41.836592
20
187.643288
30
0.0
11
40.896910
21
187.681615
31
0.0
0
LINE
8
Calque 1
62
4
5
36a
100
AcDbEntity
100
AcDbLine
10
40.896910
20
187.681615
30
0.0
11
39.242706
21
188.001657
31
0.0
0
LINE
8
Calque 1
62
4
5
36b
100
AcDbEntity
100
AcDbLine
10
39.242706
20
188.001657
30
0.0
11
37.937666
21
188.250747
31
0.0
0
LINE
8
Calque 1
62
4
5
36c
100
AcDbEntity
100
AcDbLine
10
37.937666
20
188.250747
30
0.0
11
37.194023
21
188.283150
31
0.0
0
LINE
8
Calque 1
62
4
5
36d
100
AcDbEntity
100
AcDbLine
10
37.194023
20
188.283150
30
0.0
11
36.820566
21
188.067500
31
0.0
0
LINE
8
Calque 1
62
4
5
36e
100
AcDbEntity
100
AcDbLine
10
36.820566
20
188.067500
30
0.0
11
36.626083
21
187.572431
31
0.0
0
LINE
8
Calque 1
62
4
5
36f
100
AcDbEntity
100
AcDbLine
10
36.626083
20
187.572431
30
0.0
11
36.633677
21
187.232790
31
0.0
0
LINE
8
Calque 1
62
4
5
370
100
AcDbEntity
100
AcDbLine
10
36.633677
20
187.232790
30
0.0
11
36.921862
21
186.889991
31
0.0
0
LINE
8
Calque 1
62
4
5
371
100
AcDbEntity
100
AcDbLine
10
36.921862
20
186.889991
30
0.0
11
38.779238
21
185.841893
31
0.0
0
LINE
8
Calque 1
62
4
5
372
100
AcDbEntity
100
AcDbLine
10
38.779238
20
185.841893
30
0.0
11
41.163409
21
184.618527
31
0.0
0
LINE
8
Calque 1
62
4
5
373
100
AcDbEntity
100
AcDbLine
10
41.163409
20
184.618527
30
0.0
11
41.061290
21
183.409518
31
0.0
0
LINE
8
Calque 1
62
4
5
374
100
AcDbEntity
100
AcDbLine
10
41.061290
20
183.409518
30
0.0
11
40.879254
21
182.271135
31
0.0
0
LINE
8
Calque 1
62
4
5
375
100
AcDbEntity
100
AcDbLine
10
40.879254
20
182.271135
30
0.0
11
38.088595
21
182.071398
31
0.0
0
LINE
8
Calque 1
62
4
5
376
100
AcDbEntity
100
AcDbLine
10
38.088595
20
182.071398
30
0.0
11
35.297937
21
181.871658
31
0.0
0
LINE
8
Calque 1
62
4
5
377
100
AcDbEntity
100
AcDbLine
10
35.297937
20
181.871658
30
0.0
11
35.297937
21
181.107191
31
0.0
0
LINE
8
Calque 1
62
4
5
378
100
AcDbEntity
100
AcDbLine
10
35.297937
20
181.107191
30
0.0
11
35.350882
21
180.664717
31
0.0
0
LINE
8
Calque 1
62
4
5
379
100
AcDbEntity
100
AcDbLine
10
35.350882
20
180.664717
30
0.0
11
35.662549
21
180.378015
31
0.0
0
LINE
8
Calque 1
62
4
5
37a
100
AcDbEntity
100
AcDbLine
10
35.662549
20
180.378015
30
0.0
11
37.979048
21
179.837750
31
0.0
0
LINE
8
Calque 1
62
4
5
37b
100
AcDbEntity
100
AcDbLine
10
37.979048
20
179.837750
30
0.0
11
40.217767
21
179.316227
31
0.0
0
LINE
8
Calque 1
62
4
5
37c
100
AcDbEntity
100
AcDbLine
10
40.217767
20
179.316227
30
0.0
11
40.579608
21
179.065608
31
0.0
0
LINE
8
Calque 1
62
4
5
37d
100
AcDbEntity
100
AcDbLine
10
40.579608
20
179.065608
30
0.0
11
40.664011
21
178.727660
31
0.0
0
LINE
8
Calque 1
62
4
5
37e
100
AcDbEntity
100
AcDbLine
10
40.664011
20
178.727660
30
0.0
11
40.824816
21
177.538116
31
0.0
0
LINE
8
Calque 1
62
4
5
37f
100
AcDbEntity
100
AcDbLine
10
40.824816
20
177.538116
30
0.0
11
40.858899
21
177.225461
31
0.0
0
LINE
8
Calque 1
62
4
5
380
100
AcDbEntity
100
AcDbLine
10
40.858899
20
177.225461
30
0.0
11
40.728102
21
176.994279
31
0.0
0
LINE
8
Calque 1
62
4
5
381
100
AcDbEntity
100
AcDbLine
10
40.728102
20
176.994279
30
0.0
11
39.762628
21
176.589457
31
0.0
0
LINE
8
Calque 1
62
4
5
382
100
AcDbEntity
100
AcDbLine
10
39.762628
20
176.589457
30
0.0
11
37.061826
21
175.671941
31
0.0
0
LINE
8
Calque 1
62
4
5
383
100
AcDbEntity
100
AcDbLine
10
37.061826
20
175.671941
30
0.0
11
35.849083
21
175.087710
31
0.0
0
LINE
8
Calque 1
62
4
5
384
100
AcDbEntity
100
AcDbLine
10
35.849083
20
175.087710
30
0.0
11
35.634703
21
174.787668
31
0.0
0
LINE
8
Calque 1
62
4
5
385
100
AcDbEntity
100
AcDbLine
10
35.634703
20
174.787668
30
0.0
11
35.580159
21
174.394863
31
0.0
0
LINE
8
Calque 1
62
4
5
386
100
AcDbEntity
100
AcDbLine
10
35.580159
20
174.394863
30
0.0
11
35.580159
21
173.671070
31
0.0
0
LINE
8
Calque 1
62
4
5
387
100
AcDbEntity
100
AcDbLine
10
35.580159
20
173.671070
30
0.0
11
38.543492
21
173.869571
31
0.0
0
LINE
8
Calque 1
62
4
5
388
100
AcDbEntity
100
AcDbLine
10
38.543492
20
173.869571
30
0.0
11
41.506826
21
173.942554
31
0.0
0
LINE
8
Calque 1
62
4
5
389
100
AcDbEntity
100
AcDbLine
10
41.506826
20
173.942554
30
0.0
11
41.919274
21
172.829907
31
0.0
0
LINE
8
Calque 1
62
4
5
38a
100
AcDbEntity
100
AcDbLine
10
41.919274
20
172.829907
30
0.0
11
42.331719
21
171.842781
31
0.0
0
LINE
8
Calque 1
62
4
5
38b
100
AcDbEntity
100
AcDbLine
10
42.331719
20
171.842781
30
0.0
11
39.943718
21
170.253599
31
0.0
0
LINE
8
Calque 1
62
4
5
38c
100
AcDbEntity
100
AcDbLine
10
39.943718
20
170.253599
30
0.0
11
38.557707
21
169.288844
31
0.0
0
LINE
8
Calque 1
62
4
5
38d
100
AcDbEntity
100
AcDbLine
10
38.557707
20
169.288844
30
0.0
11
37.817697
21
168.623563
31
0.0
0
LINE
8
Calque 1
62
4
5
38e
100
AcDbEntity
100
AcDbLine
10
37.817697
20
168.623563
30
0.0
11
37.603681
21
168.109391
31
0.0
0
LINE
8
Calque 1
62
4
5
38f
100
AcDbEntity
100
AcDbLine
10
37.603681
20
168.109391
30
0.0
11
37.795652
21
167.597964
31
0.0
0
LINE
8
Calque 1
62
4
5
390
100
AcDbEntity
100
AcDbLine
10
37.795652
20
167.597964
30
0.0
11
38.035903
21
167.466988
31
0.0
0
LINE
8
Calque 1
62
4
5
391
100
AcDbEntity
100
AcDbLine
10
38.035903
20
167.466988
30
0.0
11
38.550060
21
167.515433
31
0.0
0
LINE
8
Calque 1
62
4
5
392
100
AcDbEntity
100
AcDbLine
10
38.550060
20
167.515433
30
0.0
11
40.788330
21
168.232964
31
0.0
0
LINE
8
Calque 1
62
4
5
393
100
AcDbEntity
100
AcDbLine
10
40.788330
20
168.232964
30
0.0
11
43.634141
21
169.232545
31
0.0
0
LINE
8
Calque 1
62
4
5
394
100
AcDbEntity
100
AcDbLine
10
43.634141
20
169.232545
30
0.0
11
44.333775
21
168.237119
31
0.0
0
LINE
8
Calque 1
62
4
5
395
100
AcDbEntity
100
AcDbLine
10
44.333775
20
168.237119
30
0.0
11
44.948983
21
167.241690
31
0.0
0
LINE
8
Calque 1
62
4
5
396
100
AcDbEntity
100
AcDbLine
10
44.948983
20
167.241690
30
0.0
11
43.086793
21
165.161021
31
0.0
0
LINE
8
Calque 1
62
4
5
397
100
AcDbEntity
100
AcDbLine
10
43.086793
20
165.161021
30
0.0
11
41.224604
21
162.804338
31
0.0
0
LINE
8
Calque 1
62
4
5
398
100
AcDbEntity
100
AcDbLine
10
41.224604
20
162.804338
30
0.0
11
41.658763
21
162.168003
31
0.0
0
LINE
8
Calque 1
62
4
5
399
100
AcDbEntity
100
AcDbLine
10
41.658763
20
162.168003
30
0.0
11
41.971326
21
162.045112
31
0.0
0
LINE
8
Calque 1
62
4
5
39a
100
AcDbEntity
100
AcDbLine
10
41.971326
20
162.045112
30
0.0
11
42.453567
21
162.173318
31
0.0
0
LINE
8
Calque 1
62
4
5
39b
100
AcDbEntity
100
AcDbLine
10
42.453567
20
162.173318
30
0.0
11
44.485537
21
163.432923
31
0.0
0
LINE
8
Calque 1
62
4
5
39c
100
AcDbEntity
100
AcDbLine
10
44.485537
20
163.432923
30
0.0
11
46.657551
21
164.782549
31
0.0
0
LINE
8
Calque 1
62
4
5
39d
100
AcDbEntity
100
AcDbLine
10
46.657551
20
164.782549
30
0.0
11
47.142300
21
164.827306
31
0.0
0
LINE
8
Calque 1
62
4
5
39e
100
AcDbEntity
100
AcDbLine
10
47.142300
20
164.827306
30
0.0
11
47.594325
21
164.588908
31
0.0
0
LINE
8
Calque 1
62
4
5
39f
100
AcDbEntity
100
AcDbLine
10
47.594325
20
164.588908
30
0.0
11
48.454781
21
163.743650
31
0.0
0
LINE
8
Calque 1
62
4
5
3a0
100
AcDbEntity
100
AcDbLine
10
48.454781
20
163.743650
30
0.0
11
48.179364
21
162.726809
31
0.0
0
LINE
8
Calque 1
62
4
5
3a1
100
AcDbEntity
100
AcDbLine
10
48.179364
20
162.726809
30
0.0
11
47.314575
21
160.810068
31
0.0
0
LINE
8
Calque 1
62
4
5
3a2
100
AcDbEntity
100
AcDbLine
10
47.314575
20
160.810068
30
0.0
11
46.030083
21
158.252492
31
0.0
0
LINE
8
Calque 1
62
4
5
3a3
100
AcDbEntity
100
AcDbLine
10
46.030083
20
158.252492
30
0.0
11
46.641399
21
157.824307
31
0.0
0
LINE
8
Calque 1
62
4
5
3a4
100
AcDbEntity
100
AcDbLine
10
46.641399
20
157.824307
30
0.0
11
47.004363
21
157.613865
31
0.0
0
LINE
8
Calque 1
62
4
5
3a5
100
AcDbEntity
100
AcDbLine
10
47.004363
20
157.613865
30
0.0
11
47.309994
21
157.630775
31
0.0
0
LINE
8
Calque 1
62
4
5
3a6
100
AcDbEntity
100
AcDbLine
10
47.309994
20
157.630775
30
0.0
11
48.259283
21
158.587114
31
0.0
0
LINE
8
Calque 1
62
4
5
3a7
100
AcDbEntity
100
AcDbLine
10
48.259283
20
158.587114
30
0.0
11
50.262711
21
160.861681
31
0.0
0
LINE
8
Calque 1
62
4
5
3a8
100
AcDbEntity
100
AcDbLine
10
50.262711
20
160.861681
30
0.0
11
51.259571
21
161.945259
31
0.0
0
LINE
8
Calque 1
62
4
5
3a9
100
AcDbEntity
100
AcDbLine
10
51.259571
20
161.945259
30
0.0
11
52.265439
21
161.465594
31
0.0
0
LINE
8
Calque 1
62
4
5
3aa
100
AcDbEntity
100
AcDbLine
10
52.265439
20
161.465594
30
0.0
11
53.271310
21
160.985927
31
0.0
0
LINE
8
Calque 1
62
4
5
3ab
100
AcDbEntity
100
AcDbLine
10
53.271310
20
160.985927
30
0.0
11
52.728749
21
158.315958
31
0.0
0
LINE
8
Calque 1
62
4
5
3ac
100
AcDbEntity
100
AcDbLine
10
52.728749
20
158.315958
30
0.0
11
52.413963
21
156.569186
31
0.0
0
LINE
8
Calque 1
62
4
5
3ad
100
AcDbEntity
100
AcDbLine
10
52.413963
20
156.569186
30
0.0
11
52.347159
21
155.507780
31
0.0
0
LINE
8
Calque 1
62
4
5
3ae
100
AcDbEntity
100
AcDbLine
10
52.347159
20
155.507780
30
0.0
11
52.540310
21
154.981276
31
0.0
0
LINE
8
Calque 1
62
4
5
3af
100
AcDbEntity
100
AcDbLine
10
52.540310
20
154.981276
30
0.0
11
53.005386
21
154.839211
31
0.0
0
LINE
8
Calque 1
62
4
5
3b0
100
AcDbEntity
100
AcDbLine
10
53.005386
20
154.839211
30
0.0
11
53.312599
21
154.989915
31
0.0
0
LINE
8
Calque 1
62
4
5
3b1
100
AcDbEntity
100
AcDbLine
10
53.312599
20
154.989915
30
0.0
11
53.706281
21
155.463944
31
0.0
0
LINE
8
Calque 1
62
4
5
3b2
100
AcDbEntity
100
AcDbLine
10
53.706281
20
155.463944
30
0.0
11
54.843434
21
157.513481
31
0.0
0
LINE
8
Calque 1
62
4
5
3b3
100
AcDbEntity
100
AcDbLine
10
54.843434
20
157.513481
30
0.0
11
55.908422
21
159.431667
31
0.0
0
LINE
8
Calque 1
62
4
5
3b4
100
AcDbEntity
100
AcDbLine
10
55.908422
20
159.431667
30
0.0
11
56.288192
21
159.934116
31
0.0
0
LINE
8
Calque 1
62
4
5
3b5
100
AcDbEntity
100
AcDbLine
10
56.288192
20
159.934116
30
0.0
11
56.529907
21
160.077053
31
0.0
0
LINE
8
Calque 1
62
4
5
3b6
100
AcDbEntity
100
AcDbLine
10
56.529907
20
160.077053
30
0.0
11
57.664048
21
159.796295
31
0.0
0
LINE
8
Calque 1
62
4
5
3b7
100
AcDbEntity
100
AcDbLine
10
57.664048
20
159.796295
30
0.0
11
58.081106
21
159.669179
31
0.0
0
LINE
8
Calque 1
62
4
5
3b8
100
AcDbEntity
100
AcDbLine
10
58.081106
20
159.669179
30
0.0
11
58.315029
21
159.456436
31
0.0
0
LINE
8
Calque 1
62
4
5
3b9
100
AcDbEntity
100
AcDbLine
10
58.315029
20
159.456436
30
0.0
11
58.440159
21
158.403012
31
0.0
0
LINE
8
Calque 1
62
4
5
3ba
100
AcDbEntity
100
AcDbLine
10
58.440159
20
158.403012
30
0.0
11
58.623014
21
155.430337
31
0.0
0
LINE
8
Calque 1
62
4
5
3bb
100
AcDbEntity
100
AcDbLine
10
58.623014
20
155.430337
30
0.0
11
58.883114
21
153.937869
31
0.0
0
LINE
8
Calque 1
62
4
5
3bc
100
AcDbEntity
100
AcDbLine
10
58.883114
20
153.937869
30
0.0
11
59.124235
21
153.755526
31
0.0
0
LINE
8
Calque 1
62
4
5
3bd
100
AcDbEntity
100
AcDbLine
10
59.124235
20
153.755526
30
0.0
11
59.540236
21
153.766160
31
0.0
0
LINE
8
Calque 1
62
4
5
3be
100
AcDbEntity
100
AcDbLine
10
59.540236
20
153.766160
30
0.0
11
59.961320
21
153.879599
31
0.0
0
LINE
8
Calque 1
62
4
5
3bf
100
AcDbEntity
100
AcDbLine
10
59.961320
20
153.879599
30
0.0
11
60.245580
21
154.257285
31
0.0
0
LINE
8
Calque 1
62
4
5
3c0
100
AcDbEntity
100
AcDbLine
10
60.245580
20
154.257285
30
0.0
11
60.807177
21
156.758548
31
0.0
0
LINE
8
Calque 1
62
4
5
3c1
100
AcDbEntity
100
AcDbLine
10
60.807177
20
156.758548
30
0.0
11
60.807177
21
156.758548
31
0.0
0
LINE
8
Calque 1
62
4
5
3c2
100
AcDbEntity
100
AcDbLine
10
137.944753
20
156.603100
30
0.0
11
138.485045
21
159.495878
31
0.0
0
LINE
8
Calque 1
62
4
5
3c3
100
AcDbEntity
100
AcDbLine
10
138.485045
20
159.495878
30
0.0
11
139.599927
21
159.579382
31
0.0
0
LINE
8
Calque 1
62
4
5
3c4
100
AcDbEntity
100
AcDbLine
10
139.599927
20
159.579382
30
0.0
11
140.714809
21
159.662883
31
0.0
0
LINE
8
Calque 1
62
4
5
3c5
100
AcDbEntity
100
AcDbLine
10
140.714809
20
159.662883
30
0.0
11
141.667106
21
156.953795
31
0.0
0
LINE
8
Calque 1
62
4
5
3c6
100
AcDbEntity
100
AcDbLine
10
141.667106
20
156.953795
30
0.0
11
142.587986
21
154.653663
31
0.0
0
LINE
8
Calque 1
62
4
5
3c7
100
AcDbEntity
100
AcDbLine
10
142.587986
20
154.653663
30
0.0
11
142.925784
21
154.346871
31
0.0
0
LINE
8
Calque 1
62
4
5
3c8
100
AcDbEntity
100
AcDbLine
10
142.925784
20
154.346871
30
0.0
11
143.357005
21
154.330294
31
0.0
0
LINE
8
Calque 1
62
4
5
3c9
100
AcDbEntity
100
AcDbLine
10
143.357005
20
154.330294
30
0.0
11
143.819007
21
154.428932
31
0.0
0
LINE
8
Calque 1
62
4
5
3ca
100
AcDbEntity
100
AcDbLine
10
143.819007
20
154.428932
30
0.0
11
144.014983
21
154.872066
31
0.0
0
LINE
8
Calque 1
62
4
5
3cb
100
AcDbEntity
100
AcDbLine
10
144.014983
20
154.872066
30
0.0
11
143.786104
21
158.524193
31
0.0
0
LINE
8
Calque 1
62
4
5
3cc
100
AcDbEntity
100
AcDbLine
10
143.786104
20
158.524193
30
0.0
11
143.624924
21
160.374729
31
0.0
0
LINE
8
Calque 1
62
4
5
3cd
100
AcDbEntity
100
AcDbLine
10
143.624924
20
160.374729
30
0.0
11
144.692079
21
160.702248
31
0.0
0
LINE
8
Calque 1
62
4
5
3ce
100
AcDbEntity
100
AcDbLine
10
144.692079
20
160.702248
30
0.0
11
145.801698
21
160.968378
31
0.0
0
LINE
8
Calque 1
62
4
5
3cf
100
AcDbEntity
100
AcDbLine
10
145.801698
20
160.968378
30
0.0
11
147.306318
21
158.719767
31
0.0
0
LINE
8
Calque 1
62
4
5
3d0
100
AcDbEntity
100
AcDbLine
10
147.306318
20
158.719767
30
0.0
11
148.211796
21
157.429079
31
0.0
0
LINE
8
Calque 1
62
4
5
3d1
100
AcDbEntity
100
AcDbLine
10
148.211796
20
157.429079
30
0.0
11
148.840942
21
156.756019
31
0.0
0
LINE
8
Calque 1
62
4
5
3d2
100
AcDbEntity
100
AcDbLine
10
148.840942
20
156.756019
30
0.0
11
149.346237
21
156.587465
31
0.0
0
LINE
8
Calque 1
62
4
5
3d3
100
AcDbEntity
100
AcDbLine
10
149.346237
20
156.587465
30
0.0
11
149.880159
21
156.810296
31
0.0
0
LINE
8
Calque 1
62
4
5
3d4
100
AcDbEntity
100
AcDbLine
10
149.880159
20
156.810296
30
0.0
11
150.075705
21
157.025814
31
0.0
0
LINE
8
Calque 1
62
4
5
3d5
100
AcDbEntity
100
AcDbLine
10
150.075705
20
157.025814
30
0.0
11
150.098071
21
157.415091
31
0.0
0
LINE
8
Calque 1
62
4
5
3d6
100
AcDbEntity
100
AcDbLine
10
150.098071
20
157.415091
30
0.0
11
149.547662
21
159.275420
31
0.0
0
LINE
8
Calque 1
62
4
5
3d7
100
AcDbEntity
100
AcDbLine
10
149.547662
20
159.275420
30
0.0
11
148.622783
21
161.906589
31
0.0
0
LINE
8
Calque 1
62
4
5
3d8
100
AcDbEntity
100
AcDbLine
10
148.622783
20
161.906589
30
0.0
11
148.721977
21
162.395828
31
0.0
0
LINE
8
Calque 1
62
4
5
3d9
100
AcDbEntity
100
AcDbLine
10
148.721977
20
162.395828
30
0.0
11
149.326411
21
162.986939
31
0.0
0
LINE
8
Calque 1
62
4
5
3da
100
AcDbEntity
100
AcDbLine
10
149.326411
20
162.986939
30
0.0
11
150.199084
21
163.632135
31
0.0
0
LINE
8
Calque 1
62
4
5
3db
100
AcDbEntity
100
AcDbLine
10
150.199084
20
163.632135
30
0.0
11
151.006093
21
162.975116
31
0.0
0
LINE
8
Calque 1
62
4
5
3dc
100
AcDbEntity
100
AcDbLine
10
151.006093
20
162.975116
30
0.0
11
153.086641
21
161.240327
31
0.0
0
LINE
8
Calque 1
62
4
5
3dd
100
AcDbEntity
100
AcDbLine
10
153.086641
20
161.240327
30
0.0
11
154.235326
21
160.413477
31
0.0
0
LINE
8
Calque 1
62
4
5
3de
100
AcDbEntity
100
AcDbLine
10
154.235326
20
160.413477
30
0.0
11
154.595766
21
160.352812
31
0.0
0
LINE
8
Calque 1
62
4
5
3df
100
AcDbEntity
100
AcDbLine
10
154.595766
20
160.352812
30
0.0
11
154.942393
21
160.474148
31
0.0
0
LINE
8
Calque 1
62
4
5
3e0
100
AcDbEntity
100
AcDbLine
10
154.942393
20
160.474148
30
0.0
11
155.524604
21
161.035454
31
0.0
0
LINE
8
Calque 1
62
4
5
3e1
100
AcDbEntity
100
AcDbLine
10
155.524604
20
161.035454
30
0.0
11
154.113492
21
163.333553
31
0.0
0
LINE
8
Calque 1
62
4
5
3e2
100
AcDbEntity
100
AcDbLine
10
154.113492
20
163.333553
30
0.0
11
152.702381
21
165.598172
31
0.0
0
LINE
8
Calque 1
62
4
5
3e3
100
AcDbEntity
100
AcDbLine
10
152.702381
20
165.598172
30
0.0
11
153.350403
21
166.567774
31
0.0
0
LINE
8
Calque 1
62
4
5
3e4
100
AcDbEntity
100
AcDbLine
10
153.350403
20
166.567774
30
0.0
11
153.998425
21
167.321144
31
0.0
0
LINE
8
Calque 1
62
4
5
3e5
100
AcDbEntity
100
AcDbLine
10
153.998425
20
167.321144
30
0.0
11
156.340892
21
166.143374
31
0.0
0
LINE
8
Calque 1
62
4
5
3e6
100
AcDbEntity
100
AcDbLine
10
156.340892
20
166.143374
30
0.0
11
158.399759
21
165.210507
31
0.0
0
LINE
8
Calque 1
62
4
5
3e7
100
AcDbEntity
100
AcDbLine
10
158.399759
20
165.210507
30
0.0
11
158.801233
21
165.219824
31
0.0
0
LINE
8
Calque 1
62
4
5
3e8
100
AcDbEntity
100
AcDbLine
10
158.801233
20
165.219824
30
0.0
11
159.070562
21
165.476297
31
0.0
0
LINE
8
Calque 1
62
4
5
3e9
100
AcDbEntity
100
AcDbLine
10
159.070562
20
165.476297
30
0.0
11
159.382551
21
166.016127
31
0.0
0
LINE
8
Calque 1
62
4
5
3ea
100
AcDbEntity
100
AcDbLine
10
159.382551
20
166.016127
30
0.0
11
159.313991
21
166.518069
31
0.0
0
LINE
8
Calque 1
62
4
5
3eb
100
AcDbEntity
100
AcDbLine
10
159.313991
20
166.518069
30
0.0
11
158.767228
21
167.164351
31
0.0
0
LINE
8
Calque 1
62
4
5
3ec
100
AcDbEntity
100
AcDbLine
10
158.767228
20
167.164351
30
0.0
11
157.644609
21
168.137201
31
0.0
0
LINE
8
Calque 1
62
4
5
3ed
100
AcDbEntity
100
AcDbLine
10
157.644609
20
168.137201
30
0.0
11
155.810164
21
169.881560
31
0.0
0
LINE
8
Calque 1
62
4
5
3ee
100
AcDbEntity
100
AcDbLine
10
155.810164
20
169.881560
30
0.0
11
156.250578
21
170.965364
31
0.0
0
LINE
8
Calque 1
62
4
5
3ef
100
AcDbEntity
100
AcDbLine
10
156.250578
20
170.965364
30
0.0
11
156.730352
21
171.611691
31
0.0
0
LINE
8
Calque 1
62
4
5
3f0
100
AcDbEntity
100
AcDbLine
10
156.730352
20
171.611691
30
0.0
11
157.308911
21
171.677202
31
0.0
0
LINE
8
Calque 1
62
4
5
3f1
100
AcDbEntity
100
AcDbLine
10
157.308911
20
171.677202
30
0.0
11
160.538894
21
171.052412
31
0.0
0
LINE
8
Calque 1
62
4
5
3f2
100
AcDbEntity
100
AcDbLine
10
160.538894
20
171.052412
30
0.0
11
161.371123
21
171.046137
31
0.0
0
LINE
8
Calque 1
62
4
5
3f3
100
AcDbEntity
100
AcDbLine
10
161.371123
20
171.046137
30
0.0
11
161.756993
21
171.236464
31
0.0
0
LINE
8
Calque 1
62
4
5
3f4
100
AcDbEntity
100
AcDbLine
10
161.756993
20
171.236464
30
0.0
11
161.990195
21
171.819646
31
0.0
0
LINE
8
Calque 1
62
4
5
3f5
100
AcDbEntity
100
AcDbLine
10
161.990195
20
171.819646
30
0.0
11
161.808164
21
172.332956
31
0.0
0
LINE
8
Calque 1
62
4
5
3f6
100
AcDbEntity
100
AcDbLine
10
161.808164
20
172.332956
30
0.0
11
161.127429
21
172.878874
31
0.0
0
LINE
8
Calque 1
62
4
5
3f7
100
AcDbEntity
100
AcDbLine
10
161.127429
20
172.878874
30
0.0
11
159.864518
21
173.559878
31
0.0
0
LINE
8
Calque 1
62
4
5
3f8
100
AcDbEntity
100
AcDbLine
10
159.864518
20
173.559878
30
0.0
11
157.713324
21
174.624318
31
0.0
0
LINE
8
Calque 1
62
4
5
3f9
100
AcDbEntity
100
AcDbLine
10
157.713324
20
174.624318
30
0.0
11
157.876895
21
175.632289
31
0.0
0
LINE
8
Calque 1
62
4
5
3fa
100
AcDbEntity
100
AcDbLine
10
157.876895
20
175.632289
30
0.0
11
158.135125
21
176.734917
31
0.0
0
LINE
8
Calque 1
62
4
5
3fb
100
AcDbEntity
100
AcDbLine
10
158.135125
20
176.734917
30
0.0
11
160.546082
21
177.022747
31
0.0
0
LINE
8
Calque 1
62
4
5
3fc
100
AcDbEntity
100
AcDbLine
10
160.546082
20
177.022747
30
0.0
11
162.862381
21
177.215920
31
0.0
0
LINE
8
Calque 1
62
4
5
3fd
100
AcDbEntity
100
AcDbLine
10
162.862381
20
177.215920
30
0.0
11
162.862381
21
178.129538
31
0.0
0
LINE
8
Calque 1
62
4
5
3fe
100
AcDbEntity
100
AcDbLine
10
162.862381
20
178.129538
30
0.0
11
162.862381
21
179.043154
31
0.0
0
LINE
8
Calque 1
62
4
5
3ff
100
AcDbEntity
100
AcDbLine
10
162.862381
20
179.043154
30
0.0
11
160.604604
21
179.409811
31
0.0
0
LINE
8
Calque 1
62
4
5
400
100
AcDbEntity
100
AcDbLine
10
160.604604
20
179.409811
30
0.0
11
158.966507
21
179.768384
31
0.0
0
LINE
8
Calque 1
62
4
5
401
100
AcDbEntity
100
AcDbLine
10
158.966507
20
179.768384
30
0.0
11
158.346826
21
180.113673
31
0.0
0
LINE
8
Calque 1
62
4
5
402
100
AcDbEntity
100
AcDbLine
10
158.346826
20
180.113673
30
0.0
11
158.181870
21
181.275655
31
0.0
0
LINE
8
Calque 1
62
4
5
403
100
AcDbEntity
100
AcDbLine
10
158.181870
20
181.275655
30
0.0
11
158.125549
21
181.759447
31
0.0
0
LINE
8
Calque 1
62
4
5
404
100
AcDbEntity
100
AcDbLine
10
158.125549
20
181.759447
30
0.0
11
158.319713
21
182.081141
31
0.0
0
LINE
8
Calque 1
62
4
5
405
100
AcDbEntity
100
AcDbLine
10
158.319713
20
182.081141
30
0.0
11
160.174858
21
182.777199
31
0.0
0
LINE
8
Calque 1
62
4
5
406
100
AcDbEntity
100
AcDbLine
10
160.174858
20
182.777199
30
0.0
11
162.430522
21
183.612086
31
0.0
0
LINE
8
Calque 1
62
4
5
407
100
AcDbEntity
100
AcDbLine
10
162.430522
20
183.612086
30
0.0
11
162.373389
21
184.580297
31
0.0
0
LINE
8
Calque 1
62
4
5
408
100
AcDbEntity
100
AcDbLine
10
162.373389
20
184.580297
30
0.0
11
162.218528
21
185.390391
31
0.0
0
LINE
8
Calque 1
62
4
5
409
100
AcDbEntity
100
AcDbLine
10
162.218528
20
185.390391
30
0.0
11
159.891185
21
185.201550
31
0.0
0
LINE
8
Calque 1
62
4
5
40a
100
AcDbEntity
100
AcDbLine
10
159.891185
20
185.201550
30
0.0
11
157.563840
21
185.012712
31
0.0
0
LINE
8
Calque 1
62
4
5
40b
100
AcDbEntity
100
AcDbLine
10
157.563840
20
185.012712
30
0.0
11
157.249777
21
185.913631
31
0.0
0
LINE
8
Calque 1
62
4
5
40c
100
AcDbEntity
100
AcDbLine
10
157.249777
20
185.913631
30
0.0
11
156.935715
21
187.048714
31
0.0
0
LINE
8
Calque 1
62
4
5
40d
100
AcDbEntity
100
AcDbLine
10
156.935715
20
187.048714
30
0.0
11
157.461475
21
187.568175
31
0.0
0
LINE
8
Calque 1
62
4
5
40e
100
AcDbEntity
100
AcDbLine
10
157.461475
20
187.568175
30
0.0
11
158.725534
21
188.488268
31
0.0
0
LINE
8
Calque 1
62
4
5
40f
100
AcDbEntity
100
AcDbLine
10
158.725534
20
188.488268
30
0.0
11
160.217238
21
189.631257
31
0.0
0
LINE
8
Calque 1
62
4
5
410
100
AcDbEntity
100
AcDbLine
10
160.217238
20
189.631257
30
0.0
11
160.357588
21
190.010816
31
0.0
0
LINE
8
Calque 1
62
4
5
411
100
AcDbEntity
100
AcDbLine
10
160.357588
20
190.010816
30
0.0
11
160.254239
21
190.469767
31
0.0
0
LINE
8
Calque 1
62
4
5
412
100
AcDbEntity
100
AcDbLine
10
160.254239
20
190.469767
30
0.0
11
160.023747
21
191.003320
31
0.0
0
LINE
8
Calque 1
62
4
5
413
100
AcDbEntity
100
AcDbLine
10
160.023747
20
191.003320
30
0.0
11
159.647028
21
191.190067
31
0.0
0
LINE
8
Calque 1
62
4
5
414
100
AcDbEntity
100
AcDbLine
10
159.647028
20
191.190067
30
0.0
11
158.880230
21
191.037241
31
0.0
0
LINE
8
Calque 1
62
4
5
415
100
AcDbEntity
100
AcDbLine
10
158.880230
20
191.037241
30
0.0
11
157.479503
21
190.552074
31
0.0
0
LINE
8
Calque 1
62
4
5
416
100
AcDbEntity
100
AcDbLine
10
157.479503
20
190.552074
30
0.0
11
155.556114
21
189.858268
31
0.0
0
LINE
8
Calque 1
62
4
5
417
100
AcDbEntity
100
AcDbLine
10
155.556114
20
189.858268
30
0.0
11
154.948176
21
190.841933
31
0.0
0
LINE
8
Calque 1
62
4
5
418
100
AcDbEntity
100
AcDbLine
10
154.948176
20
190.841933
30
0.0
11
154.340238
21
191.825599
31
0.0
0
LINE
8
Calque 1
62
4
5
419
100
AcDbEntity
100
AcDbLine
10
154.340238
20
191.825599
30
0.0
11
155.426308
21
193.115823
31
0.0
0
LINE
8
Calque 1
62
4
5
41a
100
AcDbEntity
100
AcDbLine
10
155.426308
20
193.115823
30
0.0
11
156.844112
21
194.973978
31
0.0
0
LINE
8
Calque 1
62
4
5
41b
100
AcDbEntity
100
AcDbLine
10
156.844112
20
194.973978
30
0.0
11
156.824247
21
195.384996
31
0.0
0
LINE
8
Calque 1
62
4
5
41c
100
AcDbEntity
100
AcDbLine
10
156.824247
20
195.384996
30
0.0
11
156.453727
21
195.804408
31
0.0
0
LINE
8
Calque 1
62
4
5
41d
100
AcDbEntity
100
AcDbLine
10
156.453727
20
195.804408
30
0.0
11
155.838466
21
196.419669
31
0.0
0
LINE
8
Calque 1
62
4
5
41e
100
AcDbEntity
100
AcDbLine
10
155.838466
20
196.419669
30
0.0
11
154.058758
21
195.249773
31
0.0
0
LINE
8
Calque 1
62
4
5
41f
100
AcDbEntity
100
AcDbLine
10
154.058758
20
195.249773
30
0.0
11
152.279048
21
194.079875
31
0.0
0
LINE
8
Calque 1
62
4
5
420
100
AcDbEntity
100
AcDbLine
10
152.279048
20
194.079875
30
0.0
11
151.440859
21
194.917603
31
0.0
0
LINE
8
Calque 1
62
4
5
421
100
AcDbEntity
100
AcDbLine
10
151.440859
20
194.917603
30
0.0
11
150.602671
21
195.755332
31
0.0
0
LINE
8
Calque 1
62
4
5
422
100
AcDbEntity
100
AcDbLine
10
150.602671
20
195.755332
30
0.0
11
151.525184
21
197.626096
31
0.0
0
LINE
8
Calque 1
62
4
5
423
100
AcDbEntity
100
AcDbLine
10
151.525184
20
197.626096
30
0.0
11
152.363373
21
199.557173
31
0.0
0
LINE
8
Calque 1
62
4
5
424
100
AcDbEntity
100
AcDbLine
10
152.363373
20
199.557173
30
0.0
11
151.511405
21
200.143131
31
0.0
0
LINE
8
Calque 1
62
4
5
425
100
AcDbEntity
100
AcDbLine
10
151.511405
20
200.143131
30
0.0
11
150.958393
21
200.272404
31
0.0
0
LINE
8
Calque 1
62
4
5
426
100
AcDbEntity
100
AcDbLine
10
150.958393
20
200.272404
30
0.0
11
150.398375
21
199.869874
31
0.0
0
LINE
8
Calque 1
62
4
5
427
100
AcDbEntity
100
AcDbLine
10
150.398375
20
199.869874
30
0.0
11
149.525386
21
198.860425
31
0.0
0
LINE
8
Calque 1
62
4
5
428
100
AcDbEntity
100
AcDbLine
10
149.525386
20
198.860425
30
0.0
11
148.117989
21
197.196192
31
0.0
0
LINE
8
Calque 1
62
4
5
429
100
AcDbEntity
100
AcDbLine
10
148.117989
20
197.196192
30
0.0
11
147.057878
21
197.737020
31
0.0
0
LINE
8
Calque 1
62
4
5
42a
100
AcDbEntity
100
AcDbLine
10
147.057878
20
197.737020
30
0.0
11
145.997763
21
198.277848
31
0.0
0
LINE
8
Calque 1
62
4
5
42b
100
AcDbEntity
100
AcDbLine
10
145.997763
20
198.277848
30
0.0
11
146.412901
21
200.295480
31
0.0
0
LINE
8
Calque 1
62
4
5
42c
100
AcDbEntity
100
AcDbLine
10
146.412901
20
200.295480
30
0.0
11
146.635143
21
201.545724
31
0.0
0
LINE
8
Calque 1
62
4
5
42d
100
AcDbEntity
100
AcDbLine
10
146.635143
20
201.545724
30
0.0
11
146.625679
21
202.283245
31
0.0
0
LINE
8
Calque 1
62
4
5
42e
100
AcDbEntity
100
AcDbLine
10
146.625679
20
202.283245
30
0.0
11
146.337403
21
202.688901
31
0.0
0
LINE
8
Calque 1
62
4
5
42f
100
AcDbEntity
100
AcDbLine
10
146.337403
20
202.688901
30
0.0
11
145.723212
21
202.943549
31
0.0
0
LINE
8
Calque 1
62
4
5
430
100
AcDbEntity
100
AcDbLine
10
145.723212
20
202.943549
30
0.0
11
145.361244
21
202.984606
31
0.0
0
LINE
8
Calque 1
62
4
5
431
100
AcDbEntity
100
AcDbLine
10
145.361244
20
202.984606
30
0.0
11
145.046095
21
202.788746
31
0.0
0
LINE
8
Calque 1
62
4
5
432
100
AcDbEntity
100
AcDbLine
10
145.046095
20
202.788746
30
0.0
11
144.180972
21
201.281934
31
0.0
0
LINE
8
Calque 1
62
4
5
433
100
AcDbEntity
100
AcDbLine
10
144.180972
20
201.281934
30
0.0
11
143.573660
21
200.161319
31
0.0
0
LINE
8
Calque 1
62
4
5
434
100
AcDbEntity
100
AcDbLine
10
143.573660
20
200.161319
30
0.0
11
143.043367
21
199.580579
31
0.0
0
LINE
8
Calque 1
62
4
5
435
100
AcDbEntity
100
AcDbLine
10
143.043367
20
199.580579
30
0.0
11
142.416234
21
199.429838
31
0.0
0
LINE
8
Calque 1
62
4
5
436
100
AcDbEntity
100
AcDbLine
10
142.416234
20
199.429838
30
0.0
11
141.518403
21
199.599218
31
0.0
0
LINE
8
Calque 1
62
4
5
437
100
AcDbEntity
100
AcDbLine
10
141.518403
20
199.599218
30
0.0
11
141.196085
21
199.758369
31
0.0
0
LINE
8
Calque 1
62
4
5
438
100
AcDbEntity
100
AcDbLine
10
141.196085
20
199.758369
30
0.0
11
140.987104
21
200.118665
31
0.0
0
LINE
8
Calque 1
62
4
5
439
100
AcDbEntity
100
AcDbLine
10
140.987104
20
200.118665
30
0.0
11
140.721472
21
202.010584
31
0.0
0
LINE
8
Calque 1
62
4
5
43a
100
AcDbEntity
100
AcDbLine
10
140.721472
20
202.010584
30
0.0
11
140.525187
21
204.260756
31
0.0
0
LINE
8
Calque 1
62
4
5
43b
100
AcDbEntity
100
AcDbLine
10
140.525187
20
204.260756
30
0.0
11
139.637843
21
204.173874
31
0.0
0
LINE
8
Calque 1
62
4
5
43c
100
AcDbEntity
100
AcDbLine
10
139.637843
20
204.173874
30
0.0
11
139.129028
21
204.085031
31
0.0
0
LINE
8
Calque 1
62
4
5
43d
100
AcDbEntity
100
AcDbLine
10
139.129028
20
204.085031
30
0.0
11
138.818741
21
203.828161
31
0.0
0
LINE
8
Calque 1
62
4
5
43e
100
AcDbEntity
100
AcDbLine
10
138.818741
20
203.828161
30
0.0
11
138.361095
21
202.111434
31
0.0
0
LINE
8
Calque 1
62
4
5
43f
100
AcDbEntity
100
AcDbLine
10
138.361095
20
202.111434
30
0.0
11
137.928703
21
200.097563
31
0.0
0
LINE
8
Calque 1
62
4
5
440
100
AcDbEntity
100
AcDbLine
10
137.928703
20
200.097563
30
0.0
11
136.716364
21
199.866175
31
0.0
0
LINE
8
Calque 1
62
4
5
441
100
AcDbEntity
100
AcDbLine
10
136.716364
20
199.866175
30
0.0
11
135.547013
21
199.673098
31
0.0
0
LINE
8
Calque 1
62
4
5
442
100
AcDbEntity
100
AcDbLine
10
135.547013
20
199.673098
30
0.0
11
134.858399
21
201.738934
31
0.0
0
LINE
8
Calque 1
62
4
5
443
100
AcDbEntity
100
AcDbLine
10
134.858399
20
201.738934
30
0.0
11
134.149818
21
203.498116
31
0.0
0
LINE
8
Calque 1
62
4
5
444
100
AcDbEntity
100
AcDbLine
10
134.149818
20
203.498116
30
0.0
11
133.817630
21
203.754330
31
0.0
0
LINE
8
Calque 1
62
4
5
445
100
AcDbEntity
100
AcDbLine
10
133.817630
20
203.754330
30
0.0
11
133.346642
21
203.804767
31
0.0
0
LINE
8
Calque 1
62
4
5
446
100
AcDbEntity
100
AcDbLine
10
133.346642
20
203.804767
30
0.0
11
132.523492
21
203.804767
31
0.0
0
LINE
8
Calque 1
62
4
5
447
100
AcDbEntity
100
AcDbLine
10
132.523492
20
203.804767
30
0.0
11
132.608244
21
201.492015
31
0.0
0
LINE
8
Calque 1
62
4
5
448
100
AcDbEntity
100
AcDbLine
10
132.608244
20
201.492015
30
0.0
11
132.692998
21
199.179266
31
0.0
0
LINE
8
Calque 1
62
4
5
449
100
AcDbEntity
100
AcDbLine
10
132.692998
20
199.179266
30
0.0
11
131.548093
21
198.836242
31
0.0
0
LINE
8
Calque 1
62
4
5
44a
100
AcDbEntity
100
AcDbLine
10
131.548093
20
198.836242
30
0.0
11
130.312614
21
198.608994
31
0.0
0
LINE
8
Calque 1
62
4
5
44b
100
AcDbEntity
100
AcDbLine
10
130.312614
20
198.608994
30
0.0
11
129.003541
21
200.488656
31
0.0
0
LINE
8
Calque 1
62
4
5
44c
100
AcDbEntity
100
AcDbLine
10
129.003541
20
200.488656
30
0.0
11
127.698102
21
202.252545
31
0.0
0
LINE
8
Calque 1
62
4
5
44d
100
AcDbEntity
100
AcDbLine
10
127.698102
20
202.252545
30
0.0
11
126.922349
21
201.938702
31
0.0
0
LINE
8
Calque 1
62
4
5
44e
100
AcDbEntity
100
AcDbLine
10
126.922349
20
201.938702
30
0.0
11
126.233538
21
201.624857
31
0.0
0
LINE
8
Calque 1
62
4
5
44f
100
AcDbEntity
100
AcDbLine
10
126.233538
20
201.624857
30
0.0
11
126.936765
21
199.533294
31
0.0
0
LINE
8
Calque 1
62
4
5
450
100
AcDbEntity
100
AcDbLine
10
126.936765
20
199.533294
30
0.0
11
127.393077
21
197.954416
31
0.0
0
LINE
8
Calque 1
62
4
5
451
100
AcDbEntity
100
AcDbLine
10
127.393077
20
197.954416
30
0.0
11
127.502655
21
197.095473
31
0.0
0
LINE
8
Calque 1
62
4
5
452
100
AcDbEntity
100
AcDbLine
10
127.502655
20
197.095473
30
0.0
11
126.542769
21
196.272202
31
0.0
0
LINE
8
Calque 1
62
4
5
453
100
AcDbEntity
100
AcDbLine
10
126.542769
20
196.272202
30
0.0
11
125.720218
21
195.795193
31
0.0
0
LINE
8
Calque 1
62
4
5
454
100
AcDbEntity
100
AcDbLine
10
125.720218
20
195.795193
30
0.0
11
123.996608
21
197.330535
31
0.0
0
LINE
8
Calque 1
62
4
5
455
100
AcDbEntity
100
AcDbLine
10
123.996608
20
197.330535
30
0.0
11
122.009208
21
198.865878
31
0.0
0
LINE
8
Calque 1
62
4
5
456
100
AcDbEntity
100
AcDbLine
10
122.009208
20
198.865878
30
0.0
11
121.291429
21
198.364222
31
0.0
0
LINE
8
Calque 1
62
4
5
457
100
AcDbEntity
100
AcDbLine
10
121.291429
20
198.364222
30
0.0
11
121.077516
21
198.038295
31
0.0
0
LINE
8
Calque 1
62
4
5
458
100
AcDbEntity
100
AcDbLine
10
121.077516
20
198.038295
30
0.0
11
121.115468
21
197.637273
31
0.0
0
LINE
8
Calque 1
62
4
5
459
100
AcDbEntity
100
AcDbLine
10
121.115468
20
197.637273
30
0.0
11
122.223541
21
195.869838
31
0.0
0
LINE
8
Calque 1
62
4
5
45a
100
AcDbEntity
100
AcDbLine
10
122.223541
20
195.869838
30
0.0
11
123.609648
21
193.877106
31
0.0
0
LINE
8
Calque 1
62
4
5
45b
100
AcDbEntity
100
AcDbLine
10
123.609648
20
193.877106
30
0.0
11
122.823120
21
192.934972
31
0.0
0
LINE
8
Calque 1
62
4
5
45c
100
AcDbEntity
100
AcDbLine
10
122.823120
20
192.934972
30
0.0
11
122.036592
21
191.992838
31
0.0
0
LINE
8
Calque 1
62
4
5
45d
100
AcDbEntity
100
AcDbLine
10
122.036592
20
191.992838
30
0.0
11
119.725460
21
193.077384
31
0.0
0
LINE
8
Calque 1
62
4
5
45e
100
AcDbEntity
100
AcDbLine
10
119.725460
20
193.077384
30
0.0
11
117.672943
21
193.940924
31
0.0
0
LINE
8
Calque 1
62
4
5
45f
100
AcDbEntity
100
AcDbLine
10
117.672943
20
193.940924
30
0.0
11
117.282260
21
193.905693
31
0.0
0
LINE
8
Calque 1
62
4
5
460
100
AcDbEntity
100
AcDbLine
10
117.282260
20
193.905693
30
0.0
11
117.005108
21
193.621128
31
0.0
0
LINE
8
Calque 1
62
4
5
461
100
AcDbEntity
100
AcDbLine
10
117.005108
20
193.621128
30
0.0
11
116.590250
21
192.939211
31
0.0
0
LINE
8
Calque 1
62
4
5
462
100
AcDbEntity
100
AcDbLine
10
116.590250
20
192.939211
30
0.0
11
118.415720
21
191.279423
31
0.0
0
LINE
8
Calque 1
62
4
5
463
100
AcDbEntity
100
AcDbLine
10
118.415720
20
191.279423
30
0.0
11
120.246826
21
189.525107
31
0.0
0
LINE
8
Calque 1
62
4
5
464
100
AcDbEntity
100
AcDbLine
10
120.246826
20
189.525107
30
0.0
11
119.794601
21
188.341148
31
0.0
0
LINE
8
Calque 1
62
4
5
465
100
AcDbEntity
100
AcDbLine
10
119.794601
20
188.341148
30
0.0
11
119.342377
21
187.392825
31
0.0
0
LINE
8
Calque 1
62
4
5
466
100
AcDbEntity
100
AcDbLine
10
119.342377
20
187.392825
30
0.0
11
116.760712
21
187.878651
31
0.0
0
LINE
8
Calque 1
62
4
5
467
100
AcDbEntity
100
AcDbLine
10
116.760712
20
187.878651
30
0.0
11
114.707830
21
188.184304
31
0.0
0
LINE
8
Calque 1
62
4
5
468
100
AcDbEntity
100
AcDbLine
10
114.707830
20
188.184304
30
0.0
11
114.203715
21
188.167216
31
0.0
0
LINE
8
Calque 1
62
4
5
469
100
AcDbEntity
100
AcDbLine
10
114.203715
20
188.167216
30
0.0
11
113.971702
21
188.041290
31
0.0
0
LINE
8
Calque 1
62
4
5
46a
100
AcDbEntity
100
AcDbLine
10
113.971702
20
188.041290
30
0.0
11
113.767096
21
187.491317
31
0.0
0
LINE
8
Calque 1
62
4
5
46b
100
AcDbEntity
100
AcDbLine
10
113.767096
20
187.491317
30
0.0
11
113.983799
21
186.987233
31
0.0
0
LINE
8
Calque 1
62
4
5
46c
100
AcDbEntity
100
AcDbLine
10
113.983799
20
186.987233
30
0.0
11
114.704901
21
186.435491
31
0.0
0
LINE
8
Calque 1
62
4
5
46d
100
AcDbEntity
100
AcDbLine
10
114.704901
20
186.435491
30
0.0
11
116.013492
21
185.742545
31
0.0
0
LINE
8
Calque 1
62
4
5
46e
100
AcDbEntity
100
AcDbLine
10
116.013492
20
185.742545
30
0.0
11
117.925940
21
184.678402
31
0.0
0
LINE
8
Calque 1
62
4
5
46f
100
AcDbEntity
100
AcDbLine
10
117.925940
20
184.678402
30
0.0
11
118.210617
21
184.280473
31
0.0
0
LINE
8
Calque 1
62
4
5
470
100
AcDbEntity
100
AcDbLine
10
118.210617
20
184.280473
30
0.0
11
118.266949
21
183.781038
31
0.0
0
LINE
8
Calque 1
62
4
5
471
100
AcDbEntity
100
AcDbLine
10
118.266949
20
183.781038
30
0.0
11
118.053307
21
182.591296
31
0.0
0
LINE
8
Calque 1
62
4
5
472
100
AcDbEntity
100
AcDbLine
10
118.053307
20
182.591296
30
0.0
11
117.120983
21
182.289674
31
0.0
0
LINE
8
Calque 1
62
4
5
473
100
AcDbEntity
100
AcDbLine
10
117.120983
20
182.289674
30
0.0
11
115.164850
21
182.026852
31
0.0
0
LINE
8
Calque 1
62
4
5
474
100
AcDbEntity
100
AcDbLine
10
115.164850
20
182.026852
30
0.0
11
112.844886
21
181.725249
31
0.0
0
LINE
8
Calque 1
62
4
5
475
100
AcDbEntity
100
AcDbLine
10
112.844886
20
181.725249
30
0.0
11
112.504615
21
181.484445
31
0.0
0
LINE
8
Calque 1
62
4
5
476
100
AcDbEntity
100
AcDbLine
10
112.504615
20
181.484445
30
0.0
11
112.402431
21
181.077677
31
0.0
0
LINE
8
Calque 1
62
4
5
477
100
AcDbEntity
100
AcDbLine
10
112.402431
20
181.077677
30
0.0
11
112.412219
21
180.664099
31
0.0
0
LINE
8
Calque 1
62
4
5
478
100
AcDbEntity
100
AcDbLine
10
112.412219
20
180.664099
30
0.0
11
112.712250
21
180.385664
31
0.0
0
LINE
8
Calque 1
62
4
5
479
100
AcDbEntity
100
AcDbLine
10
112.712250
20
180.385664
30
0.0
11
115.083542
21
179.807677
31
0.0
0
LINE
8
Calque 1
62
4
5
47a
100
AcDbEntity
100
AcDbLine
10
115.083542
20
179.807677
30
0.0
11
117.847937
21
179.251434
31
0.0
0
LINE
8
Calque 1
62
4
5
47b
100
AcDbEntity
100
AcDbLine
10
117.847937
20
179.251434
30
0.0
11
117.933340
21
178.080208
31
0.0
0
LINE
8
Calque 1
62
4
5
47c
100
AcDbEntity
100
AcDbLine
10
117.933340
20
178.080208
30
0.0
11
118.018743
21
176.908983
31
0.0
0
LINE
8
Calque 1
62
4
5
47d
100
AcDbEntity
100
AcDbLine
10
118.018743
20
176.908983
30
0.0
11
115.306898
21
176.005534
31
0.0
0
LINE
8
Calque 1
62
4
5
47e
100
AcDbEntity
100
AcDbLine
10
115.306898
20
176.005534
30
0.0
11
113.069004
21
175.152388
31
0.0
0
LINE
8
Calque 1
62
4
5
47f
100
AcDbEntity
100
AcDbLine
10
113.069004
20
175.152388
30
0.0
11
112.723333
21
174.845118
31
0.0
0
LINE
8
Calque 1
62
4
5
480
100
AcDbEntity
100
AcDbLine
10
112.723333
20
174.845118
30
0.0
11
112.681495
21
174.495645
31
0.0
0
LINE
8
Calque 1
62
4
5
481
100
AcDbEntity
100
AcDbLine
10
112.681495
20
174.495645
30
0.0
11
112.794066
21
174.156819
31
0.0
0
LINE
8
Calque 1
62
4
5
482
100
AcDbEntity
100
AcDbLine
10
112.794066
20
174.156819
30
0.0
11
113.177065
21
173.983419
31
0.0
0
LINE
8
Calque 1
62
4
5
483
100
AcDbEntity
100
AcDbLine
10
113.177065
20
173.983419
30
0.0
11
115.772497
21
173.954718
31
0.0
0
LINE
8
Calque 1
62
4
5
484
100
AcDbEntity
100
AcDbLine
10
115.772497
20
173.954718
30
0.0
11
118.405587
21
173.923300
31
0.0
0
LINE
8
Calque 1
62
4
5
485
100
AcDbEntity
100
AcDbLine
10
118.405587
20
173.923300
30
0.0
11
118.795876
21
173.730024
31
0.0
0
LINE
8
Calque 1
62
4
5
486
100
AcDbEntity
100
AcDbLine
10
118.795876
20
173.730024
30
0.0
11
118.946295
21
173.345936
31
0.0
0
LINE
8
Calque 1
62
4
5
487
100
AcDbEntity
100
AcDbLine
10
118.946295
20
173.345936
30
0.0
11
119.281332
21
172.239572
31
0.0
0
LINE
8
Calque 1
62
4
5
488
100
AcDbEntity
100
AcDbLine
10
119.281332
20
172.239572
30
0.0
11
119.223345
21
171.952041
31
0.0
0
LINE
8
Calque 1
62
4
5
489
100
AcDbEntity
100
AcDbLine
10
119.223345
20
171.952041
30
0.0
11
118.849427
21
171.534991
31
0.0
0
LINE
8
Calque 1
62
4
5
48a
100
AcDbEntity
100
AcDbLine
10
118.849427
20
171.534991
30
0.0
11
117.024760
21
170.195433
31
0.0
0
LINE
8
Calque 1
62
4
5
48b
100
AcDbEntity
100
AcDbLine
10
117.024760
20
170.195433
30
0.0
11
114.602381
21
168.397455
31
0.0
0
LINE
8
Calque 1
62
4
5
48c
100
AcDbEntity
100
AcDbLine
10
114.602381
20
168.397455
30
0.0
11
114.955159
21
167.732931
31
0.0
0
LINE
8
Calque 1
62
4
5
48d
100
AcDbEntity
100
AcDbLine
10
114.955159
20
167.732931
30
0.0
11
115.219568
21
167.496960
31
0.0
0
LINE
8
Calque 1
62
4
5
48e
100
AcDbEntity
100
AcDbLine
10
115.219568
20
167.496960
30
0.0
11
115.673069
21
167.477602
31
0.0
0
LINE
8
Calque 1
62
4
5
48f
100
AcDbEntity
100
AcDbLine
10
115.673069
20
167.477602
30
0.0
11
118.046619
21
168.234680
31
0.0
0
LINE
8
Calque 1
62
4
5
490
100
AcDbEntity
100
AcDbLine
10
118.046619
20
168.234680
30
0.0
11
120.785303
21
169.215036
31
0.0
0
LINE
8
Calque 1
62
4
5
491
100
AcDbEntity
100
AcDbLine
10
120.785303
20
169.215036
30
0.0
11
121.362730
21
168.404112
31
0.0
0
LINE
8
Calque 1
62
4
5
492
100
AcDbEntity
100
AcDbLine
10
121.362730
20
168.404112
30
0.0
11
121.940159
21
167.331854
31
0.0
0
LINE
8
Calque 1
62
4
5
493
100
AcDbEntity
100
AcDbLine
10
121.940159
20
167.331854
30
0.0
11
120.112688
21
164.976532
31
0.0
0
LINE
8
Calque 1
62
4
5
494
100
AcDbEntity
100
AcDbLine
10
120.112688
20
164.976532
30
0.0
11
118.845648
21
163.420674
31
0.0
0
LINE
8
Calque 1
62
4
5
495
100
AcDbEntity
100
AcDbLine
10
118.845648
20
163.420674
30
0.0
11
118.365597
21
162.620484
31
0.0
0
LINE
8
Calque 1
62
4
5
496
100
AcDbEntity
100
AcDbLine
10
118.365597
20
162.620484
30
0.0
11
118.871173
21
162.090217
31
0.0
0
LINE
8
Calque 1
62
4
5
497
100
AcDbEntity
100
AcDbLine
10
118.871173
20
162.090217
30
0.0
11
119.198091
21
162.048892
31
0.0
0
LINE
8
Calque 1
62
4
5
498
100
AcDbEntity
100
AcDbLine
10
119.198091
20
162.048892
30
0.0
11
119.746215
21
162.243393
31
0.0
0
LINE
8
Calque 1
62
4
5
499
100
AcDbEntity
100
AcDbLine
10
119.746215
20
162.243393
30
0.0
11
121.753582
21
163.457254
31
0.0
0
LINE
8
Calque 1
62
4
5
49a
100
AcDbEntity
100
AcDbLine
10
121.753582
20
163.457254
30
0.0
11
124.210795
21
165.092494
31
0.0
0
LINE
8
Calque 1
62
4
5
49b
100
AcDbEntity
100
AcDbLine
10
124.210795
20
165.092494
30
0.0
11
125.032005
21
164.305726
31
0.0
0
LINE
8
Calque 1
62
4
5
49c
100
AcDbEntity
100
AcDbLine
10
125.032005
20
164.305726
30
0.0
11
125.853215
21
163.518956
31
0.0
0
LINE
8
Calque 1
62
4
5
49d
100
AcDbEntity
100
AcDbLine
10
125.853215
20
163.518956
30
0.0
11
124.531687
21
160.851750
31
0.0
0
LINE
8
Calque 1
62
4
5
49e
100
AcDbEntity
100
AcDbLine
10
124.531687
20
160.851750
30
0.0
11
123.458710
21
158.481108
31
0.0
0
LINE
8
Calque 1
62
4
5
49f
100
AcDbEntity
100
AcDbLine
10
123.458710
20
158.481108
30
0.0
11
123.476609
21
158.053941
31
0.0
0
LINE
8
Calque 1
62
4
5
4a0
100
AcDbEntity
100
AcDbLine
10
123.476609
20
158.053941
30
0.0
11
123.774604
21
157.767634
31
0.0
0
LINE
8
Calque 1
62
4
5
4a1
100
AcDbEntity
100
AcDbLine
10
123.774604
20
157.767634
30
0.0
11
124.187406
21
157.562477
31
0.0
0
LINE
8
Calque 1
62
4
5
4a2
100
AcDbEntity
100
AcDbLine
10
124.187406
20
157.562477
30
0.0
11
124.693526
21
157.797264
31
0.0
0
LINE
8
Calque 1
62
4
5
4a3
100
AcDbEntity
100
AcDbLine
10
124.693526
20
157.797264
30
0.0
11
127.174650
21
160.564786
31
0.0
0
LINE
8
Calque 1
62
4
5
4a4
100
AcDbEntity
100
AcDbLine
10
127.174650
20
160.564786
30
0.0
11
128.316922
21
161.913743
31
0.0
0
LINE
8
Calque 1
62
4
5
4a5
100
AcDbEntity
100
AcDbLine
10
128.316922
20
161.913743
30
0.0
11
129.361873
21
161.477134
31
0.0
0
LINE
8
Calque 1
62
4
5
4a6
100
AcDbEntity
100
AcDbLine
10
129.361873
20
161.477134
30
0.0
11
130.405886
21
160.973757
31
0.0
0
LINE
8
Calque 1
62
4
5
4a7
100
AcDbEntity
100
AcDbLine
10
130.405886
20
160.973757
30
0.0
11
129.860017
21
158.098319
31
0.0
0
LINE
8
Calque 1
62
4
5
4a8
100
AcDbEntity
100
AcDbLine
10
129.860017
20
158.098319
30
0.0
11
129.433224
21
155.098497
31
0.0
0
LINE
8
Calque 1
62
4
5
4a9
100
AcDbEntity
100
AcDbLine
10
129.433224
20
155.098497
30
0.0
11
130.075452
21
154.770293
31
0.0
0
LINE
8
Calque 1
62
4
5
4aa
100
AcDbEntity
100
AcDbLine
10
130.075452
20
154.770293
30
0.0
11
130.392070
21
154.813423
31
0.0
0
LINE
8
Calque 1
62
4
5
4ab
100
AcDbEntity
100
AcDbLine
10
130.392070
20
154.813423
30
0.0
11
130.753975
21
155.177522
31
0.0
0
LINE
8
Calque 1
62
4
5
4ac
100
AcDbEntity
100
AcDbLine
10
130.753975
20
155.177522
30
0.0
11
131.912439
21
157.276226
31
0.0
0
LINE
8
Calque 1
62
4
5
4ad
100
AcDbEntity
100
AcDbLine
10
131.912439
20
157.276226
30
0.0
11
133.138763
21
159.490760
31
0.0
0
LINE
8
Calque 1
62
4
5
4ae
100
AcDbEntity
100
AcDbLine
10
133.138763
20
159.490760
30
0.0
11
133.547137
21
159.839396
31
0.0
0
LINE
8
Calque 1
62
4
5
4af
100
AcDbEntity
100
AcDbLine
10
133.547137
20
159.839396
30
0.0
11
134.003305
21
159.914890
31
0.0
0
LINE
8
Calque 1
62
4
5
4b0
100
AcDbEntity
100
AcDbLine
10
134.003305
20
159.914890
30
0.0
11
134.809751
21
159.820166
31
0.0
0
LINE
8
Calque 1
62
4
5
4b1
100
AcDbEntity
100
AcDbLine
10
134.809751
20
159.820166
30
0.0
11
135.278909
21
159.390096
31
0.0
0
LINE
8
Calque 1
62
4
5
4b2
100
AcDbEntity
100
AcDbLine
10
135.278909
20
159.390096
30
0.0
11
135.529294
21
158.388943
31
0.0
0
LINE
8
Calque 1
62
4
5
4b3
100
AcDbEntity
100
AcDbLine
10
135.529294
20
158.388943
30
0.0
11
135.679426
21
156.580971
31
0.0
0
LINE
8
Calque 1
62
4
5
4b4
100
AcDbEntity
100
AcDbLine
10
135.679426
20
156.580971
30
0.0
11
135.854313
21
153.710322
31
0.0
0
LINE
8
Calque 1
62
4
5
4b5
100
AcDbEntity
100
AcDbLine
10
135.854313
20
153.710322
30
0.0
11
136.629388
21
153.710322
31
0.0
0
LINE
8
Calque 1
62
4
5
4b6
100
AcDbEntity
100
AcDbLine
10
136.629388
20
153.710322
30
0.0
11
137.080951
21
153.763574
31
0.0
0
LINE
8
Calque 1
62
4
5
4b7
100
AcDbEntity
100
AcDbLine
10
137.080951
20
153.763574
30
0.0
11
137.373371
21
154.093392
31
0.0
0
LINE
8
Calque 1
62
4
5
4b8
100
AcDbEntity
100
AcDbLine
10
137.373371
20
154.093392
30
0.0
11
137.944753
21
156.603100
31
0.0
0
LINE
8
Calque 1
62
4
5
4b9
100
AcDbEntity
100
AcDbLine
10
137.944753
20
156.603100
30
0.0
11
137.944753
21
156.603100
31
0.0
  0
ENDSEC
  0
SECTION
  2
OBJECTS
  0
DICTIONARY
  5
C
330
0
100
AcDbDictionary
  3
ACAD_GROUP
350
D
  3
ACAD_MLINESTYLE
350
17
  0
DICTIONARY
  5
D
330
C
100
AcDbDictionary
  0
DICTIONARY
  5
1A
330
C
100
AcDbDictionary
  0
DICTIONARY
  5
17
330
C
100
AcDbDictionary
  3
STANDARD
350
18
  0
DICTIONARY
  5
19
330
C
100
AcDbDictionary
  0
ENDSEC
  0
EOF
