999
Inkscape export via "Better Better DXF Output" (http://tim.cexx.org/?p=590)
  0
SECTION
  2
HEADER
  9
$ACADVER
  1
AC1014
  9
$HANDSEED
  5
FFFF
  0
ENDSEC
  0
SECTION
  2
TABLES
  0
TABLE
  2
VPORT
  5
8
330
0
100
AcDbSymbolTable
 70
     4
  0
VPORT
  5
2E
330
8
100
AcDbSymbolTableRecord
100
AcDbViewportTableRecord
  2
*ACTIVE
 70
     0
 10
0.0
 20
0.0
 11
1.0
 21
1.0
 12
4.25
 22
5.5
 13
0.0
 23
0.0
 14
10.0
 24
10.0
 15
10.0
 25
10.0
 16
0.0
 26
0.0
 36
1.0
 17
0.0
 27
0.0
 37
0.0
 40
11
 41
1.24
 42
50.0
 43
0.0
 44
0.0
 50
0.0
 51
0.0
 71
     0
 72
   100
 73
     1
 74
     3
 75
     0
 76
     0
 77
     0
 78
     0
  0
ENDTAB
  0
TABLE
  2
LTYPE
  5
5
330
0
100
AcDbSymbolTable
 70
     1
  0
LTYPE
  5
14
330
5
100
AcDbSymbolTableRecord
100
AcDbLinetypeTableRecord
  2
BYBLOCK
 70
     0
  3

 72
    65
 73
     0
 40
0.0
  0
LTYPE
  5
15
330
5
100
AcDbSymbolTableRecord
100
AcDbLinetypeTableRecord
  2
BYLAYER
 70
     0
  3

 72
    65
 73
     0
 40
0.0
  0
LTYPE
  5
16
330
5
100
AcDbSymbolTableRecord
100
AcDbLinetypeTableRecord
  2
CONTINUOUS
 70
     0
  3
Solid line
 72
    65
 73
     0
 40
0.0
  0
ENDTAB
  0
TABLE
  2
STYLE
  5
3
330
0
100
AcDbSymbolTable
 70
     1
  0
STYLE
  5
11
330
3
100
AcDbSymbolTableRecord
100
AcDbTextStyleTableRecord
  2
STANDARD
 70
     0
 40
0.0
 41
1.0
 50
0.0
 71
     0
 42
2.5
  3
txt
  4

  0
ENDTAB
  0
TABLE
  2
VIEW
  5
6
330
0
100
AcDbSymbolTable
 70
     0
  0
ENDTAB
  0
TABLE
  2
UCS
  5
7
330
0
100
AcDbSymbolTable
 70
     0
  0
ENDTAB
  0
TABLE
  2
APPID
  5
9
330
0
100
AcDbSymbolTable
 70
     2
  0
APPID
  5
12
330
9
100
AcDbSymbolTableRecord
100
AcDbRegAppTableRecord
  2
ACAD
 70
     0
  0
ENDTAB
  0
TABLE
  2
DIMSTYLE
  5
A
330
0
100
AcDbSymbolTable
 70
     1
  0
DIMSTYLE
105
27
330
A
100
AcDbSymbolTableRecord
100
AcDbDimStyleTableRecord
  2
ISO-25
 70
     0
  3

  4

  5

  6

  7

 40
1.0
 41
2.5
 42
0.625
 43
3.75
 44
1.25
 45
0.0
 46
0.0
 47
0.0
 48
0.0
140
2.5
141
2.5
142
0.0
143
0.03937007874016
144
1.0
145
0.0
146
1.0
147
0.625
 71
     0
 72
     0
 73
     0
 74
     0
 75
     0
 76
     0
 77
     1
 78
     8
170
     0
171
     3
172
     1
173
     0
174
     0
175
     0
176
     0
177
     0
178
     0
270
     2
271
     2
272
     2
273
     2
274
     3
340
11
275
     0
280
     0
281
     0
282
     0
283
     0
284
     8
285
     0
286
     0
287
     3
288
     0
  0
ENDTAB
  0
TABLE
  2
BLOCK_RECORD
  5
1
330
0
100
AcDbSymbolTable
 70
     1
  0
BLOCK_RECORD
  5
1F
330
1
100
AcDbSymbolTableRecord
100
AcDbBlockTableRecord
  2
*MODEL_SPACE
  0
BLOCK_RECORD
  5
1B
330
1
100
AcDbSymbolTableRecord
100
AcDbBlockTableRecord
  2
*PAPER_SPACE
  0
ENDTAB
0
TABLE
2
LAYER
5
2
330
0
100
AcDbSymbolTable
70
1
0
LAYER
5
10
330
2
100
AcDbSymbolTableRecord
100
AcDbLayerTableRecord
2
Default
70
0
62
7
6
CONTINUOUS
0
ENDTAB
0
ENDSEC
  0
SECTION
  2
BLOCKS
  0
BLOCK
  5
20
330
1F
100
AcDbEntity
  8
0
100
AcDbBlockBegin
  2
*MODEL_SPACE
 70
     0
 10
0.0
 20
0.0
 30
0.0
  3
*MODEL_SPACE
  1

  0
ENDBLK
  5
21
330
1F
100
AcDbEntity
  8
0
100
AcDbBlockEnd
  0
BLOCK
  5
1C
330
1B
100
AcDbEntity
 67
     1
  8
0
100
AcDbBlockBegin
  2
*PAPER_SPACE
  1

  0
ENDBLK
  5
1D
330
1B
100
AcDbEntity
 67
     1
  8
0
100
AcDbBlockEnd
  0
ENDSEC
  0
SECTION
  2
ENTITIES
0
LINE
8
Default
62
4
5
100
100
AcDbEntity
100
AcDbLine
10
27.640190
20
4.727389
30
0.0
11
19.064512
21
13.202192
31
0.0
0
LINE
8
Default
62
4
5
101
100
AcDbEntity
100
AcDbLine
10
19.064512
20
13.202192
30
0.0
11
15.410135
21
16.949603
31
0.0
0
LINE
8
Default
62
4
5
102
100
AcDbEntity
100
AcDbLine
10
15.410135
20
16.949603
30
0.0
11
15.940380
21
17.858692
31
0.0
0
LINE
8
Default
62
4
5
103
100
AcDbEntity
100
AcDbLine
10
15.940380
20
17.858692
30
0.0
11
21.634378
21
26.454233
31
0.0
0
LINE
8
Default
62
4
5
104
100
AcDbEntity
100
AcDbLine
10
21.634378
20
26.454233
30
0.0
11
26.798133
21
34.140685
31
0.0
0
LINE
8
Default
62
4
5
105
100
AcDbEntity
100
AcDbLine
10
26.798133
20
34.140685
30
0.0
11
25.934965
21
36.614233
31
0.0
0
LINE
8
Default
62
4
5
106
100
AcDbEntity
100
AcDbLine
10
25.934965
20
36.614233
30
0.0
11
23.429937
21
42.959350
31
0.0
0
LINE
8
Default
62
4
5
107
100
AcDbEntity
100
AcDbLine
10
23.429937
20
42.959350
30
0.0
11
21.196102
21
47.866427
31
0.0
0
LINE
8
Default
62
4
5
108
100
AcDbEntity
100
AcDbLine
10
21.196102
20
47.866427
30
0.0
11
20.678273
21
48.504849
31
0.0
0
LINE
8
Default
62
4
5
109
100
AcDbEntity
100
AcDbLine
10
20.678273
20
48.504849
30
0.0
11
19.302982
21
49.054796
31
0.0
0
LINE
8
Default
62
4
5
10a
100
AcDbEntity
100
AcDbLine
10
19.302982
20
49.054796
30
0.0
11
9.224291
21
51.222402
31
0.0
0
LINE
8
Default
62
4
5
10b
100
AcDbEntity
100
AcDbLine
10
9.224291
20
51.222402
30
0.0
11
0.441948
21
53.099784
31
0.0
0
LINE
8
Default
62
4
5
10c
100
AcDbEntity
100
AcDbLine
10
0.441948
20
53.099784
30
0.0
11
0.248769
21
65.311974
31
0.0
0
LINE
8
Default
62
4
5
10d
100
AcDbEntity
100
AcDbLine
10
0.248769
20
65.311974
30
0.0
11
0.141111
21
77.425056
31
0.0
0
LINE
8
Default
62
4
5
10e
100
AcDbEntity
100
AcDbLine
10
0.141111
20
77.425056
30
0.0
11
2.963333
21
77.944972
31
0.0
0
LINE
8
Default
62
4
5
10f
100
AcDbEntity
100
AcDbLine
10
2.963333
20
77.944972
30
0.0
11
14.498729
21
80.180298
31
0.0
0
LINE
8
Default
62
4
5
110
100
AcDbEntity
100
AcDbLine
10
14.498729
20
80.180298
30
0.0
11
20.902592
21
81.573723
31
0.0
0
LINE
8
Default
62
4
5
111
100
AcDbEntity
100
AcDbLine
10
20.902592
20
81.573723
30
0.0
11
21.679363
21
82.621808
31
0.0
0
LINE
8
Default
62
4
5
112
100
AcDbEntity
100
AcDbLine
10
21.679363
20
82.621808
30
0.0
11
22.960695
21
84.955043
31
0.0
0
LINE
8
Default
62
4
5
113
100
AcDbEntity
100
AcDbLine
10
22.960695
20
84.955043
30
0.0
11
25.956167
21
91.379641
31
0.0
0
LINE
8
Default
62
4
5
114
100
AcDbEntity
100
AcDbLine
10
25.956167
20
91.379641
30
0.0
11
27.408989
21
94.847057
31
0.0
0
LINE
8
Default
62
4
5
115
100
AcDbEntity
100
AcDbLine
10
27.408989
20
94.847057
30
0.0
11
26.775041
21
95.895197
31
0.0
0
LINE
8
Default
62
4
5
116
100
AcDbEntity
100
AcDbLine
10
26.775041
20
95.895197
30
0.0
11
20.660605
21
105.094938
31
0.0
0
LINE
8
Default
62
4
5
117
100
AcDbEntity
100
AcDbLine
10
20.660605
20
105.094938
30
0.0
11
15.180117
21
113.246546
31
0.0
0
LINE
8
Default
62
4
5
118
100
AcDbEntity
100
AcDbLine
10
15.180117
20
113.246546
30
0.0
11
20.219503
21
118.316451
31
0.0
0
LINE
8
Default
62
4
5
119
100
AcDbEntity
100
AcDbLine
10
20.219503
20
118.316451
30
0.0
11
28.043197
21
125.900481
31
0.0
0
LINE
8
Default
62
4
5
11a
100
AcDbEntity
100
AcDbLine
10
28.043197
20
125.900481
30
0.0
11
30.627117
21
128.151452
31
0.0
0
LINE
8
Default
62
4
5
11b
100
AcDbEntity
100
AcDbLine
10
30.627117
20
128.151452
30
0.0
11
32.227751
21
129.285540
31
0.0
0
LINE
8
Default
62
4
5
11c
100
AcDbEntity
100
AcDbLine
10
32.227751
20
129.285540
30
0.0
11
33.343348
21
129.854674
31
0.0
0
LINE
8
Default
62
4
5
11d
100
AcDbEntity
100
AcDbLine
10
33.343348
20
129.854674
30
0.0
11
34.804452
21
128.931354
31
0.0
0
LINE
8
Default
62
4
5
11e
100
AcDbEntity
100
AcDbLine
10
34.804452
20
128.931354
30
0.0
11
43.733652
21
123.102807
31
0.0
0
LINE
8
Default
62
4
5
11f
100
AcDbEntity
100
AcDbLine
10
43.733652
20
123.102807
30
0.0
11
51.201752
21
118.197578
31
0.0
0
LINE
8
Default
62
4
5
120
100
AcDbEntity
100
AcDbLine
10
51.201752
20
118.197578
30
0.0
11
52.280984
21
118.520925
31
0.0
0
LINE
8
Default
62
4
5
121
100
AcDbEntity
100
AcDbLine
10
52.280984
20
118.520925
30
0.0
11
56.378851
21
120.144646
31
0.0
0
LINE
8
Default
62
4
5
122
100
AcDbEntity
100
AcDbLine
10
56.378851
20
120.144646
30
0.0
11
62.710452
21
122.875252
31
0.0
0
LINE
8
Default
62
4
5
123
100
AcDbEntity
100
AcDbLine
10
62.710452
20
122.875252
30
0.0
11
63.821844
21
123.421622
31
0.0
0
LINE
8
Default
62
4
5
124
100
AcDbEntity
100
AcDbLine
10
63.821844
20
123.421622
30
0.0
11
64.196173
21
123.846906
31
0.0
0
LINE
8
Default
62
4
5
125
100
AcDbEntity
100
AcDbLine
10
64.196173
20
123.846906
30
0.0
11
64.517969
21
124.578187
31
0.0
0
LINE
8
Default
62
4
5
126
100
AcDbEntity
100
AcDbLine
10
64.517969
20
124.578187
30
0.0
11
65.209090
21
127.572528
31
0.0
0
LINE
8
Default
62
4
5
127
100
AcDbEntity
100
AcDbLine
10
65.209090
20
127.572528
30
0.0
11
66.305467
21
133.632222
31
0.0
0
LINE
8
Default
62
4
5
128
100
AcDbEntity
100
AcDbLine
10
66.305467
20
133.632222
30
0.0
11
68.071073
21
143.057357
31
0.0
0
LINE
8
Default
62
4
5
129
100
AcDbEntity
100
AcDbLine
10
68.071073
20
143.057357
30
0.0
11
68.480229
21
144.521491
31
0.0
0
LINE
8
Default
62
4
5
12a
100
AcDbEntity
100
AcDbLine
10
68.480229
20
144.521491
30
0.0
11
68.818379
21
144.919384
31
0.0
0
LINE
8
Default
62
4
5
12b
100
AcDbEntity
100
AcDbLine
10
68.818379
20
144.919384
30
0.0
11
70.728912
21
145.213016
31
0.0
0
LINE
8
Default
62
4
5
12c
100
AcDbEntity
100
AcDbLine
10
70.728912
20
145.213016
30
0.0
11
74.415716
21
145.433853
31
0.0
0
LINE
8
Default
62
4
5
12d
100
AcDbEntity
100
AcDbLine
10
74.415716
20
145.433853
30
0.0
11
84.941173
21
145.569377
31
0.0
0
LINE
8
Default
62
4
5
12e
100
AcDbEntity
100
AcDbLine
10
84.941173
20
145.569377
30
0.0
11
93.541235
21
145.485556
31
0.0
0
LINE
8
Default
62
4
5
12f
100
AcDbEntity
100
AcDbLine
10
93.541235
20
145.485556
30
0.0
11
93.741460
21
144.356667
31
0.0
0
LINE
8
Default
62
4
5
130
100
AcDbEntity
100
AcDbLine
10
93.741460
20
144.356667
30
0.0
11
95.375657
21
134.902222
31
0.0
0
LINE
8
Default
62
4
5
131
100
AcDbEntity
100
AcDbLine
10
95.375657
20
134.902222
30
0.0
11
97.224619
21
125.138089
31
0.0
0
LINE
8
Default
62
4
5
132
100
AcDbEntity
100
AcDbLine
10
97.224619
20
125.138089
30
0.0
11
97.639604
21
123.699511
31
0.0
0
LINE
8
Default
62
4
5
133
100
AcDbEntity
100
AcDbLine
10
97.639604
20
123.699511
30
0.0
11
100.254802
21
122.477721
31
0.0
0
LINE
8
Default
62
4
5
134
100
AcDbEntity
100
AcDbLine
10
100.254802
20
122.477721
30
0.0
11
106.770464
21
119.651011
31
0.0
0
LINE
8
Default
62
4
5
135
100
AcDbEntity
100
AcDbLine
10
106.770464
20
119.651011
30
0.0
11
110.670927
21
118.046092
31
0.0
0
LINE
8
Default
62
4
5
136
100
AcDbEntity
100
AcDbLine
10
110.670927
20
118.046092
30
0.0
11
119.972387
21
124.277167
31
0.0
0
LINE
8
Default
62
4
5
137
100
AcDbEntity
100
AcDbLine
10
119.972387
20
124.277167
30
0.0
11
129.273850
21
130.508242
31
0.0
0
LINE
8
Default
62
4
5
138
100
AcDbEntity
100
AcDbLine
10
129.273850
20
130.508242
30
0.0
11
137.873590
21
121.911967
31
0.0
0
LINE
8
Default
62
4
5
139
100
AcDbEntity
100
AcDbLine
10
137.873590
20
121.911967
30
0.0
11
146.473333
21
113.075421
31
0.0
0
LINE
8
Default
62
4
5
13a
100
AcDbEntity
100
AcDbLine
10
146.473333
20
113.075421
30
0.0
11
143.172671
21
107.993685
31
0.0
0
LINE
8
Default
62
4
5
13b
100
AcDbEntity
100
AcDbLine
10
143.172671
20
107.993685
30
0.0
11
136.139541
21
97.570997
31
0.0
0
LINE
8
Default
62
4
5
13c
100
AcDbEntity
100
AcDbLine
10
136.139541
20
97.570997
30
0.0
11
134.922557
21
95.604192
31
0.0
0
LINE
8
Default
62
4
5
13d
100
AcDbEntity
100
AcDbLine
10
134.922557
20
95.604192
30
0.0
11
134.620000
21
94.849690
31
0.0
0
LINE
8
Default
62
4
5
13e
100
AcDbEntity
100
AcDbLine
10
134.620000
20
94.849690
30
0.0
11
134.863879
21
93.867878
31
0.0
0
LINE
8
Default
62
4
5
13f
100
AcDbEntity
100
AcDbLine
10
134.863879
20
93.867878
30
0.0
11
135.513836
21
92.178465
31
0.0
0
LINE
8
Default
62
4
5
140
100
AcDbEntity
100
AcDbLine
10
135.513836
20
92.178465
30
0.0
11
137.541914
21
87.694687
31
0.0
0
LINE
8
Default
62
4
5
141
100
AcDbEntity
100
AcDbLine
10
137.541914
20
87.694687
30
0.0
11
139.724087
21
83.434058
31
0.0
0
LINE
8
Default
62
4
5
142
100
AcDbEntity
100
AcDbLine
10
139.724087
20
83.434058
30
0.0
11
140.566663
21
82.023580
31
0.0
0
LINE
8
Default
62
4
5
143
100
AcDbEntity
100
AcDbLine
10
140.566663
20
82.023580
30
0.0
11
141.080208
21
81.432276
31
0.0
0
LINE
8
Default
62
4
5
144
100
AcDbEntity
100
AcDbLine
10
141.080208
20
81.432276
30
0.0
11
158.001942
21
78.129531
31
0.0
0
LINE
8
Default
62
4
5
145
100
AcDbEntity
100
AcDbLine
10
158.001942
20
78.129531
30
0.0
11
161.769436
21
77.471849
31
0.0
0
LINE
8
Default
62
4
5
146
100
AcDbEntity
100
AcDbLine
10
161.769436
20
77.471849
30
0.0
11
161.629146
21
66.040926
31
0.0
0
LINE
8
Default
62
4
5
147
100
AcDbEntity
100
AcDbLine
10
161.629146
20
66.040926
30
0.0
11
161.456397
21
57.679579
31
0.0
0
LINE
8
Default
62
4
5
148
100
AcDbEntity
100
AcDbLine
10
161.456397
20
57.679579
30
0.0
11
161.238071
21
53.628705
31
0.0
0
LINE
8
Default
62
4
5
149
100
AcDbEntity
100
AcDbLine
10
161.238071
20
53.628705
30
0.0
11
161.056405
21
53.058572
31
0.0
0
LINE
8
Default
62
4
5
14a
100
AcDbEntity
100
AcDbLine
10
161.056405
20
53.058572
30
0.0
11
160.732121
21
52.727553
31
0.0
0
LINE
8
Default
62
4
5
14b
100
AcDbEntity
100
AcDbLine
10
160.732121
20
52.727553
30
0.0
11
158.739755
21
52.293249
31
0.0
0
LINE
8
Default
62
4
5
14c
100
AcDbEntity
100
AcDbLine
10
158.739755
20
52.293249
30
0.0
11
152.243923
21
51.119095
31
0.0
0
LINE
8
Default
62
4
5
14d
100
AcDbEntity
100
AcDbLine
10
152.243923
20
51.119095
30
0.0
11
144.971801
21
49.602458
31
0.0
0
LINE
8
Default
62
4
5
14e
100
AcDbEntity
100
AcDbLine
10
144.971801
20
49.602458
30
0.0
11
141.071380
21
48.727275
31
0.0
0
LINE
8
Default
62
4
5
14f
100
AcDbEntity
100
AcDbLine
10
141.071380
20
48.727275
30
0.0
11
140.383966
21
47.370726
31
0.0
0
LINE
8
Default
62
4
5
150
100
AcDbEntity
100
AcDbLine
10
140.383966
20
47.370726
30
0.0
11
137.902283
21
41.686348
31
0.0
0
LINE
8
Default
62
4
5
151
100
AcDbEntity
100
AcDbLine
10
137.902283
20
41.686348
30
0.0
11
135.625789
21
35.908274
31
0.0
0
LINE
8
Default
62
4
5
152
100
AcDbEntity
100
AcDbLine
10
135.625789
20
35.908274
30
0.0
11
135.136088
21
34.422103
31
0.0
0
LINE
8
Default
62
4
5
153
100
AcDbEntity
100
AcDbLine
10
135.136088
20
34.422103
30
0.0
11
135.914429
21
33.086051
31
0.0
0
LINE
8
Default
62
4
5
154
100
AcDbEntity
100
AcDbLine
10
135.914429
20
33.086051
30
0.0
11
140.338254
21
26.284753
31
0.0
0
LINE
8
Default
62
4
5
155
100
AcDbEntity
100
AcDbLine
10
140.338254
20
26.284753
30
0.0
11
144.664094
21
19.539941
31
0.0
0
LINE
8
Default
62
4
5
156
100
AcDbEntity
100
AcDbLine
10
144.664094
20
19.539941
30
0.0
11
145.137802
21
18.392239
31
0.0
0
LINE
8
Default
62
4
5
157
100
AcDbEntity
100
AcDbLine
10
145.137802
20
18.392239
30
0.0
11
145.313352
21
17.296251
31
0.0
0
LINE
8
Default
62
4
5
158
100
AcDbEntity
100
AcDbLine
10
145.313352
20
17.296251
30
0.0
11
145.190569
21
16.259082
31
0.0
0
LINE
8
Default
62
4
5
159
100
AcDbEntity
100
AcDbLine
10
145.190569
20
16.259082
30
0.0
11
144.769276
21
15.287834
31
0.0
0
LINE
8
Default
62
4
5
15a
100
AcDbEntity
100
AcDbLine
10
144.769276
20
15.287834
30
0.0
11
142.854417
21
13.087695
31
0.0
0
LINE
8
Default
62
4
5
15b
100
AcDbEntity
100
AcDbLine
10
142.854417
20
13.087695
30
0.0
11
139.055331
21
9.117923
31
0.0
0
LINE
8
Default
62
4
5
15c
100
AcDbEntity
100
AcDbLine
10
139.055331
20
9.117923
30
0.0
11
132.479478
21
2.745608
31
0.0
0
LINE
8
Default
62
4
5
15d
100
AcDbEntity
100
AcDbLine
10
132.479478
20
2.745608
30
0.0
11
130.340846
21
0.929876
31
0.0
0
LINE
8
Default
62
4
5
15e
100
AcDbEntity
100
AcDbLine
10
130.340846
20
0.929876
30
0.0
11
129.250773
21
0.282222
31
0.0
0
LINE
8
Default
62
4
5
15f
100
AcDbEntity
100
AcDbLine
10
129.250773
20
0.282222
30
0.0
11
128.363880
21
0.612614
31
0.0
0
LINE
8
Default
62
4
5
160
100
AcDbEntity
100
AcDbLine
10
128.363880
20
0.612614
30
0.0
11
126.549731
21
1.652512
31
0.0
0
LINE
8
Default
62
4
5
161
100
AcDbEntity
100
AcDbLine
10
126.549731
20
1.652512
30
0.0
11
119.662222
21
6.153158
31
0.0
0
LINE
8
Default
62
4
5
162
100
AcDbEntity
100
AcDbLine
10
119.662222
20
6.153158
30
0.0
11
112.934211
21
10.753544
31
0.0
0
LINE
8
Default
62
4
5
163
100
AcDbEntity
100
AcDbLine
10
112.934211
20
10.753544
30
0.0
11
112.507453
21
11.024473
31
0.0
0
LINE
8
Default
62
4
5
164
100
AcDbEntity
100
AcDbLine
10
112.507453
20
11.024473
30
0.0
11
111.997413
21
11.020301
31
0.0
0
LINE
8
Default
62
4
5
165
100
AcDbEntity
100
AcDbLine
10
111.997413
20
11.020301
30
0.0
11
109.478168
21
9.865707
31
0.0
0
LINE
8
Default
62
4
5
166
100
AcDbEntity
100
AcDbLine
10
109.478168
20
9.865707
30
0.0
11
104.833431
21
7.766770
31
0.0
0
LINE
8
Default
62
4
5
167
100
AcDbEntity
100
AcDbLine
10
104.833431
20
7.766770
30
0.0
11
102.984503
21
7.070835
31
0.0
0
LINE
8
Default
62
4
5
168
100
AcDbEntity
100
AcDbLine
10
102.984503
20
7.070835
30
0.0
11
102.466767
21
8.262640
31
0.0
0
LINE
8
Default
62
4
5
169
100
AcDbEntity
100
AcDbLine
10
102.466767
20
8.262640
30
0.0
11
99.916880
21
14.111111
31
0.0
0
LINE
8
Default
62
4
5
16a
100
AcDbEntity
100
AcDbLine
10
99.916880
20
14.111111
30
0.0
11
93.307127
21
29.739240
31
0.0
0
LINE
8
Default
62
4
5
16b
100
AcDbEntity
100
AcDbLine
10
93.307127
20
29.739240
30
0.0
11
87.470742
21
43.948745
31
0.0
0
LINE
8
Default
62
4
5
16c
100
AcDbEntity
100
AcDbLine
10
87.470742
20
43.948745
30
0.0
11
87.411238
21
44.328369
31
0.0
0
LINE
8
Default
62
4
5
16d
100
AcDbEntity
100
AcDbLine
10
87.411238
20
44.328369
30
0.0
11
87.688922
21
44.697879
31
0.0
0
LINE
8
Default
62
4
5
16e
100
AcDbEntity
100
AcDbLine
10
87.688922
20
44.697879
30
0.0
11
89.968118
21
45.988238
31
0.0
0
LINE
8
Default
62
4
5
16f
100
AcDbEntity
100
AcDbLine
10
89.968118
20
45.988238
30
0.0
11
93.113983
21
47.907549
31
0.0
0
LINE
8
Default
62
4
5
170
100
AcDbEntity
100
AcDbLine
10
93.113983
20
47.907549
30
0.0
11
95.811915
21
50.186775
31
0.0
0
LINE
8
Default
62
4
5
171
100
AcDbEntity
100
AcDbLine
10
95.811915
20
50.186775
30
0.0
11
98.035933
21
52.800090
31
0.0
0
LINE
8
Default
62
4
5
172
100
AcDbEntity
100
AcDbLine
10
98.035933
20
52.800090
30
0.0
11
99.760055
21
55.721668
31
0.0
0
LINE
8
Default
62
4
5
173
100
AcDbEntity
100
AcDbLine
10
99.760055
20
55.721668
30
0.0
11
100.703779
21
57.934462
31
0.0
0
LINE
8
Default
62
4
5
174
100
AcDbEntity
100
AcDbLine
10
100.703779
20
57.934462
30
0.0
11
101.299416
21
60.005127
31
0.0
0
LINE
8
Default
62
4
5
175
100
AcDbEntity
100
AcDbLine
10
101.299416
20
60.005127
30
0.0
11
101.609746
21
62.231423
31
0.0
0
LINE
8
Default
62
4
5
176
100
AcDbEntity
100
AcDbLine
10
101.609746
20
62.231423
30
0.0
11
101.697547
21
64.911111
31
0.0
0
LINE
8
Default
62
4
5
177
100
AcDbEntity
100
AcDbLine
10
101.697547
20
64.911111
30
0.0
11
101.566583
21
68.193825
31
0.0
0
LINE
8
Default
62
4
5
178
100
AcDbEntity
100
AcDbLine
10
101.566583
20
68.193825
30
0.0
11
100.979176
21
70.602588
31
0.0
0
LINE
8
Default
62
4
5
179
100
AcDbEntity
100
AcDbLine
10
100.979176
20
70.602588
30
0.0
11
99.807103
21
73.465506
31
0.0
0
LINE
8
Default
62
4
5
17a
100
AcDbEntity
100
AcDbLine
10
99.807103
20
73.465506
30
0.0
11
98.263490
21
76.129510
31
0.0
0
LINE
8
Default
62
4
5
17b
100
AcDbEntity
100
AcDbLine
10
98.263490
20
76.129510
30
0.0
11
96.388566
21
78.534944
31
0.0
0
LINE
8
Default
62
4
5
17c
100
AcDbEntity
100
AcDbLine
10
96.388566
20
78.534944
30
0.0
11
94.222559
21
80.622151
31
0.0
0
LINE
8
Default
62
4
5
17d
100
AcDbEntity
100
AcDbLine
10
94.222559
20
80.622151
30
0.0
11
92.371136
21
81.909946
31
0.0
0
LINE
8
Default
62
4
5
17e
100
AcDbEntity
100
AcDbLine
10
92.371136
20
81.909946
30
0.0
11
90.069029
21
83.152674
31
0.0
0
LINE
8
Default
62
4
5
17f
100
AcDbEntity
100
AcDbLine
10
90.069029
20
83.152674
30
0.0
11
87.660262
21
84.184250
31
0.0
0
LINE
8
Default
62
4
5
180
100
AcDbEntity
100
AcDbLine
10
87.660262
20
84.184250
30
0.0
11
85.488856
21
84.838588
31
0.0
0
LINE
8
Default
62
4
5
181
100
AcDbEntity
100
AcDbLine
10
85.488856
20
84.838588
30
0.0
11
82.854603
21
85.166622
31
0.0
0
LINE
8
Default
62
4
5
182
100
AcDbEntity
100
AcDbLine
10
82.854603
20
85.166622
30
0.0
11
79.873986
21
85.175736
31
0.0
0
LINE
8
Default
62
4
5
183
100
AcDbEntity
100
AcDbLine
10
79.873986
20
85.175736
30
0.0
11
76.935639
21
84.884455
31
0.0
0
LINE
8
Default
62
4
5
184
100
AcDbEntity
100
AcDbLine
10
76.935639
20
84.884455
30
0.0
11
74.428195
21
84.311307
31
0.0
0
LINE
8
Default
62
4
5
185
100
AcDbEntity
100
AcDbLine
10
74.428195
20
84.311307
30
0.0
11
72.387013
21
83.519847
31
0.0
0
LINE
8
Default
62
4
5
186
100
AcDbEntity
100
AcDbLine
10
72.387013
20
83.519847
30
0.0
11
70.446672
21
82.520711
31
0.0
0
LINE
8
Default
62
4
5
187
100
AcDbEntity
100
AcDbLine
10
70.446672
20
82.520711
30
0.0
11
68.622423
21
81.327614
31
0.0
0
LINE
8
Default
62
4
5
188
100
AcDbEntity
100
AcDbLine
10
68.622423
20
81.327614
30
0.0
11
66.929516
21
79.954272
31
0.0
0
LINE
8
Default
62
4
5
189
100
AcDbEntity
100
AcDbLine
10
66.929516
20
79.954272
30
0.0
11
65.383204
21
78.414401
31
0.0
0
LINE
8
Default
62
4
5
18a
100
AcDbEntity
100
AcDbLine
10
65.383204
20
78.414401
30
0.0
11
63.998735
21
76.721718
31
0.0
0
LINE
8
Default
62
4
5
18b
100
AcDbEntity
100
AcDbLine
10
63.998735
20
76.721718
30
0.0
11
62.791361
21
74.889937
31
0.0
0
LINE
8
Default
62
4
5
18c
100
AcDbEntity
100
AcDbLine
10
62.791361
20
74.889937
30
0.0
11
61.776333
21
72.932775
31
0.0
0
LINE
8
Default
62
4
5
18d
100
AcDbEntity
100
AcDbLine
10
61.776333
20
72.932775
30
0.0
11
60.786872
21
70.203564
31
0.0
0
LINE
8
Default
62
4
5
18e
100
AcDbEntity
100
AcDbLine
10
60.786872
20
70.203564
30
0.0
11
60.221086
21
67.363021
31
0.0
0
LINE
8
Default
62
4
5
18f
100
AcDbEntity
100
AcDbLine
10
60.221086
20
67.363021
30
0.0
11
60.070483
21
64.464827
31
0.0
0
LINE
8
Default
62
4
5
190
100
AcDbEntity
100
AcDbLine
10
60.070483
20
64.464827
30
0.0
11
60.326572
21
61.562661
31
0.0
0
LINE
8
Default
62
4
5
191
100
AcDbEntity
100
AcDbLine
10
60.326572
20
61.562661
30
0.0
11
60.980860
21
58.710204
31
0.0
0
LINE
8
Default
62
4
5
192
100
AcDbEntity
100
AcDbLine
10
60.980860
20
58.710204
30
0.0
11
62.024855
21
55.961137
31
0.0
0
LINE
8
Default
62
4
5
193
100
AcDbEntity
100
AcDbLine
10
62.024855
20
55.961137
30
0.0
11
63.450065
21
53.369139
31
0.0
0
LINE
8
Default
62
4
5
194
100
AcDbEntity
100
AcDbLine
10
63.450065
20
53.369139
30
0.0
11
65.247997
21
50.987892
31
0.0
0
LINE
8
Default
62
4
5
195
100
AcDbEntity
100
AcDbLine
10
65.247997
20
50.987892
30
0.0
11
66.556322
21
49.630952
31
0.0
0
LINE
8
Default
62
4
5
196
100
AcDbEntity
100
AcDbLine
10
66.556322
20
49.630952
30
0.0
11
68.007259
21
48.406312
31
0.0
0
LINE
8
Default
62
4
5
197
100
AcDbEntity
100
AcDbLine
10
68.007259
20
48.406312
30
0.0
11
69.707372
21
47.232873
31
0.0
0
LINE
8
Default
62
4
5
198
100
AcDbEntity
100
AcDbLine
10
69.707372
20
47.232873
30
0.0
11
71.763227
21
46.029536
31
0.0
0
LINE
8
Default
62
4
5
199
100
AcDbEntity
100
AcDbLine
10
71.763227
20
46.029536
30
0.0
11
73.958679
21
44.824712
31
0.0
0
LINE
8
Default
62
4
5
19a
100
AcDbEntity
100
AcDbLine
10
73.958679
20
44.824712
30
0.0
11
73.771337
21
43.790689
31
0.0
0
LINE
8
Default
62
4
5
19b
100
AcDbEntity
100
AcDbLine
10
73.771337
20
43.790689
30
0.0
11
73.325475
21
41.943854
31
0.0
0
LINE
8
Default
62
4
5
19c
100
AcDbEntity
100
AcDbLine
10
73.325475
20
41.943854
30
0.0
11
72.473166
21
39.399968
31
0.0
0
LINE
8
Default
62
4
5
19d
100
AcDbEntity
100
AcDbLine
10
72.473166
20
39.399968
30
0.0
11
68.862355
21
30.338889
31
0.0
0
LINE
8
Default
62
4
5
19e
100
AcDbEntity
100
AcDbLine
10
68.862355
20
30.338889
30
0.0
11
62.075787
21
14.279414
31
0.0
0
LINE
8
Default
62
4
5
19f
100
AcDbEntity
100
AcDbLine
10
62.075787
20
14.279414
30
0.0
11
59.901521
21
9.437352
31
0.0
0
LINE
8
Default
62
4
5
1a0
100
AcDbEntity
100
AcDbLine
10
59.901521
20
9.437352
30
0.0
11
58.827913
21
7.379324
31
0.0
0
LINE
8
Default
62
4
5
1a1
100
AcDbEntity
100
AcDbLine
10
58.827913
20
7.379324
30
0.0
11
58.108587
21
7.492281
31
0.0
0
LINE
8
Default
62
4
5
1a2
100
AcDbEntity
100
AcDbLine
10
58.108587
20
7.492281
30
0.0
11
56.531012
21
8.052420
31
0.0
0
LINE
8
Default
62
4
5
1a3
100
AcDbEntity
100
AcDbLine
10
56.531012
20
8.052420
30
0.0
11
52.493333
21
9.853337
31
0.0
0
LINE
8
Default
62
4
5
1a4
100
AcDbEntity
100
AcDbLine
10
52.493333
20
9.853337
30
0.0
11
49.812222
21
11.218192
31
0.0
0
LINE
8
Default
62
4
5
1a5
100
AcDbEntity
100
AcDbLine
10
49.812222
20
11.218192
30
0.0
11
43.885556
21
7.197265
31
0.0
0
LINE
8
Default
62
4
5
1a6
100
AcDbEntity
100
AcDbLine
10
43.885556
20
7.197265
30
0.0
11
36.513865
21
2.336342
31
0.0
0
LINE
8
Default
62
4
5
1a7
100
AcDbEntity
100
AcDbLine
10
36.513865
20
2.336342
30
0.0
11
32.639711
21
0.000000
31
0.0
0
LINE
8
Default
62
4
5
1a8
100
AcDbEntity
100
AcDbLine
10
32.639711
20
0.000000
30
0.0
11
27.640190
21
4.727389
31
0.0
0
LINE
8
Default
62
4
5
1a9
100
AcDbEntity
100
AcDbLine
10
27.640190
20
4.727389
30
0.0
11
27.640190
21
4.727389
31
0.0
  0
ENDSEC
  0
SECTION
  2
OBJECTS
  0
DICTIONARY
  5
C
330
0
100
AcDbDictionary
  3
ACAD_GROUP
350
D
  3
ACAD_MLINESTYLE
350
17
  0
DICTIONARY
  5
D
330
C
100
AcDbDictionary
  0
DICTIONARY
  5
1A
330
C
100
AcDbDictionary
  0
DICTIONARY
  5
17
330
C
100
AcDbDictionary
  3
STANDARD
350
18
  0
DICTIONARY
  5
19
330
C
100
AcDbDictionary
  0
ENDSEC
  0
EOF
