999
Inkscape export via "Better Better DXF Output" (http://tim.cexx.org/?p=590)
  0
SECTION
  2
HEADER
  9
$ACADVER
  1
AC1014
  9
$HANDSEED
  5
FFFF
  0
ENDSEC
  0
SECTION
  2
TABLES
  0
TABLE
  2
VPORT
  5
8
330
0
100
AcDbSymbolTable
 70
     4
  0
VPORT
  5
2E
330
8
100
AcDbSymbolTableRecord
100
AcDbViewportTableRecord
  2
*ACTIVE
 70
     0
 10
0.0
 20
0.0
 11
1.0
 21
1.0
 12
4.25
 22
5.5
 13
0.0
 23
0.0
 14
10.0
 24
10.0
 15
10.0
 25
10.0
 16
0.0
 26
0.0
 36
1.0
 17
0.0
 27
0.0
 37
0.0
 40
11
 41
1.24
 42
50.0
 43
0.0
 44
0.0
 50
0.0
 51
0.0
 71
     0
 72
   100
 73
     1
 74
     3
 75
     0
 76
     0
 77
     0
 78
     0
  0
ENDTAB
  0
TABLE
  2
LTYPE
  5
5
330
0
100
AcDbSymbolTable
 70
     1
  0
LTYPE
  5
14
330
5
100
AcDbSymbolTableRecord
100
AcDbLinetypeTableRecord
  2
BYBLOCK
 70
     0
  3

 72
    65
 73
     0
 40
0.0
  0
LTYPE
  5
15
330
5
100
AcDbSymbolTableRecord
100
AcDbLinetypeTableRecord
  2
BYLAYER
 70
     0
  3

 72
    65
 73
     0
 40
0.0
  0
LTYPE
  5
16
330
5
100
AcDbSymbolTableRecord
100
AcDbLinetypeTableRecord
  2
CONTINUOUS
 70
     0
  3
Solid line
 72
    65
 73
     0
 40
0.0
  0
ENDTAB
  0
TABLE
  2
STYLE
  5
3
330
0
100
AcDbSymbolTable
 70
     1
  0
STYLE
  5
11
330
3
100
AcDbSymbolTableRecord
100
AcDbTextStyleTableRecord
  2
STANDARD
 70
     0
 40
0.0
 41
1.0
 50
0.0
 71
     0
 42
2.5
  3
txt
  4

  0
ENDTAB
  0
TABLE
  2
VIEW
  5
6
330
0
100
AcDbSymbolTable
 70
     0
  0
ENDTAB
  0
TABLE
  2
UCS
  5
7
330
0
100
AcDbSymbolTable
 70
     0
  0
ENDTAB
  0
TABLE
  2
APPID
  5
9
330
0
100
AcDbSymbolTable
 70
     2
  0
APPID
  5
12
330
9
100
AcDbSymbolTableRecord
100
AcDbRegAppTableRecord
  2
ACAD
 70
     0
  0
ENDTAB
  0
TABLE
  2
DIMSTYLE
  5
A
330
0
100
AcDbSymbolTable
 70
     1
  0
DIMSTYLE
105
27
330
A
100
AcDbSymbolTableRecord
100
AcDbDimStyleTableRecord
  2
ISO-25
 70
     0
  3

  4

  5

  6

  7

 40
1.0
 41
2.5
 42
0.625
 43
3.75
 44
1.25
 45
0.0
 46
0.0
 47
0.0
 48
0.0
140
2.5
141
2.5
142
0.0
143
0.03937007874016
144
1.0
145
0.0
146
1.0
147
0.625
 71
     0
 72
     0
 73
     0
 74
     0
 75
     0
 76
     0
 77
     1
 78
     8
170
     0
171
     3
172
     1
173
     0
174
     0
175
     0
176
     0
177
     0
178
     0
270
     2
271
     2
272
     2
273
     2
274
     3
340
11
275
     0
280
     0
281
     0
282
     0
283
     0
284
     8
285
     0
286
     0
287
     3
288
     0
  0
ENDTAB
  0
TABLE
  2
BLOCK_RECORD
  5
1
330
0
100
AcDbSymbolTable
 70
     1
  0
BLOCK_RECORD
  5
1F
330
1
100
AcDbSymbolTableRecord
100
AcDbBlockTableRecord
  2
*MODEL_SPACE
  0
BLOCK_RECORD
  5
1B
330
1
100
AcDbSymbolTableRecord
100
AcDbBlockTableRecord
  2
*PAPER_SPACE
  0
ENDTAB
0
TABLE
2
LAYER
5
2
330
0
100
AcDbSymbolTable
70
1
0
LAYER
5
10
330
2
100
AcDbSymbolTableRecord
100
AcDbLayerTableRecord
2
Default
70
0
62
7
6
CONTINUOUS
0
ENDTAB
0
ENDSEC
  0
SECTION
  2
BLOCKS
  0
BLOCK
  5
20
330
1F
100
AcDbEntity
  8
0
100
AcDbBlockBegin
  2
*MODEL_SPACE
 70
     0
 10
0.0
 20
0.0
 30
0.0
  3
*MODEL_SPACE
  1

  0
ENDBLK
  5
21
330
1F
100
AcDbEntity
  8
0
100
AcDbBlockEnd
  0
BLOCK
  5
1C
330
1B
100
AcDbEntity
 67
     1
  8
0
100
AcDbBlockBegin
  2
*PAPER_SPACE
  1

  0
ENDBLK
  5
1D
330
1B
100
AcDbEntity
 67
     1
  8
0
100
AcDbBlockEnd
  0
ENDSEC
  0
SECTION
  2
ENTITIES
0
LINE
8
Default
62
4
5
100
100
AcDbEntity
100
AcDbLine
10
23.231781
20
7.422329
30
0.0
11
15.726950
21
14.844655
31
0.0
0
LINE
8
Default
62
4
5
101
100
AcDbEntity
100
AcDbLine
10
15.726950
20
14.844655
30
0.0
11
20.665387
21
22.168440
31
0.0
0
LINE
8
Default
62
4
5
102
100
AcDbEntity
100
AcDbLine
10
20.665387
20
22.168440
30
0.0
11
26.193367
21
30.652785
31
0.0
0
LINE
8
Default
62
4
5
103
100
AcDbEntity
100
AcDbLine
10
26.193367
20
30.652785
30
0.0
11
26.522038
21
31.346395
31
0.0
0
LINE
8
Default
62
4
5
104
100
AcDbEntity
100
AcDbLine
10
26.522038
20
31.346395
30
0.0
11
26.639741
21
31.878411
31
0.0
0
LINE
8
Default
62
4
5
105
100
AcDbEntity
100
AcDbLine
10
26.639741
20
31.878411
30
0.0
11
26.269795
21
33.475007
31
0.0
0
LINE
8
Default
62
4
5
106
100
AcDbEntity
100
AcDbLine
10
26.269795
20
33.475007
30
0.0
11
24.221842
21
38.965743
31
0.0
0
LINE
8
Default
62
4
5
107
100
AcDbEntity
100
AcDbLine
10
24.221842
20
38.965743
30
0.0
11
21.563190
21
45.153738
31
0.0
0
LINE
8
Default
62
4
5
108
100
AcDbEntity
100
AcDbLine
10
21.563190
20
45.153738
30
0.0
11
20.270055
21
47.902913
31
0.0
0
LINE
8
Default
62
4
5
109
100
AcDbEntity
100
AcDbLine
10
20.270055
20
47.902913
30
0.0
11
18.107805
21
48.489816
31
0.0
0
LINE
8
Default
62
4
5
10a
100
AcDbEntity
100
AcDbLine
10
18.107805
20
48.489816
30
0.0
11
8.201216
21
50.650665
31
0.0
0
LINE
8
Default
62
4
5
10b
100
AcDbEntity
100
AcDbLine
10
8.201216
20
50.650665
30
0.0
11
0.403232
21
52.288415
31
0.0
0
LINE
8
Default
62
4
5
10c
100
AcDbEntity
100
AcDbLine
10
0.403232
20
52.288415
30
0.0
11
0.245350
21
62.927571
31
0.0
0
LINE
8
Default
62
4
5
10d
100
AcDbEntity
100
AcDbLine
10
0.245350
20
62.927571
30
0.0
11
0.141111
21
73.502924
31
0.0
0
LINE
8
Default
62
4
5
10e
100
AcDbEntity
100
AcDbLine
10
0.141111
20
73.502924
30
0.0
11
2.257778
21
73.896401
31
0.0
0
LINE
8
Default
62
4
5
10f
100
AcDbEntity
100
AcDbLine
10
2.257778
20
73.896401
30
0.0
11
15.169051
21
76.439976
31
0.0
0
LINE
8
Default
62
4
5
110
100
AcDbEntity
100
AcDbLine
10
15.169051
20
76.439976
30
0.0
11
18.857021
21
77.293911
31
0.0
0
LINE
8
Default
62
4
5
111
100
AcDbEntity
100
AcDbLine
10
18.857021
20
77.293911
30
0.0
11
20.371074
21
77.798445
31
0.0
0
LINE
8
Default
62
4
5
112
100
AcDbEntity
100
AcDbLine
10
20.371074
20
77.798445
30
0.0
11
21.720698
21
79.959273
31
0.0
0
LINE
8
Default
62
4
5
113
100
AcDbEntity
100
AcDbLine
10
21.720698
20
79.959273
30
0.0
11
23.800776
21
84.067356
31
0.0
0
LINE
8
Default
62
4
5
114
100
AcDbEntity
100
AcDbLine
10
23.800776
20
84.067356
30
0.0
11
25.853523
21
88.547900
31
0.0
0
LINE
8
Default
62
4
5
115
100
AcDbEntity
100
AcDbLine
10
25.853523
20
88.547900
30
0.0
11
27.121152
21
91.826111
31
0.0
0
LINE
8
Default
62
4
5
116
100
AcDbEntity
100
AcDbLine
10
27.121152
20
91.826111
30
0.0
11
27.199395
21
92.663798
31
0.0
0
LINE
8
Default
62
4
5
117
100
AcDbEntity
100
AcDbLine
10
27.199395
20
92.663798
30
0.0
11
26.970195
21
93.557183
31
0.0
0
LINE
8
Default
62
4
5
118
100
AcDbEntity
100
AcDbLine
10
26.970195
20
93.557183
30
0.0
11
21.131432
21
102.581668
31
0.0
0
LINE
8
Default
62
4
5
119
100
AcDbEntity
100
AcDbLine
10
21.131432
20
102.581668
30
0.0
11
15.677749
21
110.684524
31
0.0
0
LINE
8
Default
62
4
5
11a
100
AcDbEntity
100
AcDbLine
10
15.677749
20
110.684524
30
0.0
11
22.302763
21
117.242151
31
0.0
0
LINE
8
Default
62
4
5
11b
100
AcDbEntity
100
AcDbLine
10
22.302763
20
117.242151
30
0.0
11
27.329397
21
122.102759
31
0.0
0
LINE
8
Default
62
4
5
11c
100
AcDbEntity
100
AcDbLine
10
27.329397
20
122.102759
30
0.0
11
30.111497
21
124.580318
31
0.0
0
LINE
8
Default
62
4
5
11d
100
AcDbEntity
100
AcDbLine
10
30.111497
20
124.580318
30
0.0
11
31.295213
21
125.360859
31
0.0
0
LINE
8
Default
62
4
5
11e
100
AcDbEntity
100
AcDbLine
10
31.295213
20
125.360859
30
0.0
11
36.179275
21
122.176621
31
0.0
0
LINE
8
Default
62
4
5
11f
100
AcDbEntity
100
AcDbLine
10
36.179275
20
122.176621
30
0.0
11
44.867285
21
116.476573
31
0.0
0
LINE
8
Default
62
4
5
120
100
AcDbEntity
100
AcDbLine
10
44.867285
20
116.476573
30
0.0
11
47.413489
21
114.847142
31
0.0
0
LINE
8
Default
62
4
5
121
100
AcDbEntity
100
AcDbLine
10
47.413489
20
114.847142
30
0.0
11
48.304306
21
114.391770
31
0.0
0
LINE
8
Default
62
4
5
122
100
AcDbEntity
100
AcDbLine
10
48.304306
20
114.391770
30
0.0
11
49.063672
21
114.152658
31
0.0
0
LINE
8
Default
62
4
5
123
100
AcDbEntity
100
AcDbLine
10
49.063672
20
114.152658
30
0.0
11
49.784143
21
114.112327
31
0.0
0
LINE
8
Default
62
4
5
124
100
AcDbEntity
100
AcDbLine
10
49.784143
20
114.112327
30
0.0
11
50.558276
21
114.253300
31
0.0
0
LINE
8
Default
62
4
5
125
100
AcDbEntity
100
AcDbLine
10
50.558276
20
114.253300
30
0.0
11
52.637744
21
115.009248
31
0.0
0
LINE
8
Default
62
4
5
126
100
AcDbEntity
100
AcDbLine
10
52.637744
20
115.009248
30
0.0
11
59.293925
21
117.832632
31
0.0
0
LINE
8
Default
62
4
5
127
100
AcDbEntity
100
AcDbLine
10
59.293925
20
117.832632
30
0.0
11
63.874718
21
119.939836
31
0.0
0
LINE
8
Default
62
4
5
128
100
AcDbEntity
100
AcDbLine
10
63.874718
20
119.939836
30
0.0
11
64.126809
21
120.427242
31
0.0
0
LINE
8
Default
62
4
5
129
100
AcDbEntity
100
AcDbLine
10
64.126809
20
120.427242
30
0.0
11
64.480805
21
121.867231
31
0.0
0
LINE
8
Default
62
4
5
12a
100
AcDbEntity
100
AcDbLine
10
64.480805
20
121.867231
30
0.0
11
66.051712
21
130.241704
31
0.0
0
LINE
8
Default
62
4
5
12b
100
AcDbEntity
100
AcDbLine
10
66.051712
20
130.241704
30
0.0
11
67.782858
21
139.397787
31
0.0
0
LINE
8
Default
62
4
5
12c
100
AcDbEntity
100
AcDbLine
10
67.782858
20
139.397787
30
0.0
11
68.168207
21
140.659368
31
0.0
0
LINE
8
Default
62
4
5
12d
100
AcDbEntity
100
AcDbLine
10
68.168207
20
140.659368
30
0.0
11
68.527871
21
140.987920
31
0.0
0
LINE
8
Default
62
4
5
12e
100
AcDbEntity
100
AcDbLine
10
68.527871
20
140.987920
30
0.0
11
72.237951
21
141.214367
31
0.0
0
LINE
8
Default
62
4
5
12f
100
AcDbEntity
100
AcDbLine
10
72.237951
20
141.214367
30
0.0
11
79.589976
21
141.336343
31
0.0
0
LINE
8
Default
62
4
5
130
100
AcDbEntity
100
AcDbLine
10
79.589976
20
141.336343
30
0.0
11
86.786204
21
141.324973
31
0.0
0
LINE
8
Default
62
4
5
131
100
AcDbEntity
100
AcDbLine
10
86.786204
20
141.324973
30
0.0
11
90.028889
21
141.151385
31
0.0
0
LINE
8
Default
62
4
5
132
100
AcDbEntity
100
AcDbLine
10
90.028889
20
141.151385
30
0.0
11
92.891669
21
124.460000
31
0.0
0
LINE
8
Default
62
4
5
133
100
AcDbEntity
100
AcDbLine
10
92.891669
20
124.460000
30
0.0
11
93.435236
21
121.995601
31
0.0
0
LINE
8
Default
62
4
5
134
100
AcDbEntity
100
AcDbLine
10
93.435236
20
121.995601
30
0.0
11
94.055966
21
120.537998
31
0.0
0
LINE
8
Default
62
4
5
135
100
AcDbEntity
100
AcDbLine
10
94.055966
20
120.537998
30
0.0
11
94.501965
21
120.032326
31
0.0
0
LINE
8
Default
62
4
5
136
100
AcDbEntity
100
AcDbLine
10
94.501965
20
120.032326
30
0.0
11
95.095290
21
119.593048
31
0.0
0
LINE
8
Default
62
4
5
137
100
AcDbEntity
100
AcDbLine
10
95.095290
20
119.593048
30
0.0
11
96.894636
21
118.666610
31
0.0
0
LINE
8
Default
62
4
5
138
100
AcDbEntity
100
AcDbLine
10
96.894636
20
118.666610
30
0.0
11
103.835672
21
115.627500
31
0.0
0
LINE
8
Default
62
4
5
139
100
AcDbEntity
100
AcDbLine
10
103.835672
20
115.627500
30
0.0
11
108.796667
21
113.653687
31
0.0
0
LINE
8
Default
62
4
5
13a
100
AcDbEntity
100
AcDbLine
10
108.796667
20
113.653687
30
0.0
11
115.295629
21
117.851396
31
0.0
0
LINE
8
Default
62
4
5
13b
100
AcDbEntity
100
AcDbLine
10
115.295629
20
117.851396
30
0.0
11
124.275034
21
123.874720
31
0.0
0
LINE
8
Default
62
4
5
13c
100
AcDbEntity
100
AcDbLine
10
124.275034
20
123.874720
30
0.0
11
127.037699
21
125.688328
31
0.0
0
LINE
8
Default
62
4
5
13d
100
AcDbEntity
100
AcDbLine
10
127.037699
20
125.688328
30
0.0
11
134.497739
21
118.232272
31
0.0
0
LINE
8
Default
62
4
5
13e
100
AcDbEntity
100
AcDbLine
10
134.497739
20
118.232272
30
0.0
11
141.957778
21
110.556503
31
0.0
0
LINE
8
Default
62
4
5
13f
100
AcDbEntity
100
AcDbLine
10
141.957778
20
110.556503
30
0.0
11
140.829644
21
108.613611
31
0.0
0
LINE
8
Default
62
4
5
140
100
AcDbEntity
100
AcDbLine
10
140.829644
20
108.613611
30
0.0
11
135.827369
21
101.283471
31
0.0
0
LINE
8
Default
62
4
5
141
100
AcDbEntity
100
AcDbLine
10
135.827369
20
101.283471
30
0.0
11
132.464768
21
96.290150
31
0.0
0
LINE
8
Default
62
4
5
142
100
AcDbEntity
100
AcDbLine
10
132.464768
20
96.290150
30
0.0
11
130.829324
21
93.646447
31
0.0
0
LINE
8
Default
62
4
5
143
100
AcDbEntity
100
AcDbLine
10
130.829324
20
93.646447
30
0.0
11
130.627153
21
93.070060
31
0.0
0
LINE
8
Default
62
4
5
144
100
AcDbEntity
100
AcDbLine
10
130.627153
20
93.070060
30
0.0
11
130.588230
21
92.543096
31
0.0
0
LINE
8
Default
62
4
5
145
100
AcDbEntity
100
AcDbLine
10
130.588230
20
92.543096
30
0.0
11
131.066345
21
90.858532
31
0.0
0
LINE
8
Default
62
4
5
146
100
AcDbEntity
100
AcDbLine
10
131.066345
20
90.858532
30
0.0
11
133.480418
21
85.157104
31
0.0
0
LINE
8
Default
62
4
5
147
100
AcDbEntity
100
AcDbLine
10
133.480418
20
85.157104
30
0.0
11
136.244288
21
79.728616
31
0.0
0
LINE
8
Default
62
4
5
148
100
AcDbEntity
100
AcDbLine
10
136.244288
20
79.728616
30
0.0
11
137.583333
21
77.471676
31
0.0
0
LINE
8
Default
62
4
5
149
100
AcDbEntity
100
AcDbLine
10
137.583333
20
77.471676
30
0.0
11
141.111111
21
76.704898
31
0.0
0
LINE
8
Default
62
4
5
14a
100
AcDbEntity
100
AcDbLine
10
141.111111
20
76.704898
30
0.0
11
151.200556
21
74.737668
31
0.0
0
LINE
8
Default
62
4
5
14b
100
AcDbEntity
100
AcDbLine
10
151.200556
20
74.737668
30
0.0
11
157.762222
21
73.537211
31
0.0
0
LINE
8
Default
62
4
5
14c
100
AcDbEntity
100
AcDbLine
10
157.762222
20
73.537211
30
0.0
11
157.729236
21
64.638050
31
0.0
0
LINE
8
Default
62
4
5
14d
100
AcDbEntity
100
AcDbLine
10
157.729236
20
64.638050
30
0.0
11
157.517569
21
53.913758
31
0.0
0
LINE
8
Default
62
4
5
14e
100
AcDbEntity
100
AcDbLine
10
157.517569
20
53.913758
30
0.0
11
157.394404
21
52.713448
31
0.0
0
LINE
8
Default
62
4
5
14f
100
AcDbEntity
100
AcDbLine
10
157.394404
20
52.713448
30
0.0
11
157.216806
21
52.341561
31
0.0
0
LINE
8
Default
62
4
5
150
100
AcDbEntity
100
AcDbLine
10
157.216806
20
52.341561
30
0.0
11
156.836650
21
52.060603
31
0.0
0
LINE
8
Default
62
4
5
151
100
AcDbEntity
100
AcDbLine
10
156.836650
20
52.060603
30
0.0
11
155.093020
21
51.587731
31
0.0
0
LINE
8
Default
62
4
5
152
100
AcDbEntity
100
AcDbLine
10
155.093020
20
51.587731
30
0.0
11
151.412222
21
50.927341
31
0.0
0
LINE
8
Default
62
4
5
153
100
AcDbEntity
100
AcDbLine
10
151.412222
20
50.927341
30
0.0
11
144.518822
21
49.561447
31
0.0
0
LINE
8
Default
62
4
5
154
100
AcDbEntity
100
AcDbLine
10
144.518822
20
49.561447
30
0.0
11
138.808291
21
48.247351
31
0.0
0
LINE
8
Default
62
4
5
155
100
AcDbEntity
100
AcDbLine
10
138.808291
20
48.247351
30
0.0
11
137.875083
21
47.795638
31
0.0
0
LINE
8
Default
62
4
5
156
100
AcDbEntity
100
AcDbLine
10
137.875083
20
47.795638
30
0.0
11
137.170468
21
46.944362
31
0.0
0
LINE
8
Default
62
4
5
157
100
AcDbEntity
100
AcDbLine
10
137.170468
20
46.944362
30
0.0
11
134.756132
21
41.634648
31
0.0
0
LINE
8
Default
62
4
5
158
100
AcDbEntity
100
AcDbLine
10
134.756132
20
41.634648
30
0.0
11
131.966902
21
34.669278
31
0.0
0
LINE
8
Default
62
4
5
159
100
AcDbEntity
100
AcDbLine
10
131.966902
20
34.669278
30
0.0
11
130.986911
21
31.962003
31
0.0
0
LINE
8
Default
62
4
5
15a
100
AcDbEntity
100
AcDbLine
10
130.986911
20
31.962003
30
0.0
11
132.039823
21
30.162669
31
0.0
0
LINE
8
Default
62
4
5
15b
100
AcDbEntity
100
AcDbLine
10
132.039823
20
30.162669
30
0.0
11
136.630063
21
23.001111
31
0.0
0
LINE
8
Default
62
4
5
15c
100
AcDbEntity
100
AcDbLine
10
136.630063
20
23.001111
30
0.0
11
140.722099
21
16.665219
31
0.0
0
LINE
8
Default
62
4
5
15d
100
AcDbEntity
100
AcDbLine
10
140.722099
20
16.665219
30
0.0
11
141.290473
21
15.522005
31
0.0
0
LINE
8
Default
62
4
5
15e
100
AcDbEntity
100
AcDbLine
10
141.290473
20
15.522005
30
0.0
11
141.393333
21
14.838189
31
0.0
0
LINE
8
Default
62
4
5
15f
100
AcDbEntity
100
AcDbLine
10
141.393333
20
14.838189
30
0.0
11
141.182100
21
14.293537
31
0.0
0
LINE
8
Default
62
4
5
160
100
AcDbEntity
100
AcDbLine
10
141.182100
20
14.293537
30
0.0
11
140.577165
21
13.408830
31
0.0
0
LINE
8
Default
62
4
5
161
100
AcDbEntity
100
AcDbLine
10
140.577165
20
13.408830
30
0.0
11
138.358774
21
10.807648
31
0.0
0
LINE
8
Default
62
4
5
162
100
AcDbEntity
100
AcDbLine
10
138.358774
20
10.807648
30
0.0
11
135.083327
21
7.411450
31
0.0
0
LINE
8
Default
62
4
5
163
100
AcDbEntity
100
AcDbLine
10
135.083327
20
7.411450
30
0.0
11
131.095993
21
3.597041
31
0.0
0
LINE
8
Default
62
4
5
164
100
AcDbEntity
100
AcDbLine
10
131.095993
20
3.597041
30
0.0
11
127.191335
21
-0.002588
31
0.0
0
LINE
8
Default
62
4
5
165
100
AcDbEntity
100
AcDbLine
10
127.191335
20
-0.002588
30
0.0
11
125.614001
21
0.881501
31
0.0
0
LINE
8
Default
62
4
5
166
100
AcDbEntity
100
AcDbLine
10
125.614001
20
0.881501
30
0.0
11
119.502181
21
4.846242
31
0.0
0
LINE
8
Default
62
4
5
167
100
AcDbEntity
100
AcDbLine
10
119.502181
20
4.846242
30
0.0
11
111.684023
21
10.171021
31
0.0
0
LINE
8
Default
62
4
5
168
100
AcDbEntity
100
AcDbLine
10
111.684023
20
10.171021
30
0.0
11
110.338043
21
11.122968
31
0.0
0
LINE
8
Default
62
4
5
169
100
AcDbEntity
100
AcDbLine
10
110.338043
20
11.122968
30
0.0
11
106.597729
21
9.197303
31
0.0
0
LINE
8
Default
62
4
5
16a
100
AcDbEntity
100
AcDbLine
10
106.597729
20
9.197303
30
0.0
11
103.807246
21
7.867743
31
0.0
0
LINE
8
Default
62
4
5
16b
100
AcDbEntity
100
AcDbLine
10
103.807246
20
7.867743
30
0.0
11
102.350564
21
7.375263
31
0.0
0
LINE
8
Default
62
4
5
16c
100
AcDbEntity
100
AcDbLine
10
102.350564
20
7.375263
30
0.0
11
101.787911
21
8.002289
31
0.0
0
LINE
8
Default
62
4
5
16d
100
AcDbEntity
100
AcDbLine
10
101.787911
20
8.002289
30
0.0
11
100.637681
21
10.324997
31
0.0
0
LINE
8
Default
62
4
5
16e
100
AcDbEntity
100
AcDbLine
10
100.637681
20
10.324997
30
0.0
11
94.912476
21
23.706667
31
0.0
0
LINE
8
Default
62
4
5
16f
100
AcDbEntity
100
AcDbLine
10
94.912476
20
23.706667
30
0.0
11
87.771111
21
41.191936
31
0.0
0
LINE
8
Default
62
4
5
170
100
AcDbEntity
100
AcDbLine
10
87.771111
20
41.191936
30
0.0
11
89.111667
21
42.023216
31
0.0
0
LINE
8
Default
62
4
5
171
100
AcDbEntity
100
AcDbLine
10
89.111667
20
42.023216
30
0.0
11
90.613527
21
42.845855
31
0.0
0
LINE
8
Default
62
4
5
172
100
AcDbEntity
100
AcDbLine
10
90.613527
20
42.845855
30
0.0
11
92.097234
21
43.842106
31
0.0
0
LINE
8
Default
62
4
5
173
100
AcDbEntity
100
AcDbLine
10
92.097234
20
43.842106
30
0.0
11
94.908614
21
46.254438
31
0.0
0
LINE
8
Default
62
4
5
174
100
AcDbEntity
100
AcDbLine
10
94.908614
20
46.254438
30
0.0
11
97.342660
21
49.058199
31
0.0
0
LINE
8
Default
62
4
5
175
100
AcDbEntity
100
AcDbLine
10
97.342660
20
49.058199
30
0.0
11
98.354700
21
50.543738
31
0.0
0
LINE
8
Default
62
4
5
176
100
AcDbEntity
100
AcDbLine
10
98.354700
20
50.543738
30
0.0
11
99.196226
21
52.051379
31
0.0
0
LINE
8
Default
62
4
5
177
100
AcDbEntity
100
AcDbLine
10
99.196226
20
52.051379
30
0.0
11
100.336483
21
54.636422
31
0.0
0
LINE
8
Default
62
4
5
178
100
AcDbEntity
100
AcDbLine
10
100.336483
20
54.636422
30
0.0
11
101.090676
21
57.078794
31
0.0
0
LINE
8
Default
62
4
5
179
100
AcDbEntity
100
AcDbLine
10
101.090676
20
57.078794
30
0.0
11
101.508246
21
59.587391
31
0.0
0
LINE
8
Default
62
4
5
17a
100
AcDbEntity
100
AcDbLine
10
101.508246
20
59.587391
30
0.0
11
101.638633
21
62.371111
31
0.0
0
LINE
8
Default
62
4
5
17b
100
AcDbEntity
100
AcDbLine
10
101.638633
20
62.371111
30
0.0
11
101.510417
21
65.387179
31
0.0
0
LINE
8
Default
62
4
5
17c
100
AcDbEntity
100
AcDbLine
10
101.510417
20
65.387179
30
0.0
11
101.058946
21
67.840058
31
0.0
0
LINE
8
Default
62
4
5
17d
100
AcDbEntity
100
AcDbLine
10
101.058946
20
67.840058
30
0.0
11
100.121036
21
70.664223
31
0.0
0
LINE
8
Default
62
4
5
17e
100
AcDbEntity
100
AcDbLine
10
100.121036
20
70.664223
30
0.0
11
98.848180
21
73.302315
31
0.0
0
LINE
8
Default
62
4
5
17f
100
AcDbEntity
100
AcDbLine
10
98.848180
20
73.302315
30
0.0
11
97.261717
21
75.732359
31
0.0
0
LINE
8
Default
62
4
5
180
100
AcDbEntity
100
AcDbLine
10
97.261717
20
75.732359
30
0.0
11
95.382988
21
77.932380
31
0.0
0
LINE
8
Default
62
4
5
181
100
AcDbEntity
100
AcDbLine
10
95.382988
20
77.932380
30
0.0
11
93.233334
21
79.880404
31
0.0
0
LINE
8
Default
62
4
5
182
100
AcDbEntity
100
AcDbLine
10
93.233334
20
79.880404
30
0.0
11
90.834095
21
81.554458
31
0.0
0
LINE
8
Default
62
4
5
183
100
AcDbEntity
100
AcDbLine
10
90.834095
20
81.554458
30
0.0
11
88.206611
21
82.932566
31
0.0
0
LINE
8
Default
62
4
5
184
100
AcDbEntity
100
AcDbLine
10
88.206611
20
82.932566
30
0.0
11
85.372222
21
83.992754
31
0.0
0
LINE
8
Default
62
4
5
185
100
AcDbEntity
100
AcDbLine
10
85.372222
20
83.992754
30
0.0
11
82.613315
21
84.636008
31
0.0
0
LINE
8
Default
62
4
5
186
100
AcDbEntity
100
AcDbLine
10
82.613315
20
84.636008
30
0.0
11
79.022222
21
84.779462
31
0.0
0
LINE
8
Default
62
4
5
187
100
AcDbEntity
100
AcDbLine
10
79.022222
20
84.779462
30
0.0
11
75.512489
21
84.666861
31
0.0
0
LINE
8
Default
62
4
5
188
100
AcDbEntity
100
AcDbLine
10
75.512489
20
84.666861
30
0.0
11
72.973695
21
84.151399
31
0.0
0
LINE
8
Default
62
4
5
189
100
AcDbEntity
100
AcDbLine
10
72.973695
20
84.151399
30
0.0
11
69.947611
21
83.060682
31
0.0
0
LINE
8
Default
62
4
5
18a
100
AcDbEntity
100
AcDbLine
10
69.947611
20
83.060682
30
0.0
11
67.140357
21
81.597347
31
0.0
0
LINE
8
Default
62
4
5
18b
100
AcDbEntity
100
AcDbLine
10
67.140357
20
81.597347
30
0.0
11
64.582568
21
79.793856
31
0.0
0
LINE
8
Default
62
4
5
18c
100
AcDbEntity
100
AcDbLine
10
64.582568
20
79.793856
30
0.0
11
62.304881
21
77.682672
31
0.0
0
LINE
8
Default
62
4
5
18d
100
AcDbEntity
100
AcDbLine
10
62.304881
20
77.682672
30
0.0
11
60.337932
21
75.296257
31
0.0
0
LINE
8
Default
62
4
5
18e
100
AcDbEntity
100
AcDbLine
10
60.337932
20
75.296257
30
0.0
11
58.712358
21
72.667072
31
0.0
0
LINE
8
Default
62
4
5
18f
100
AcDbEntity
100
AcDbLine
10
58.712358
20
72.667072
30
0.0
11
57.458795
21
69.827582
31
0.0
0
LINE
8
Default
62
4
5
190
100
AcDbEntity
100
AcDbLine
10
57.458795
20
69.827582
30
0.0
11
56.607879
21
66.810247
31
0.0
0
LINE
8
Default
62
4
5
191
100
AcDbEntity
100
AcDbLine
10
56.607879
20
66.810247
30
0.0
11
56.311432
21
64.971579
31
0.0
0
LINE
8
Default
62
4
5
192
100
AcDbEntity
100
AcDbLine
10
56.311432
20
64.971579
30
0.0
11
56.175522
21
63.125923
31
0.0
0
LINE
8
Default
62
4
5
193
100
AcDbEntity
100
AcDbLine
10
56.175522
20
63.125923
30
0.0
11
56.195218
21
61.283551
31
0.0
0
LINE
8
Default
62
4
5
194
100
AcDbEntity
100
AcDbLine
10
56.195218
20
61.283551
30
0.0
11
56.365591
21
59.454734
31
0.0
0
LINE
8
Default
62
4
5
195
100
AcDbEntity
100
AcDbLine
10
56.365591
20
59.454734
30
0.0
11
57.138646
21
55.878859
31
0.0
0
LINE
8
Default
62
4
5
196
100
AcDbEntity
100
AcDbLine
10
57.138646
20
55.878859
30
0.0
11
58.455248
21
52.480476
31
0.0
0
LINE
8
Default
62
4
5
197
100
AcDbEntity
100
AcDbLine
10
58.455248
20
52.480476
30
0.0
11
60.275957
21
49.341764
31
0.0
0
LINE
8
Default
62
4
5
198
100
AcDbEntity
100
AcDbLine
10
60.275957
20
49.341764
30
0.0
11
62.561334
21
46.544901
31
0.0
0
LINE
8
Default
62
4
5
199
100
AcDbEntity
100
AcDbLine
10
62.561334
20
46.544901
30
0.0
11
63.865948
21
45.300344
31
0.0
0
LINE
8
Default
62
4
5
19a
100
AcDbEntity
100
AcDbLine
10
63.865948
20
45.300344
30
0.0
11
65.271939
21
44.172066
31
0.0
0
LINE
8
Default
62
4
5
19b
100
AcDbEntity
100
AcDbLine
10
65.271939
20
44.172066
30
0.0
11
66.774378
21
43.170340
31
0.0
0
LINE
8
Default
62
4
5
19c
100
AcDbEntity
100
AcDbLine
10
66.774378
20
43.170340
30
0.0
11
68.368333
21
42.305438
31
0.0
0
LINE
8
Default
62
4
5
19d
100
AcDbEntity
100
AcDbLine
10
68.368333
20
42.305438
30
0.0
11
69.331153
21
41.710526
31
0.0
0
LINE
8
Default
62
4
5
19e
100
AcDbEntity
100
AcDbLine
10
69.331153
20
41.710526
30
0.0
11
69.708889
21
41.199432
31
0.0
0
LINE
8
Default
62
4
5
19f
100
AcDbEntity
100
AcDbLine
10
69.708889
20
41.199432
30
0.0
11
69.165473
21
39.067693
31
0.0
0
LINE
8
Default
62
4
5
1a0
100
AcDbEntity
100
AcDbLine
10
69.165473
20
39.067693
30
0.0
11
67.455219
21
34.469330
31
0.0
0
LINE
8
Default
62
4
5
1a1
100
AcDbEntity
100
AcDbLine
10
67.455219
20
34.469330
30
0.0
11
60.054160
21
16.652243
31
0.0
0
LINE
8
Default
62
4
5
1a2
100
AcDbEntity
100
AcDbLine
10
60.054160
20
16.652243
30
0.0
11
56.724204
21
9.081236
31
0.0
0
LINE
8
Default
62
4
5
1a3
100
AcDbEntity
100
AcDbLine
10
56.724204
20
9.081236
30
0.0
11
55.964060
21
7.700555
31
0.0
0
LINE
8
Default
62
4
5
1a4
100
AcDbEntity
100
AcDbLine
10
55.964060
20
7.700555
30
0.0
11
55.522467
21
7.337989
31
0.0
0
LINE
8
Default
62
4
5
1a5
100
AcDbEntity
100
AcDbLine
10
55.522467
20
7.337989
30
0.0
11
51.402226
21
9.174548
31
0.0
0
LINE
8
Default
62
4
5
1a6
100
AcDbEntity
100
AcDbLine
10
51.402226
20
9.174548
30
0.0
11
47.630007
21
11.010894
31
0.0
0
LINE
8
Default
62
4
5
1a7
100
AcDbEntity
100
AcDbLine
10
47.630007
20
11.010894
30
0.0
11
39.398056
21
5.505447
31
0.0
0
LINE
8
Default
62
4
5
1a8
100
AcDbEntity
100
AcDbLine
10
39.398056
20
5.505447
30
0.0
11
30.951359
21
0.000000
31
0.0
0
LINE
8
Default
62
4
5
1a9
100
AcDbEntity
100
AcDbLine
10
30.951359
20
0.000000
30
0.0
11
23.231781
21
7.422329
31
0.0
0
LINE
8
Default
62
4
5
1aa
100
AcDbEntity
100
AcDbLine
10
23.231781
20
7.422329
30
0.0
11
23.231781
21
7.422329
31
0.0
  0
ENDSEC
  0
SECTION
  2
OBJECTS
  0
DICTIONARY
  5
C
330
0
100
AcDbDictionary
  3
ACAD_GROUP
350
D
  3
ACAD_MLINESTYLE
350
17
  0
DICTIONARY
  5
D
330
C
100
AcDbDictionary
  0
DICTIONARY
  5
1A
330
C
100
AcDbDictionary
  0
DICTIONARY
  5
17
330
C
100
AcDbDictionary
  3
STANDARD
350
18
  0
DICTIONARY
  5
19
330
C
100
AcDbDictionary
  0
ENDSEC
  0
EOF
