  0
SECTION
  2
HEADER
  9
$ACADVER
  1
AC1014
  9
$HANDSEED
  5
FFFF
  9
$MEASUREMENT
 70
     1
  0
ENDSEC
  0
SECTION
  2
TABLES
  0
TABLE
  2
VPORT
  5
8
330
0
100
AcDbSymbolTable
 70
     4
  0
VPORT
  5
2E
330
8
100
AcDbSymbolTableRecord
100
AcDbViewportTableRecord
  2
*ACTIVE
 70
     0
 10
0.0
 20
0.0
 11
1.0
 21
1.0
 12
210.0
 22
148.5
 13
0.0
 23
0.0
 14
10.0
 24
10.0
 15
10.0
 25
10.0
 16
0.0
 26
0.0
 36
1.0
 17
0.0
 27
0.0
 37
0.0
 40
341.0
 41
1.24
 42
50.0
 43
0.0
 44
0.0
 50
0.0
 51
0.0
 71
     0
 72
   100
 73
     1
 74
     3
 75
     0
 76
     0
 77
     0
 78
     0
  0
ENDTAB
  0
TABLE
  2
LTYPE
  5
5
330
0
100
AcDbSymbolTable
 70
     1
  0
LTYPE
  5
14
330
5
100
AcDbSymbolTableRecord
100
AcDbLinetypeTableRecord
  2
BYBLOCK
 70
     0
  3

 72
    65
 73
     0
 40
0.0
  0
LTYPE
  5
15
330
5
100
AcDbSymbolTableRecord
100
AcDbLinetypeTableRecord
  2
BYLAYER
 70
     0
  3

 72
    65
 73
     0
 40
0.0
  0
LTYPE
  5
16
330
5
100
AcDbSymbolTableRecord
100
AcDbLinetypeTableRecord
  2
CONTINUOUS
 70
     0
  3
Solid line
 72
    65
 73
     0
 40
0.0
  0
ENDTAB
  0
TABLE
  2
LAYER
  5
2
100
AcDbSymbolTable
 70
2
  0
LAYER
  5
50
100
AcDbSymbolTableRecord
100
AcDbLayerTableRecord
  2
0
 70
0
  6
CONTINUOUS
  0
LAYER
  5
51
100
AcDbSymbolTableRecord
100
AcDbLayerTableRecord
  2
Layer_1
 70
0
  6
CONTINUOUS
  0
ENDTAB
  0
TABLE
  2
STYLE
  5
3
330
0
100
AcDbSymbolTable
 70
     1
  0
STYLE
  5
11
330
3
100
AcDbSymbolTableRecord
100
AcDbTextStyleTableRecord
  2
STANDARD
 70
     0
 40
0.0
 41
1.0
 50
0.0
 71
     0
 42
2.5
  3
txt
  4

  0
ENDTAB
  0
TABLE
  2
VIEW
  5
6
330
0
100
AcDbSymbolTable
 70
     0
  0
ENDTAB
  0
TABLE
  2
UCS
  5
7
330
0
100
AcDbSymbolTable
 70
     0
  0
ENDTAB
  0
TABLE
  2
APPID
  5
9
330
0
100
AcDbSymbolTable
 70
     2
  0
APPID
  5
12
330
9
100
AcDbSymbolTableRecord
100
AcDbRegAppTableRecord
  2
ACAD
 70
     0
  0
ENDTAB
  0
TABLE
  2
DIMSTYLE
  5
A
330
0
100
AcDbSymbolTable
 70
     1
  0
DIMSTYLE
105
27
330
A
100
AcDbSymbolTableRecord
100
AcDbDimStyleTableRecord
  2
ISO-25
 70
     0
  3

  4

  5

  6

  7

 40
1.0
 41
2.5
 42
0.625
 43
3.75
 44
1.25
 45
0.0
 46
0.0
 47
0.0
 48
0.0
140
2.5
141
2.5
142
0.0
143
0.03937007874016
144
1.0
145
0.0
146
1.0
147
0.625
 71
     0
 72
     0
 73
     0
 74
     0
 75
     0
 76
     0
 77
     1
 78
     8
170
     0
171
     3
172
     1
173
     0
174
     0
175
     0
176
     0
177
     0
178
     0
270
     2
271
     2
272
     2
273
     2
274
     3
340
11
275
     0
280
     0
281
     0
282
     0
283
     0
284
     8
285
     0
286
     0
287
     3
288
     0
  0
ENDTAB
  0
TABLE
  2
BLOCK_RECORD
  5
1
330
0
100
AcDbSymbolTable
 70
     1
  0
BLOCK_RECORD
  5
1F
330
1
100
AcDbSymbolTableRecord
100
AcDbBlockTableRecord
  2
*MODEL_SPACE
  0
BLOCK_RECORD
  5
1B
330
1
100
AcDbSymbolTableRecord
100
AcDbBlockTableRecord
  2
*PAPER_SPACE
  0
ENDTAB
  0
ENDSEC
  0
SECTION
  2
BLOCKS
  0
BLOCK
  5
20
330
1F
100
AcDbEntity
  8
0
100
AcDbBlockBegin
  2
*MODEL_SPACE
 70
     0
 10
0.0
 20
0.0
 30
0.0
  3
*MODEL_SPACE
  1

  0
ENDBLK
  5
21
330
1F
100
AcDbEntity
  8
0
100
AcDbBlockEnd
  0
BLOCK
  5
1C
330
1B
100
AcDbEntity
 67
     1
  8
0
100
AcDbBlockBegin
  2
*PAPER_SPACE
  1

  0
ENDBLK
  5
1D
330
1B
100
AcDbEntity
 67
     1
  8
0
100
AcDbBlockEnd
  0
ENDSEC
  0
SECTION
  2
ENTITIES
  0
LWPOLYLINE
  5
100
100
AcDbEntity
  8
0
 62
7
100
AcDbPolyline
 90
169
 70
0
 10
41.795344
 20
73.823964
 30
0.0
 10
37.896840
 20
73.751715
 30
0.0
 10
36.676132
 20
73.673232
 30
0.0
 10
36.186178
 20
73.577020
 30
0.0
 10
35.821953
 20
71.878694
 30
0.0
 10
35.163122
 20
68.144242
 30
0.0
 10
34.495201
 20
64.426260
 30
0.0
 10
34.104789
 20
62.773200
 30
0.0
 10
30.127219
 20
61.009311
 30
0.0
 10
27.937177
 20
60.105751
 30
0.0
 10
26.723537
 20
59.691503
 30
0.0
 10
26.065209
 20
59.664974
 30
0.0
 10
25.541105
 20
59.924531
 30
0.0
 10
21.078466
 20
62.887864
 30
0.0
 10
17.056799
 20
65.507239
 30
0.0
 10
16.622823
 20
65.270912
 30
0.0
 10
15.708835
 20
64.514407
 30
0.0
 10
12.920480
 20
61.864809
 30
0.0
 10
9.154577
 20
58.090086
 30
0.0
 10
9.948327
 20
56.855364
 30
0.0
 10
12.946938
 20
52.472100
 30
0.0
 10
14.497309
 20
50.096831
 30
0.0
 10
14.969241
 20
49.254623
 30
0.0
 10
15.142980
 20
48.803214
 30
0.0
 10
15.005128
 20
48.175848
 30
0.0
 10
14.634774
 20
47.154317
 30
0.0
 10
13.468821
 20
44.502943
 30
0.0
 10
12.189651
 20
41.997487
 30
0.0
 10
11.677777
 20
41.158350
 30
0.0
 10
11.341799
 20
40.786342
 30
0.0
 10
9.503376
 20
40.353597
 30
0.0
 10
5.891383
 20
39.639800
 30
0.0
 10
1.014233
 20
38.731397
 30
0.0
 10
1.093608
 20
33.342717
 30
0.0
 10
1.172983
 20
27.962847
 30
0.0
 10
6.164785
 20
26.975069
 30
0.0
 10
9.780484
 20
26.188460
 30
0.0
 10
11.456452
 20
25.687431
 30
0.0
 10
12.173759
 20
24.284783
 30
0.0
 10
13.323392
 20
21.581207
 30
0.0
 10
14.390629
 20
18.840547
 30
0.0
 10
14.860758
 20
17.326592
 30
0.0
 10
14.707452
 20
16.897162
 30
0.0
 10
14.290254
 20
16.136009
 30
0.0
 10
12.920480
 20
14.045806
 30
0.0
 10
10.089438
 20
9.909473
 30
0.0
 10
9.207494
 20
8.507195
 30
0.0
 10
12.946938
 20
4.758917
 30
0.0
 10
15.652597
 20
2.111814
 30
0.0
 10
16.906869
 20
1.010639
 30
0.0
 10
18.290887
 20
1.847230
 30
0.0
 10
21.307772
 20
3.859334
 30
0.0
 10
25.488188
 20
6.708000
 30
0.0
 10
27.534299
 20
5.676139
 30
0.0
 10
29.016714
 20
4.974394
 30
0.0
 10
29.695067
 20
4.741278
 30
0.0
 10
30.709438
 20
6.915518
 30
0.0
 10
33.117011
 20
12.581778
 30
0.0
 10
36.001181
 20
19.558521
 30
0.0
 10
36.625883
 20
21.287044
 30
0.0
 10
36.821178
 20
22.230203
 30
0.0
 10
35.319290
 20
23.028327
 30
0.0
 10
33.954901
 20
24.022935
 30
0.0
 10
32.747351
 20
25.195032
 30
0.0
 10
31.715984
 20
26.525597
 30
0.0
 10
30.880137
 20
27.995579
 30
0.0
 10
30.259158
 20
29.585930
 30
0.0
 10
29.872387
 20
31.277640
 30
0.0
 10
29.739164
 20
33.051669
 30
0.0
 10
29.800858
 20
34.263312
 30
0.0
 10
29.981940
 20
35.440023
 30
0.0
 10
30.276399
 20
36.575832
 30
0.0
 10
30.678236
 20
37.664775
 30
0.0
 10
31.181441
 20
38.700892
 30
0.0
 10
31.780012
 20
39.678211
 30
0.0
 10
32.467939
 20
40.590759
 30
0.0
 10
33.239219
 20
41.432583
 30
0.0
 10
34.087847
 20
42.197713
 30
0.0
 10
35.007818
 20
42.880177
 30
0.0
 10
35.993124
 20
43.474018
 30
0.0
 10
37.037761
 20
43.973266
 30
0.0
 10
38.135724
 20
44.371956
 30
0.0
 10
39.281007
 20
44.664118
 30
0.0
 10
40.467605
 20
44.843792
 30
0.0
 10
41.689511
 20
44.905008
 30
0.0
 10
42.911418
 20
44.843792
 30
0.0
 10
44.098015
 20
44.664118
 30
0.0
 10
45.243298
 20
44.371956
 30
0.0
 10
46.341261
 20
43.973266
 30
0.0
 10
47.385899
 20
43.474018
 30
0.0
 10
48.371204
 20
42.880177
 30
0.0
 10
49.291175
 20
42.197713
 30
0.0
 10
50.139803
 20
41.432583
 30
0.0
 10
50.911083
 20
40.590759
 30
0.0
 10
51.599011
 20
39.678211
 30
0.0
 10
52.197581
 20
38.700892
 30
0.0
 10
52.700786
 20
37.664775
 30
0.0
 10
53.102623
 20
36.575832
 30
0.0
 10
53.397082
 20
35.440023
 30
0.0
 10
53.578165
 20
34.263312
 30
0.0
 10
53.639858
 20
33.051669
 30
0.0
 10
53.502966
 20
31.250462
 30
0.0
 10
53.105629
 20
29.534215
 30
0.0
 10
52.467851
 20
27.922935
 30
0.0
 10
51.609645
 20
26.436697
 30
0.0
 10
50.551012
 20
25.095436
 30
0.0
 10
49.311961
 20
23.919246
 30
0.0
 10
47.912500
 20
22.928082
 30
0.0
 10
46.372636
 20
22.142008
 30
0.0
 10
47.563261
 20
19.178675
 30
0.0
 10
51.181291
 20
10.487464
 30
0.0
 10
53.692775
 20
4.697167
 30
0.0
 10
54.381135
 20
4.933105
 30
0.0
 10
55.871178
 20
5.667306
 30
0.0
 10
57.926108
 20
6.752112
 30
0.0
 10
62.071247
 20
3.876973
 30
0.0
 10
65.105641
 20
1.851436
 30
0.0
 10
66.577983
 20
1.010639
 30
0.0
 10
67.628869
 20
1.868425
 30
0.0
 10
69.733945
 20
3.878666
 30
0.0
 10
72.033748
 20
6.196726
 30
0.0
 10
73.668817
 20
7.978000
 30
0.0
 10
73.912293
 20
8.403535
 30
0.0
 10
73.893440
 20
8.673706
 30
0.0
 10
73.745465
 20
9.054706
 30
0.0
 10
72.956022
 20
10.366983
 30
0.0
 10
71.331669
 20
12.775806
 30
0.0
 10
69.319448
 20
15.839478
 30
0.0
 10
68.482989
 20
17.326592
 30
0.0
 10
68.971293
 20
18.828098
 30
0.0
 10
70.073972
 20
21.608213
 30
0.0
 10
71.247669
 20
24.348735
 30
0.0
 10
71.949031
 20
25.731542
 30
0.0
 10
73.520794
 20
26.162919
 30
0.0
 10
76.788312
 20
26.871663
 30
0.0
 10
80.173988
 20
27.532907
 30
0.0
 10
82.100211
 20
27.821736
 30
0.0
 10
82.182397
 20
28.251642
 30
0.0
 10
82.249701
 20
29.423711
 30
0.0
 10
82.311878
 20
33.280981
 30
0.0
 10
82.311878
 20
38.749036
 30
0.0
 10
77.443544
 20
39.648620
 30
0.0
 10
73.839479
 20
40.355321
 30
0.0
 10
72.010767
 20
40.786328
 30
0.0
 10
71.680756
 20
41.160783
 30
0.0
 10
71.171096
 20
42.007825
 30
0.0
 10
69.888560
 20
44.536302
 30
0.0
 10
68.714626
 20
47.205038
 30
0.0
 10
68.340721
 20
48.227399
 30
0.0
 10
68.200767
 20
48.847300
 30
0.0
 10
68.600989
 20
49.745216
 30
0.0
 10
69.567781
 20
51.210911
 30
0.0
 10
72.584031
 20
55.567717
 30
0.0
 10
74.233267
 20
58.045981
 30
0.0
 10
70.405628
 20
61.873620
 30
0.0
 10
66.577989
 20
65.701258
 30
0.0
 10
63.791044
 20
63.866814
 30
0.0
 10
59.116739
 20
60.709453
 30
0.0
 10
57.238197
 20
59.395356
 30
0.0
 10
53.675142
 20
60.859383
 30
0.0
 10
50.999063
 20
62.028658
 30
0.0
 10
49.574100
 20
62.782022
 30
0.0
 10
49.305303
 20
63.149335
 30
0.0
 10
49.059411
 20
63.790304
 30
0.0
 10
48.586322
 20
66.062856
 30
0.0
 10
47.695558
 20
71.354522
 30
0.0
 10
47.254586
 20
73.823967
 30
0.0
 10
41.795350
 20
73.823967
 30
0.0
 10
41.795350
 20
73.823967
 30
0.0
  0
ENDSEC
  0
SECTION
  2
OBJECTS
  0
DICTIONARY
  5
C
330
0
100
AcDbDictionary
  3
ACAD_GROUP
350
D
  3
ACAD_MLINESTYLE
350
17
  0
DICTIONARY
  5
D
330
C
100
AcDbDictionary
  0
DICTIONARY
  5
1A
330
C
100
AcDbDictionary
  0
DICTIONARY
  5
17
330
C
100
AcDbDictionary
  3
STANDARD
350
18
  0
DICTIONARY
  5
19
330
C
100
AcDbDictionary
  0
ENDSEC
  0
EOF
